<svg width="44" height="34" viewBox="0 0 44 34" fill="none" xmlns="http://www.w3.org/2000/svg">
<g filter="url(#filter0_d_2_3007)">
<path fill-rule="evenodd" clip-rule="evenodd" d="M28.6323 6.87838C28.6323 10.6966 25.5884 13.7582 21.7922 13.7582C17.996 13.7582 14.9521 10.6966 14.9521 6.87838C14.9521 3.05869 17.996 0 21.7922 0C25.5884 0 28.6323 3.05869 28.6323 6.87838ZM21.7921 26.0001C16.2165 26.0001 11.4556 25.1161 11.4556 21.5804C11.4556 18.0431 16.1859 17.127 21.7921 17.127C27.3678 17.127 32.1287 18.0109 32.1287 21.5482C32.1287 25.0839 27.3984 26.0001 21.7921 26.0001ZM31.5553 7.00255C31.5553 8.94898 30.9747 10.7622 29.9562 12.2696C29.8514 12.4248 29.9446 12.634 30.1293 12.6662C30.384 12.7101 30.6473 12.735 30.9151 12.7423C33.585 12.8126 35.9815 11.0842 36.6435 8.48213C37.6242 4.61707 34.7447 1.14714 31.078 1.14714C30.6793 1.14714 30.2981 1.18958 29.9271 1.26568C29.8762 1.27739 29.8223 1.30081 29.7932 1.34617C29.7583 1.40179 29.7845 1.47642 29.8194 1.52472C30.9209 3.07748 31.5553 4.97123 31.5553 7.00255ZM35.9771 15.458C37.7712 15.8107 38.9512 16.5307 39.4401 17.5771C39.8533 18.4362 39.8533 19.4328 39.4401 20.2904C38.6922 21.9134 36.2812 22.4344 35.3442 22.5691C35.1507 22.5983 34.995 22.43 35.0153 22.2354C35.494 17.7381 31.6862 15.6058 30.7012 15.1155C30.659 15.0936 30.6503 15.0599 30.6546 15.0394C30.6575 15.0248 30.675 15.0014 30.707 14.997C32.8386 14.9575 35.1303 15.2502 35.9771 15.458ZM12.8353 12.7421C13.1031 12.7348 13.365 12.7114 13.621 12.666C13.8058 12.6338 13.899 12.4246 13.7942 12.2694C12.7757 10.762 12.1951 8.94879 12.1951 7.00235C12.1951 4.97103 12.8295 3.07728 13.931 1.52452C13.9659 1.47623 13.9906 1.40159 13.9572 1.34598C13.9281 1.30207 13.8728 1.27719 13.8233 1.26548C13.4508 1.18938 13.0696 1.14694 12.6709 1.14694C9.00424 1.14694 6.12474 4.61687 7.10688 8.48193C7.76892 11.084 10.1654 12.8124 12.8353 12.7421ZM13.095 15.0386C13.0994 15.0605 13.0907 15.0927 13.0499 15.1161C12.0634 15.6064 8.2556 17.7387 8.7343 22.2345C8.75467 22.4306 8.60044 22.5975 8.40692 22.5697C7.46988 22.435 5.0589 21.914 4.31101 20.291C3.89633 19.4319 3.89633 18.4368 4.31101 17.5777C4.7999 16.5313 5.97848 15.8113 7.77253 15.4571C8.62081 15.2508 10.911 14.9581 13.0441 14.9976C13.0761 15.002 13.0921 15.0254 13.095 15.0386Z" fill="#022140"/>
</g>
<defs>
<filter id="filter0_d_2_3007" x="0" y="0" width="43.75" height="34.0001" filterUnits="userSpaceOnUse" color-interpolation-filters="sRGB">
<feFlood flood-opacity="0" result="BackgroundImageFix"/>
<feColorMatrix in="SourceAlpha" type="matrix" values="0 0 0 0 0 0 0 0 0 0 0 0 0 0 0 0 0 0 127 0" result="hardAlpha"/>
<feOffset dy="4"/>
<feGaussianBlur stdDeviation="2"/>
<feComposite in2="hardAlpha" operator="out"/>
<feColorMatrix type="matrix" values="0 0 0 0 0 0 0 0 0 0 0 0 0 0 0 0 0 0 0.25 0"/>
<feBlend mode="normal" in2="BackgroundImageFix" result="effect1_dropShadow_2_3007"/>
<feBlend mode="normal" in="SourceGraphic" in2="effect1_dropShadow_2_3007" result="shape"/>
</filter>
</defs>
</svg>
