<svg width="35" height="35" viewBox="0 0 35 35" fill="none" xmlns="http://www.w3.org/2000/svg">
<path d="M11.9629 18.457H22.9004C24.9735 18.457 26.6602 16.7704 26.6602 14.6973V3.75977C26.6602 1.68663 24.9735 0 22.9004 0H11.9629C9.88976 0 8.20312 1.68663 8.20312 3.75977V14.6973C8.20312 16.7704 9.88976 18.457 11.9629 18.457ZM12.5979 8.98687C12.9983 8.58642 13.6476 8.58642 14.0481 8.98687L15.7399 10.6786L20.8153 5.60321C21.2157 5.20276 21.865 5.20276 22.2654 5.60321C22.6658 6.00366 22.6658 6.65287 22.2654 7.05332L16.4649 12.8538C16.2647 13.054 16.0022 13.1542 15.7399 13.1542C15.4775 13.1542 15.215 13.0541 15.0149 12.8538L12.598 10.437C12.1975 10.0365 12.1975 9.38731 12.5979 8.98687Z" fill="white"/>
<path d="M17.4316 27.8223C19.4137 27.8223 21.0205 26.2155 21.0205 24.2334C21.0205 22.2513 19.4137 20.6445 17.4316 20.6445C15.4496 20.6445 13.8428 22.2513 13.8428 24.2334C13.8428 26.2155 15.4496 27.8223 17.4316 27.8223Z" fill="white"/>
<path d="M28.8818 27.8223C30.8639 27.8223 32.4707 26.2155 32.4707 24.2334C32.4707 22.2513 30.8639 20.6445 28.8818 20.6445C26.8998 20.6445 25.293 22.2513 25.293 24.2334C25.293 26.2155 26.8998 27.8223 28.8818 27.8223Z" fill="white"/>
<path d="M5.98145 27.8223C7.96352 27.8223 9.57031 26.2155 9.57031 24.2334C9.57031 22.2513 7.96352 20.6445 5.98145 20.6445C3.99937 20.6445 2.39258 22.2513 2.39258 24.2334C2.39258 26.2155 3.99937 27.8223 5.98145 27.8223Z" fill="white"/>
<path d="M32.8137 28.271C31.797 29.2613 30.4099 29.873 28.8818 29.873C27.3538 29.873 25.9666 29.2613 24.9499 28.271C24.759 28.4376 24.579 28.6164 24.4106 28.8058C25.0806 29.978 25.4639 31.3342 25.4639 32.7783V35H33.8379C34.4042 35 34.8633 34.5409 34.8633 33.9746V32.7783C34.8633 30.9801 34.0696 29.3675 32.8137 28.271Z" fill="white"/>
<path d="M9.91334 28.271C8.89663 29.2613 7.50948 29.873 5.98145 29.873C4.45341 29.873 3.06626 29.2613 2.04955 28.271C0.793652 29.3675 0 30.9801 0 32.7783V33.9746C0 34.5409 0.459102 35 1.02539 35H9.39941V32.7783C9.39941 31.3342 9.78271 29.978 10.4526 28.8058C10.2843 28.6164 10.1042 28.4376 9.91334 28.271Z" fill="white"/>
<path d="M21.3635 28.271C20.3468 29.2613 18.9597 29.873 17.4316 29.873C15.9036 29.873 14.5165 29.2613 13.4997 28.271C12.2438 29.3675 11.4502 30.9801 11.4502 32.7783V35H23.4131V32.7783C23.4131 30.9801 22.6194 29.3675 21.3635 28.271Z" fill="white"/>
</svg>
