<svg width="44" height="32" viewBox="0 0 44 32" fill="none" xmlns="http://www.w3.org/2000/svg">
<g clip-path="url(#clip0_5_7007)">
<path d="M41.9375 24C41.9375 28.4182 39.6186 32 35.0625 32H6.875C2.31894 32 0 28.4182 0 24V8C0 3.58182 2.31894 0 6.875 0H35.0625C39.6186 0 41.9375 3.58182 41.9375 8V24Z" fill="#006A4D"/>
<path d="M37.125 0H22V32H37.125C41.6811 32 44 28.4182 44 24V8C44 3.58182 41.6811 0 37.125 0Z" fill="#E6E7E8"/>
<path fill-rule="evenodd" clip-rule="evenodd" d="M29.872 21.1927C27.9958 24.2865 24.0908 26.24 20.0002 24.976C16.1447 23.7803 13.4944 19.8269 13.7144 15.5643C13.9289 11.2822 16.9677 7.63998 20.9194 6.89743C25.109 6.1098 28.4716 8.48652 29.905 10.9709C28.2028 9.2007 26.2241 8.40507 23.9059 8.68289C22.0888 8.90325 20.5715 9.77234 19.3842 11.2371C17.0591 14.1018 17.1437 18.3963 19.5726 21.1003C20.9648 22.648 22.678 23.4603 24.7 23.4793C26.7219 23.4945 28.4345 22.6858 29.8707 21.1927" fill="#E30000"/>
<path d="M25.2491 11.7382L26.4454 14.3403L29.1431 14.7709L27.1748 16.7782L27.6169 19.6283L25.2086 18.2691L22.7769 19.5985L23.2595 16.7563L21.3125 14.72L24.0192 14.3214L25.2491 11.7382Z" fill="#CC0000"/>
</g>
<defs>
<clipPath id="clip0_5_7007">
<rect width="44" height="32" rx="7" fill="white"/>
</clipPath>
</defs>
</svg>
