<svg width="40" height="40" viewBox="0 0 40 40" fill="none" xmlns="http://www.w3.org/2000/svg">
<g clip-path="url(#clip0_2_3305)">
<g clip-path="url(#clip1_2_3305)">
<path d="M20 40C31.0457 40 40 31.0457 40 20C40 8.9543 31.0457 0 20 0C8.9543 0 0 8.9543 0 20C0 31.0457 8.9543 40 20 40Z" fill="#D80027"/>
<g clip-path="url(#clip2_2_3305)">
<path d="M20 0C31.0456 0 40 8.95437 40 20C40 31.0456 31.0456 40 20 40C20 39.1305 17.3913 20 17.3913 20L20 0Z" fill="#F0F0F0"/>
<path d="M20 40C8.95437 40 0 31.0456 0 20C0 8.95437 8.95437 0 20 0" fill="#496E2D"/>
<path d="M24.2971 16.1638L22.6562 18.4251L19.9986 17.5633L21.6422 19.8226L20.0014 22.084L22.658 21.2191L24.3016 23.4784L24.2998 20.6845L26.9565 19.8195L24.299 18.9578L24.2971 16.1638Z" fill="#D80027"/>
<path d="M21.6591 25.6522C18.5376 25.6522 16.007 23.1216 16.007 20C16.007 16.8785 18.5376 14.3478 21.6591 14.3478C22.6324 14.3478 23.5483 14.5939 24.3478 15.0272C23.0934 13.8006 21.3781 13.0435 19.4852 13.0435C15.6432 13.0435 12.5287 16.158 12.5287 19.9999C12.5287 23.8419 15.6433 26.9564 19.4852 26.9564C21.3782 26.9564 23.0935 26.1993 24.3478 24.9727C23.5483 25.4061 22.6324 25.6522 21.6591 25.6522Z" fill="#D80027"/>
</g>
</g>
</g>
<defs>
<clipPath id="clip0_2_3305">
<rect width="40" height="40" fill="white"/>
</clipPath>
<clipPath id="clip1_2_3305">
<rect width="40" height="40" fill="white"/>
</clipPath>
<clipPath id="clip2_2_3305">
<rect width="40" height="40" fill="white"/>
</clipPath>
</defs>
</svg>
