<svg width="22" height="24" viewBox="0 0 22 24" fill="none" xmlns="http://www.w3.org/2000/svg">
<path fill-rule="evenodd" clip-rule="evenodd" d="M6.11167 0.333344H15.8895C19.4933 0.333344 21.5 2.41001 21.5 5.96834V18.02C21.5 21.6367 19.4933 23.6667 15.8895 23.6667H6.11167C2.565 23.6667 0.5 21.6367 0.5 18.02V5.96834C0.5 2.41001 2.565 0.333344 6.11167 0.333344ZM6.42667 5.77001V5.75834H9.91383C10.4167 5.75834 10.825 6.16668 10.825 6.66718C10.825 7.18168 10.4167 7.59001 9.91383 7.59001H6.42667C5.92383 7.59001 5.51667 7.18168 5.51667 6.68001C5.51667 6.17834 5.92383 5.77001 6.42667 5.77001ZM6.42667 12.8633H15.5733C16.075 12.8633 16.4833 12.455 16.4833 11.9533C16.4833 11.4517 16.075 11.0422 15.5733 11.0422H6.42667C5.92383 11.0422 5.51667 11.4517 5.51667 11.9533C5.51667 12.455 5.92383 12.8633 6.42667 12.8633ZM6.42667 18.195H15.5733C16.0388 18.1483 16.39 17.7505 16.39 17.285C16.39 16.8067 16.0388 16.41 15.5733 16.3633H6.42667C6.07667 16.3283 5.73833 16.4917 5.55167 16.795C5.365 17.0867 5.365 17.4717 5.55167 17.775C5.73833 18.0667 6.07667 18.2417 6.42667 18.195Z" fill="white"/>
</svg>
