<svg width="24" height="24" viewBox="0 0 24 24" fill="none" xmlns="http://www.w3.org/2000/svg">
<path fill-rule="evenodd" clip-rule="evenodd" d="M0.333252 12.0175C0.333252 5.87165 5.24492 0.333344 12.0233 0.333344C18.6499 0.333344 23.6666 5.76649 23.6666 11.9825C23.6666 19.1916 17.7866 23.6667 11.9999 23.6667C10.0866 23.6667 7.96325 23.1526 6.25992 22.1477C5.66492 21.7855 5.16325 21.5168 4.52159 21.7271L2.16492 22.4282C1.56992 22.6151 1.03325 22.1477 1.20825 21.5168L1.98992 18.8995C2.11825 18.5373 2.09492 18.1517 1.90825 17.8479C0.904919 16.0018 0.333252 13.9805 0.333252 12.0175ZM10.4833 12.0175C10.4833 12.8471 11.1483 13.5131 11.9766 13.5248C12.8049 13.5248 13.4699 12.8471 13.4699 12.0292C13.4699 11.1996 12.8049 10.5336 11.9766 10.5336C11.1599 10.522 10.4833 11.1996 10.4833 12.0175ZM15.8616 12.0292C15.8616 12.8471 16.5266 13.5248 17.3549 13.5248C18.1833 13.5248 18.8483 12.8471 18.8483 12.0292C18.8483 11.1996 18.1833 10.5336 17.3549 10.5336C16.5266 10.5336 15.8616 11.1996 15.8616 12.0292ZM6.59825 13.5248C5.78159 13.5248 5.10492 12.8471 5.10492 12.0292C5.10492 11.1996 5.76992 10.5336 6.59825 10.5336C7.42659 10.5336 8.09159 11.1996 8.09159 12.0292C8.09159 12.8471 7.42659 13.5131 6.59825 13.5248Z" fill="white"/>
</svg>
