<svg width="25" height="35" viewBox="0 0 25 35" fill="none" xmlns="http://www.w3.org/2000/svg">
<path d="M19.61 4.29608C19.5982 2.06535 17.7803 0.254059 15.5468 0.254059C15.1659 0.254059 14.7874 0.307548 14.4219 0.412843L0.941895 4.29608H19.61Z" fill="white"/>
<path d="M6.9021 17.5H9.19473C9.26924 16.0398 9.50664 14.5953 9.91899 13.4205C8.36241 14.2244 7.22041 15.7207 6.9021 17.5Z" fill="white"/>
<path d="M12.5371 12.8052C12.3886 12.9168 12.044 13.3395 11.727 14.3762C11.4577 15.2573 11.2829 16.3411 11.2183 17.5H13.8559C13.7913 16.3411 13.6165 15.2573 13.3472 14.3762C13.0302 13.3394 12.6856 12.9168 12.5371 12.8052Z" fill="white"/>
<path d="M6.9021 19.521C7.22041 21.3002 8.36241 22.7965 9.91899 23.6005C9.50664 22.4257 9.26924 20.9813 9.19473 19.521H6.9021Z" fill="white"/>
<path d="M11.727 22.6448C12.044 23.6817 12.3886 24.1043 12.5371 24.2159C12.6856 24.1043 13.0302 23.6816 13.3472 22.6448C13.6165 21.7638 13.7913 20.6799 13.8559 19.521H11.2183C11.2829 20.6799 11.4577 21.7638 11.727 22.6448Z" fill="white"/>
<path d="M15.1555 23.6005C16.7121 22.7965 17.8541 21.3003 18.1724 19.521H15.8798C15.8053 20.9812 15.5679 22.4257 15.1555 23.6005Z" fill="white"/>
<path d="M21.9685 6.31709H0.0742188V33.7354C0.0742188 34.2935 0.526655 34.7459 1.08472 34.7459H21.9685C23.6428 34.7459 25 33.3887 25 31.7144V9.3486C25 7.67433 23.6428 6.31709 21.9685 6.31709ZM17.9265 30.2997H7.14775C6.58968 30.2997 6.13725 29.8473 6.13725 29.2892C6.13725 28.7312 6.58968 28.2787 7.14775 28.2787H17.9265C18.4845 28.2787 18.937 28.7312 18.937 29.2892C18.937 29.8473 18.4845 30.2997 17.9265 30.2997ZM12.5371 26.2577C8.2653 26.2577 4.78991 22.7823 4.78991 18.5105C4.78991 14.2387 8.2653 10.7633 12.5371 10.7633C16.8089 10.7633 20.2843 14.2387 20.2843 18.5105C20.2843 22.7823 16.8089 26.2577 12.5371 26.2577Z" fill="white"/>
<path d="M15.1555 13.4205C15.5679 14.5953 15.8053 16.0397 15.8798 17.5H18.1724C17.8541 15.7207 16.7121 14.2244 15.1555 13.4205Z" fill="white"/>
</svg>
