<svg width="34" height="38" viewBox="0 0 34 38" fill="none" xmlns="http://www.w3.org/2000/svg">
<g filter="url(#filter0_d_2_3064)">
<mask id="mask0_2_3064" style="mask-type:luminance" maskUnits="userSpaceOnUse" x="2" y="0" width="32" height="33">
<path d="M2.14392 0.643921H33.8561V32.3561H2.14392V0.643921Z" fill="white"/>
</mask>
<g mask="url(#mask0_2_3064)">
<path d="M7.4293 15.8393V21.1246C7.4293 22.2213 8.3146 23.1066 9.41131 23.1066C10.508 23.1066 11.3933 22.2213 11.3933 21.1246V15.8393C11.3933 14.7425 10.508 13.8573 9.41131 13.8573C8.3146 13.8573 7.4293 14.7425 7.4293 15.8393ZM15.3573 15.8393V21.1246C15.3573 22.2213 16.2426 23.1066 17.3394 23.1066C18.4361 23.1066 19.3214 22.2213 19.3214 21.1246V15.8393C19.3214 14.7425 18.4361 13.8573 17.3394 13.8573C16.2426 13.8573 15.3573 14.7425 15.3573 15.8393ZM6.76863 29.7133H27.9101C29.0068 29.7133 29.8921 28.828 29.8921 27.7313C29.8921 26.6346 29.0068 25.7493 27.9101 25.7493H6.76863C5.67192 25.7493 4.78662 26.6346 4.78662 27.7313C4.78662 28.828 5.67192 29.7133 6.76863 29.7133ZM23.2854 15.8393V21.1246C23.2854 22.2213 24.1707 23.1066 25.2674 23.1066C26.3641 23.1066 27.2494 22.2213 27.2494 21.1246V15.8393C27.2494 14.7425 26.3641 13.8573 25.2674 13.8573C24.1707 13.8573 23.2854 14.7425 23.2854 15.8393ZM16.1105 2.61266L5.67192 8.10944C5.13017 8.38692 4.78662 8.95509 4.78662 9.56291C4.78662 10.4746 5.52657 11.2146 6.4383 11.2146H28.2536C29.1521 11.2146 29.8921 10.4746 29.8921 9.56291C29.8921 8.95509 29.5485 8.38692 29.0068 8.10944L18.5682 2.61266C17.8018 2.20305 16.8769 2.20305 16.1105 2.61266Z" fill="#022140"/>
</g>
</g>
<defs>
<filter id="filter0_d_2_3064" x="0.786621" y="2.30545" width="33.1055" height="35.4079" filterUnits="userSpaceOnUse" color-interpolation-filters="sRGB">
<feFlood flood-opacity="0" result="BackgroundImageFix"/>
<feColorMatrix in="SourceAlpha" type="matrix" values="0 0 0 0 0 0 0 0 0 0 0 0 0 0 0 0 0 0 127 0" result="hardAlpha"/>
<feOffset dy="4"/>
<feGaussianBlur stdDeviation="2"/>
<feComposite in2="hardAlpha" operator="out"/>
<feColorMatrix type="matrix" values="0 0 0 0 0 0 0 0 0 0 0 0 0 0 0 0 0 0 0.25 0"/>
<feBlend mode="normal" in2="BackgroundImageFix" result="effect1_dropShadow_2_3064"/>
<feBlend mode="normal" in="SourceGraphic" in2="effect1_dropShadow_2_3064" result="shape"/>
</filter>
</defs>
</svg>
