<svg width="31" height="31" viewBox="0 0 31 31" fill="none" xmlns="http://www.w3.org/2000/svg">
<g clip-path="url(#clip0_5_5451)">
<path d="M7.48267 17.0871L7.48272 17.0873C7.50068 17.0692 7.49949 17.0703 7.48267 17.0871Z" fill="white"/>
<path d="M30.3128 12.8032L28.7713 12.4325C28.4361 10.9693 27.8588 9.57877 27.0518 8.28586L27.8331 6.97429C28.0459 6.61694 27.9882 6.16108 27.6947 5.86755L25.1345 3.30733C24.841 3.0147 24.3861 2.95616 24.0278 3.16898L22.7162 3.95021C21.4233 3.14325 20.0328 2.56593 18.5695 2.23074L18.1988 0.68922C18.0977 0.285736 17.7351 0.00189209 17.3183 0.00189209H13.6859C13.2691 0.00189209 12.9064 0.285675 12.8053 0.68922L12.4347 2.23074C10.9714 2.56593 9.58091 3.14325 8.28799 3.95021L6.97642 3.16898C6.61908 2.9561 6.16322 3.0138 5.86969 3.30733L3.30934 5.86749C3.01581 6.16102 2.95817 6.61682 3.17099 6.97423L3.95223 8.28579C3.14526 9.57871 2.56795 10.9692 2.23276 12.4325L0.691234 12.8031C0.28775 12.9042 0.00390625 13.2669 0.00390625 13.6837V17.3161C0.00390625 17.7329 0.287689 18.0964 0.692082 18.1967L2.23361 18.5673C2.45708 19.5369 2.79342 20.4684 3.22536 21.3619C3.89229 20.6922 7.24186 17.3283 7.4826 17.0879C7.47073 17.0267 7.34098 15.8635 7.33752 15.637C7.26027 11.0096 10.9875 7.32794 15.5055 7.32794C20.0546 7.32794 23.682 10.996 23.6648 15.5282C23.6453 19.7197 20.5169 23.288 16.1476 23.6143C15.9586 23.6289 15.1041 23.7549 13.9129 23.5201L9.65096 27.7821C10.541 28.2114 11.469 28.5456 12.4346 28.7682L12.8053 30.3106C12.9064 30.7141 13.2691 30.998 13.6859 30.998H17.3182C17.735 30.998 18.0977 30.7142 18.1988 30.3106L18.5695 28.7691C20.0327 28.4339 21.4232 27.8566 22.7161 27.0496L24.0277 27.8309C24.3833 28.0438 24.84 27.9852 25.1344 27.6925L27.6947 25.1323C27.9882 24.8388 28.0458 24.383 27.833 24.0256L27.0518 22.714C27.8596 21.4211 28.4361 20.0306 28.7712 18.5664L30.3119 18.1967C30.7162 18.0964 31 17.7329 31 17.3161V13.6837C31 13.267 30.7163 12.9042 30.3128 12.8032Z" fill="white"/>
<path d="M21.6466 13.8398C21.5669 13.5271 21.3255 13.2812 21.0142 13.1959C20.7031 13.1106 20.3706 13.1995 20.1424 13.4277L18.0702 15.5C17.3619 16.2083 16.2104 16.2083 15.502 15.5C14.7943 14.7923 14.7943 13.6395 15.502 12.9318L17.5751 10.8587C17.8032 10.6305 17.8913 10.2975 17.806 9.98648C17.7207 9.67545 17.475 9.43368 17.1624 9.35425C13.3306 8.38047 9.88238 10.8764 9.24997 14.3231C9.0469 15.4583 9.13735 16.5889 9.50887 17.63C8.99216 18.1468 1.01124 26.1276 0.796718 26.3422C-0.268362 27.4073 -0.268362 29.1401 0.81355 30.222C1.88535 31.238 3.52684 31.2808 4.65961 30.2052L13.3718 21.493C14.767 21.9909 16.323 21.9808 17.8457 21.4435C20.5894 20.4754 22.5096 17.2262 21.6466 13.8398Z" fill="white"/>
</g>
<defs>
<clipPath id="clip0_5_5451">
<rect width="31" height="31" fill="white"/>
</clipPath>
</defs>
</svg>
