<svg width="21" height="21" viewBox="0 0 21 21" fill="none" xmlns="http://www.w3.org/2000/svg">
<path d="M11.2106 1.45575L1.75515 0.0189298C1.31636 -0.0498997 0.868972 0.0705519 0.533429 0.354474C0.197885 0.646999 0 1.06858 0 1.50737V19.6353C0 20.1085 0.387166 20.4957 0.860369 20.4957H3.65657V15.9788C3.65657 15.1442 4.32765 14.4731 5.16221 14.4731H7.31313C8.14769 14.4731 8.81878 15.1442 8.81878 15.9788V20.4957H12.4753V2.94418C12.4753 2.20427 11.9419 1.5762 11.2106 1.45575ZM4.73203 12.5373H3.44148C3.08528 12.5373 2.7962 12.2482 2.7962 11.892C2.7962 11.5358 3.08528 11.2467 3.44148 11.2467H4.73203C5.08822 11.2467 5.37731 11.5358 5.37731 11.892C5.37731 12.2482 5.08822 12.5373 4.73203 12.5373ZM4.73203 9.95619H3.44148C3.08528 9.95619 2.7962 9.6671 2.7962 9.31091C2.7962 8.95472 3.08528 8.66564 3.44148 8.66564H4.73203C5.08822 8.66564 5.37731 8.95472 5.37731 9.31091C5.37731 9.6671 5.08822 9.95619 4.73203 9.95619ZM4.73203 7.37508H3.44148C3.08528 7.37508 2.7962 7.086 2.7962 6.72981C2.7962 6.37361 3.08528 6.08453 3.44148 6.08453H4.73203C5.08822 6.08453 5.37731 6.37361 5.37731 6.72981C5.37731 7.086 5.08822 7.37508 4.73203 7.37508ZM4.73203 4.79398H3.44148C3.08528 4.79398 2.7962 4.50489 2.7962 4.1487C2.7962 3.79251 3.08528 3.50342 3.44148 3.50342H4.73203C5.08822 3.50342 5.37731 3.79251 5.37731 4.1487C5.37731 4.50489 5.08822 4.79398 4.73203 4.79398ZM9.03387 12.5373H7.74332C7.38713 12.5373 7.09804 12.2482 7.09804 11.892C7.09804 11.5358 7.38713 11.2467 7.74332 11.2467H9.03387C9.39007 11.2467 9.67915 11.5358 9.67915 11.892C9.67915 12.2482 9.39007 12.5373 9.03387 12.5373ZM9.03387 9.95619H7.74332C7.38713 9.95619 7.09804 9.6671 7.09804 9.31091C7.09804 8.95472 7.38713 8.66564 7.74332 8.66564H9.03387C9.39007 8.66564 9.67915 8.95472 9.67915 9.31091C9.67915 9.6671 9.39007 9.95619 9.03387 9.95619ZM9.03387 7.37508H7.74332C7.38713 7.37508 7.09804 7.086 7.09804 6.72981C7.09804 6.37361 7.38713 6.08453 7.74332 6.08453H9.03387C9.39007 6.08453 9.67915 6.37361 9.67915 6.72981C9.67915 7.086 9.39007 7.37508 9.03387 7.37508ZM9.03387 4.79398H7.74332C7.38713 4.79398 7.09804 4.50489 7.09804 4.1487C7.09804 3.79251 7.38713 3.50342 7.74332 3.50342H9.03387C9.39007 3.50342 9.67915 3.79251 9.67915 4.1487C9.67915 4.50489 9.39007 4.79398 9.03387 4.79398Z" fill="white"/>
<path d="M19.4618 9.1749L13.3359 7.89209V20.4956H19.1434C19.9737 20.4956 20.6491 19.8202 20.6491 18.99V10.6461C20.6491 9.93547 20.1647 9.33063 19.4618 9.1749ZM17.4227 17.9145H16.1321C15.7759 17.9145 15.4869 17.6254 15.4869 17.2692C15.4869 16.9131 15.7759 16.624 16.1321 16.624H17.4227C17.7789 16.624 18.068 16.9131 18.068 17.2692C18.068 17.6254 17.7789 17.9145 17.4227 17.9145ZM17.4227 15.3334H16.1321C15.7759 15.3334 15.4869 15.0443 15.4869 14.6881C15.4869 14.332 15.7759 14.0429 16.1321 14.0429H17.4227C17.7789 14.0429 18.068 14.332 18.068 14.6881C18.068 15.0443 17.7789 15.3334 17.4227 15.3334ZM17.4227 12.7523H16.1321C15.7759 12.7523 15.4869 12.4632 15.4869 12.107C15.4869 11.7508 15.7759 11.4618 16.1321 11.4618H17.4227C17.7789 11.4618 18.068 11.7508 18.068 12.107C18.068 12.4632 17.7789 12.7523 17.4227 12.7523Z" fill="white"/>
</svg>
