<svg width="22" height="22" viewBox="0 0 22 22" fill="none" xmlns="http://www.w3.org/2000/svg">
<path fill-rule="evenodd" clip-rule="evenodd" d="M15.5281 2.75C16.7573 2.75 17.9398 3.23583 18.8097 4.10758C19.6806 4.9775 20.1673 6.15083 20.1673 7.37917V14.6208C20.1673 17.1783 18.0865 19.25 15.5281 19.25H6.47232C3.9139 19.25 1.83398 17.1783 1.83398 14.6208V7.37917C1.83398 4.82167 3.90473 2.75 6.47232 2.75H15.5281ZM16.9865 8.745L17.0598 8.67167C17.2789 8.40583 17.2789 8.02083 17.0497 7.755C16.9223 7.61842 16.7472 7.535 16.5648 7.51667C16.3723 7.50658 16.189 7.57167 16.0506 7.7L11.9173 11C11.3857 11.4409 10.6239 11.4409 10.084 11L5.95898 7.7C5.6739 7.48917 5.27973 7.51667 5.04232 7.76417C4.79482 8.01167 4.76732 8.40583 4.97723 8.68083L5.09732 8.8L9.26815 12.0542C9.78148 12.4575 10.4039 12.6775 11.0557 12.6775C11.7056 12.6775 12.339 12.4575 12.8514 12.0542L16.9865 8.745Z" fill="white"/>
</svg>
