<svg width="41" height="41" viewBox="0 0 41 41" fill="none" xmlns="http://www.w3.org/2000/svg">
<g filter="url(#filter0_d_2_3021)">
<path d="M16.6328 13.5996H24.3672C24.9017 13.5996 25.334 13.1673 25.334 12.6328C25.334 12.0986 24.9017 11.666 24.3672 11.666H16.6328C16.0986 11.666 15.666 12.0986 15.666 12.6328C15.666 13.1673 16.0986 13.5996 16.6328 13.5996Z" fill="#022140"/>
<path d="M16.6328 17.4668H24.3672C24.9017 17.4668 25.334 17.0345 25.334 16.5C25.334 15.9657 24.9017 15.5332 24.3672 15.5332H16.6328C16.0986 15.5332 15.666 15.9657 15.666 16.5C15.666 17.0345 16.0986 17.4668 16.6328 17.4668Z" fill="#022140"/>
<path d="M16.6328 21.334H24.3672C24.9017 21.334 25.334 20.9017 25.334 20.3672C25.334 19.8329 24.9017 19.4004 24.3672 19.4004H16.6328C16.0986 19.4004 15.666 19.8329 15.666 20.3672C15.666 20.9017 16.0986 21.334 16.6328 21.334Z" fill="#022140"/>
<path d="M25.4015 7.09818C27.961 8.43659 29.918 10.7687 30.7226 13.5996H29.2012C28.8442 13.5996 28.5166 13.796 28.3485 14.1105C28.1805 14.4247 28.1994 14.8061 28.3968 15.1027C28.5103 15.2986 32.0004 21.3091 31.7806 20.9304C32.1394 21.4684 33.0306 21.4684 33.3894 20.9304C33.758 20.296 36.9643 14.8849 36.8379 15.1027C37.0353 14.8061 37.0539 14.4247 36.886 14.1105C36.718 13.796 36.3902 13.5996 36.0335 13.5996H34.7109C33.829 9.2556 30.9875 5.64924 27.1666 3.66479C27.2303 3.90725 27.2666 4.15776 27.2666 4.41507C27.2686 6.48361 25.5956 6.96927 25.4015 7.09818Z" fill="#022140"/>
<path d="M19.1027 0.162095C18.8061 -0.035041 18.4246 -0.0539237 18.1104 0.114007C17.796 0.282189 17.5996 0.609742 17.5996 0.966751V2.28905C12.3582 3.35328 8.15445 7.24841 6.62671 12.305C7.14334 11.8968 7.75665 11.667 8.41503 11.667C9.28162 11.667 10.0702 12.0499 10.61 12.6796C11.8071 9.59314 14.3825 7.19176 17.5996 6.27733V7.79878C17.5996 8.15579 17.796 8.48334 18.1104 8.65152C18.4249 8.81945 18.8063 8.80057 19.1027 8.60343C19.2985 8.48963 25.309 4.9996 24.9304 5.2194C25.4687 4.86062 25.4687 3.96936 24.9304 3.61059C24.2959 3.24225 18.8849 0.0357064 19.1027 0.162095Z" fill="#022140"/>
<path d="M4.11401 20.8231C4.28219 21.1375 4.60974 21.3339 4.96675 21.3339H6.84067C8.07107 24.8088 10.6014 27.6425 13.8296 29.3253C13.7674 29.0862 13.7334 28.8387 13.7334 28.5849C13.7314 26.5252 15.391 26.0372 15.5846 25.9088C13.6385 24.8897 12.0435 23.2912 11.0392 21.3339H11.7988C12.1558 21.3339 12.4833 21.1375 12.6515 20.8231C12.8195 20.5089 12.8006 20.1274 12.6032 19.8308C12.4896 19.635 8.9996 13.6245 9.21939 14.0031C8.86062 13.4651 7.96936 13.4651 7.61059 14.0031C7.35579 14.442 3.95388 20.1899 4.16209 19.8308C3.96496 20.1274 3.94608 20.5089 4.11401 20.8231Z" fill="#022140"/>
<path d="M23.4004 25.2011C23.4004 24.8441 23.2041 24.5166 22.8896 24.3484C22.5754 24.1804 22.194 24.1993 21.8974 24.3967C21.7015 24.5103 15.691 28.0003 16.0697 27.7805C15.5316 28.1393 15.5316 29.0305 16.0697 29.3893C16.7041 29.7576 22.1152 32.9642 21.8974 32.8378C22.194 33.0352 22.5754 33.0538 22.8896 32.8859C23.2041 32.718 23.4004 32.3902 23.4004 32.0334V30.7108C27.7442 29.8289 31.3503 26.9879 33.3348 23.1673C33.0928 23.2313 32.8423 23.2675 32.585 23.2675C30.9427 23.2675 30.3208 22.2212 29.8689 21.4686C28.525 23.9956 26.2067 25.925 23.4004 26.7226V25.2011Z" fill="#022140"/>
</g>
<defs>
<filter id="filter0_d_2_3021" x="0" y="0" width="41.0001" height="41" filterUnits="userSpaceOnUse" color-interpolation-filters="sRGB">
<feFlood flood-opacity="0" result="BackgroundImageFix"/>
<feColorMatrix in="SourceAlpha" type="matrix" values="0 0 0 0 0 0 0 0 0 0 0 0 0 0 0 0 0 0 127 0" result="hardAlpha"/>
<feOffset dy="4"/>
<feGaussianBlur stdDeviation="2"/>
<feComposite in2="hardAlpha" operator="out"/>
<feColorMatrix type="matrix" values="0 0 0 0 0 0 0 0 0 0 0 0 0 0 0 0 0 0 0.25 0"/>
<feBlend mode="normal" in2="BackgroundImageFix" result="effect1_dropShadow_2_3021"/>
<feBlend mode="normal" in="SourceGraphic" in2="effect1_dropShadow_2_3021" result="shape"/>
</filter>
</defs>
</svg>
