<svg width="33" height="33" viewBox="0 0 33 33" fill="none" xmlns="http://www.w3.org/2000/svg">
<g clip-path="url(#clip0_5_5428)">
<path d="M32.6424 10.4076C32.6424 9.00258 32.3661 7.64094 31.8254 6.3543C31.3005 5.11501 30.5506 4.00202 29.5955 3.04691C28.6403 2.09179 27.5274 1.3419 26.2881 0.816981C25.0054 0.272327 23.6398 0 22.2347 0C20.8297 0 19.4681 0.276274 18.1814 0.816981C16.9422 1.3419 15.8291 2.09179 14.874 3.04691C13.9189 4.00202 13.169 5.11501 12.6441 6.3543C12.0994 7.637 11.8271 9.00258 11.8271 10.4076C11.8271 12.1639 12.2691 13.8847 13.1098 15.4161L0.64986 27.8642C0.361746 28.1523 0.27097 28.5904 0.448574 29.0048C0.484095 29.0916 0.543297 29.1706 0.610392 29.2376L3.40076 32.028C3.46785 32.0951 3.54679 32.1504 3.63362 32.1898C4.04803 32.3674 4.48612 32.2806 4.77423 31.9885L6.49897 30.2638L8.98149 32.7463C9.04858 32.8134 9.12752 32.8686 9.21431 32.9081C9.62872 33.0857 10.0669 32.9989 10.3549 32.7068L13.1058 29.9559C13.1729 29.8888 13.2282 29.8099 13.2676 29.7231C13.4452 29.3087 13.3584 28.8706 13.0664 28.5825L10.6233 26.1394L17.2223 19.5365C18.7497 20.3772 20.4744 20.8192 22.2308 20.8192C23.6358 20.8192 24.9974 20.5429 26.284 20.0022C27.5233 19.4773 28.6364 18.7274 29.5915 17.7723C30.5466 16.8172 31.2964 15.7042 31.8214 14.4649C32.3661 13.1743 32.6424 11.8127 32.6424 10.4076ZM25.8816 14.0584C24.9067 15.0332 23.6082 15.57 22.2308 15.57C20.8534 15.57 19.5549 15.0332 18.5801 14.0584C17.6052 13.0835 17.0645 11.7851 17.0645 10.4076C17.0645 9.02626 17.6013 7.73172 18.5761 6.75687C19.551 5.78202 20.8495 5.24525 22.2269 5.24525C23.6043 5.24525 24.9028 5.78202 25.8776 6.75687C26.8525 7.73172 27.3893 9.03021 27.3893 10.4076C27.3971 11.7851 26.8604 13.0835 25.8816 14.0584Z" fill="white"/>
</g>
<defs>
<clipPath id="clip0_5_5428">
<rect width="33" height="33" fill="white"/>
</clipPath>
</defs>
</svg>
