<svg width="34" height="34" viewBox="0 0 34 34" fill="none" xmlns="http://www.w3.org/2000/svg">
<g clip-path="url(#clip0_2_656)">
<path d="M2.59929 11.3215H0.998901C0.448792 11.3215 0.00280762 11.7675 0.00280762 12.3176C0.00280762 12.8677 0.448792 13.3137 0.998901 13.3137H2.59929C3.91872 13.2651 3.91918 11.3703 2.59929 11.3215Z" fill="white"/>
<path d="M33.0073 11.3215H31.4069C30.8568 11.3215 30.4108 11.7675 30.4108 12.3176C30.4108 12.8677 30.8568 13.3137 31.4069 13.3137H33.0073C34.3267 13.2651 34.3271 11.3703 33.0073 11.3215Z" fill="white"/>
<path d="M6.11368 2.83679C7.08096 3.7354 8.4213 2.39599 7.52236 1.42812L6.39086 0.296619C6.00192 -0.092322 5.37119 -0.092322 4.98219 0.296619C4.59318 0.685561 4.59318 1.31629 4.98219 1.7053L6.11368 2.83679Z" fill="white"/>
<path d="M27.8925 21.7983C26.9252 20.8997 25.5849 22.2392 26.4838 23.207L27.6153 24.3385C28.0042 24.7273 28.6348 24.7276 29.024 24.3385C29.413 23.9495 29.413 23.3188 29.024 22.9298L27.8925 21.7983Z" fill="white"/>
<path d="M6.11368 21.7983L4.98219 22.9298C4.59318 23.3187 4.59318 23.9494 4.98219 24.3384C5.37106 24.7273 6.00172 24.7276 6.39086 24.3384L7.52236 23.2069C8.42103 22.2396 7.08142 20.8995 6.11368 21.7983Z" fill="white"/>
<path d="M27.6153 0.296629L26.4838 1.42813C26.0948 1.81707 26.0948 2.44779 26.4838 2.8368C26.8726 3.22568 27.5033 3.22594 27.8924 2.8368L29.0239 1.7053C29.9226 0.737965 28.5831 -0.602113 27.6153 0.296629Z" fill="white"/>
<path d="M21.6835 13.3137L19.8049 15.1923C20.8522 17.218 19.294 19.746 17.0031 19.7154C15.2772 19.7154 13.8731 18.3113 13.8731 16.5854C13.8427 14.2947 16.3705 12.7361 18.3962 13.7836L20.5666 11.6132C20.7533 11.4264 21.0067 11.3214 21.2709 11.3214H28.0901C26.5464 -2.10492 7.45481 -2.0951 5.91602 11.3214H12.3227L14.2013 9.44279C13.154 7.4171 14.7123 4.88911 17.0032 4.91972C18.7291 4.91972 20.1332 6.32384 20.1332 8.0497C20.1636 10.3404 17.6358 11.899 15.61 10.8514L13.4397 13.0218C13.253 13.2086 12.9996 13.3136 12.7354 13.3136H5.91675C6.16783 16.0963 7.46258 18.6921 9.55727 20.5524C10.698 21.6068 11.438 23.0238 11.6648 24.5448C11.6673 24.5444 22.3377 24.5444 22.3414 24.5448C22.5681 23.0241 23.3082 21.607 24.4491 20.5524C26.5438 18.6922 27.8386 16.0963 28.0896 13.3136H21.6835V13.3137Z" fill="white"/>
<path d="M11.7393 27.6747C11.7393 30.2366 13.5793 32.3757 16.0071 32.8428C15.9081 34.3862 18.0987 34.3852 17.9993 32.8428C20.427 32.3757 22.2671 30.2366 22.2671 27.6747V26.5369H11.7393V27.6747Z" fill="white"/>
<path d="M18.1409 8.04982C18.1409 7.42248 17.6304 6.91202 17.003 6.91202C15.4957 6.96926 15.4961 9.13058 17.003 9.18763C17.6304 9.18756 18.1409 8.67716 18.1409 8.04982Z" fill="white"/>
<path d="M15.8652 16.5854C15.8652 17.2127 16.3757 17.7232 17.003 17.7232C18.5104 17.6659 18.51 15.5046 17.003 15.4476C16.3757 15.4476 15.8652 15.958 15.8652 16.5854Z" fill="white"/>
</g>
<defs>
<clipPath id="clip0_2_656">
<rect width="34" height="34" fill="white"/>
</clipPath>
</defs>
</svg>
