<svg width="40" height="40" viewBox="0 0 40 40" fill="none" xmlns="http://www.w3.org/2000/svg">
<g clip-path="url(#clip0_2_3479)">
<g clip-path="url(#clip1_2_3479)">
<path d="M-8 13.6365H48V26.3637H-8V13.6365Z" fill="white"/>
<path d="M39.25 0H0.75C-5.04862 0 -8 4.47727 -8 10V13.6364H48V10C48 4.47727 45.0486 0 39.25 0Z" fill="#E30000"/>
<path d="M-8 29.9999C-8 35.5226 -5.04862 39.9999 0.75 39.9999H39.25C45.0486 39.9999 48 35.5226 48 29.9999V26.3635H-8V29.9999Z" fill="#25333A"/>
<path fill-rule="evenodd" clip-rule="evenodd" d="M24.0635 16.7346C24.1492 17.5491 24.1475 18.3655 24.1851 19.1836C24.2569 20.7473 24.3129 22.3182 24.3741 23.8864V24.17C23.913 23.7191 23.4904 23.31 23.0721 22.8964C23.0607 22.8555 23.08 22.8273 23.108 22.7991C23.1841 22.71 23.157 22.6045 23.1509 22.5082C23.108 21.8309 23.0957 21.1509 23.0616 20.4709C23.0161 19.4891 22.9881 18.5091 22.9321 17.5273C22.9172 17.2264 23.0109 17.01 23.2602 16.8591C23.4169 16.7627 23.5219 16.8018 23.5271 16.9909C23.5411 17.3591 23.5534 17.7264 23.5726 18.0946C23.6277 19.1536 23.6592 20.2146 23.7082 21.2727C23.731 21.7646 23.7765 22.2546 23.7616 22.7446C23.7564 22.8918 23.7651 23.0355 23.787 23.1227C23.7144 22.8155 23.773 22.4473 23.745 22.08C23.6934 21.4555 23.682 20.8282 23.6566 20.2009C23.619 19.1309 23.5595 18.0655 23.5297 16.9955C23.5227 16.6536 23.5919 16.6082 23.9139 16.7282C23.9629 16.7373 24.0145 16.7046 24.0635 16.7346ZM17.2122 23.0782C16.8491 23.4291 16.4842 23.7791 16.0957 24.15C16.0957 23.8136 16.0852 23.5236 16.0975 23.2282C16.1745 21.2673 16.2576 19.3046 16.3372 17.34C16.346 17.1373 16.3679 16.9364 16.3854 16.7336C16.437 16.7118 16.4729 16.7918 16.5271 16.7509C16.5774 16.7113 16.6358 16.6843 16.6977 16.6718C16.8412 16.6464 16.9226 16.7173 16.9226 16.8691C16.9226 17.3355 16.8929 17.7964 16.871 18.2564C16.8561 18.6164 16.8307 18.9764 16.822 19.3364C16.8001 20.1473 16.7555 20.9564 16.7266 21.7627C16.7082 22.2136 16.6995 22.6664 16.6741 23.1136C16.7074 22.6927 16.7074 22.2636 16.724 21.84C16.78 20.4764 16.8377 19.1127 16.8964 17.7491C16.9051 17.5055 16.9305 17.2591 16.9217 17.0127C16.9182 16.93 16.9305 16.8473 17.0145 16.8136C17.088 16.78 17.1449 16.8336 17.2061 16.8691C17.4389 17.0127 17.5272 17.2191 17.5159 17.5027C17.4644 18.6577 17.416 19.8129 17.3706 20.9682C17.3496 21.4873 17.3531 22.01 17.2945 22.53C17.2779 22.7109 17.2315 22.8927 17.2122 23.0782Z" fill="#E6E600"/>
<path fill-rule="evenodd" clip-rule="evenodd" d="M17.2122 23.0782C17.1527 22.9095 17.1502 22.7248 17.2052 22.5545C17.235 22.5491 17.2822 22.6318 17.2945 22.5409C17.3015 22.4591 17.3242 22.3827 17.3242 22.3045C17.3242 21.7755 17.3601 21.2473 17.3846 20.7227C17.4196 19.9727 17.4362 19.2209 17.487 18.4736C17.5053 18.2218 17.5027 17.9673 17.508 17.7164C17.5115 17.5809 17.5053 17.4136 17.6628 17.3736C17.8195 17.3345 17.9122 17.4682 17.998 17.5882C18.0496 17.6609 18.0531 17.7491 18.0478 17.8382C18.0015 18.5518 17.9918 19.2645 17.9577 19.9791C17.928 20.6718 17.9043 21.3636 17.8728 22.0591C17.9183 21.0355 17.963 20.0109 18.0006 18.9855C18.0102 18.6627 18.0338 18.34 18.0426 18.0127C18.0496 17.7536 18.1161 17.7036 18.369 17.7282C18.4871 17.7418 18.6008 17.7655 18.7216 17.7736C18.7767 17.7955 18.8371 17.8164 18.8537 17.8855C18.8292 17.9782 18.7496 17.9682 18.6857 17.97C18.5466 17.98 18.4993 18.0645 18.5378 18.1882C18.5825 18.32 18.5658 18.4555 18.572 18.5873C18.5658 18.7073 18.5632 18.8273 18.5536 18.9473C18.5239 19.2104 18.509 19.4751 18.509 19.74C18.5037 20.22 18.46 20.7027 18.4477 21.1818C18.4039 21.3587 18.3935 21.5427 18.4171 21.7236C18.4285 21.7818 18.4451 21.84 18.4591 21.8982C18.4722 21.9845 18.4381 22.0627 18.3926 22.13C18.3704 22.1553 18.3432 22.1753 18.3128 22.1887C18.2824 22.202 18.2497 22.2083 18.2167 22.2073C18.1318 22.1936 18.0951 22.2655 18.047 22.3091L17.2122 23.0782ZM23.1132 22.8636C23.0983 22.8764 23.0843 22.8873 23.0712 22.9009C22.891 22.7264 22.7072 22.5536 22.5296 22.3755C22.5165 22.3364 22.5331 22.3055 22.5541 22.2745C22.5716 22.2409 22.5672 22.2055 22.5672 22.1682C22.5541 21.0973 22.4981 20.0327 22.4465 18.9655C22.4281 18.5773 22.4421 18.1855 22.401 17.7982C22.3907 17.7314 22.4054 17.6631 22.4421 17.6073C22.5261 17.4836 22.6197 17.3373 22.7868 17.3791C22.9426 17.4191 22.9382 17.5873 22.94 17.7218C22.9688 18.9055 23.0388 20.0891 23.0887 21.2727C23.1062 21.6964 23.0887 22.1255 23.1491 22.5482C23.1622 22.6491 23.1771 22.7636 23.1132 22.8636ZM22.5602 23.5145C22.5777 23.6855 22.6451 23.7264 22.8175 23.6755C23.0843 23.5955 23.4588 23.7855 23.4046 24.1382C23.3923 24.2345 23.416 24.2982 23.5096 24.3436C23.647 24.41 23.696 24.5955 23.864 24.6273C23.8885 24.6336 23.9016 24.6855 23.8797 24.7027C23.7222 24.7982 23.7686 25.0282 23.6198 25.1309C23.5997 25.1473 23.5708 25.1745 23.5682 25.1982C23.5577 25.5127 23.3337 25.5691 23.101 25.6209C21.9967 25.8709 20.8776 25.8945 19.755 25.8709C18.9272 25.8564 18.1012 25.8091 17.291 25.6027C17.0775 25.5518 16.9418 25.4682 16.8683 25.2209C16.8099 25.0491 16.7232 24.8891 16.612 24.7482C16.5472 24.6655 16.5647 24.6573 16.6373 24.5955C16.8202 24.4409 17.0713 24.3473 17.0565 24.0082C17.0451 23.7655 17.375 23.5845 17.6331 23.6736C17.8011 23.7309 17.872 23.6882 17.8903 23.5145C17.9463 23.5027 17.9682 23.5436 17.9883 23.5845C18.0181 23.65 18.0111 23.7164 18.0032 23.7855C17.9927 23.8159 17.9723 23.8417 17.9455 23.8582C17.8641 23.8982 17.7836 23.8745 17.7057 23.8509C17.6497 23.8318 17.5806 23.8045 17.5307 23.8664C17.4686 23.9473 17.5631 23.9709 17.5893 24.0218C17.6033 24.0462 17.6094 24.0745 17.6068 24.1027C17.5937 24.15 17.5561 24.1745 17.5193 24.1973C17.3925 24.2273 17.2875 24.2864 17.2315 24.4209C17.2061 24.4864 17.1396 24.5218 17.0783 24.5645C16.9068 24.6891 16.8902 24.7873 17.018 24.9545C17.0416 24.9882 17.0801 25.0209 17.088 25.0609C17.1396 25.3282 17.3391 25.3736 17.5517 25.4173C18.2683 25.5609 18.9963 25.6245 19.7278 25.6291C20.3832 25.6355 21.036 25.6482 21.6896 25.5855C22.1525 25.5409 22.6162 25.4927 23.0677 25.3736C23.2007 25.3391 23.2996 25.2855 23.332 25.1336C23.3468 25.0636 23.3958 25.0055 23.4387 24.9482C23.5533 24.8009 23.5463 24.6891 23.4037 24.5827C23.3061 24.5246 23.2252 24.4405 23.1692 24.3391C23.1123 24.2218 23.0038 24.2382 22.8953 24.2536C22.6005 24.3055 22.3161 24.3936 22.023 24.4527C21.9845 24.4473 21.9591 24.4255 21.9372 24.39C21.917 24.3576 21.905 24.3204 21.9026 24.2819C21.9001 24.2434 21.9072 24.2049 21.9232 24.17C21.9388 24.1381 21.9644 24.1128 21.9958 24.0982C22.3126 24.2327 22.583 24.0182 22.8796 23.9809C22.9207 23.9745 22.9435 23.9418 22.9391 23.9027C22.9242 23.8436 22.8787 23.8273 22.8227 23.8355C22.7221 23.8473 22.6232 23.91 22.5165 23.8655C22.4884 23.849 22.4663 23.8235 22.4535 23.7927C22.4371 23.7246 22.4411 23.653 22.4648 23.5873C22.4832 23.5455 22.5042 23.5036 22.5637 23.5145" fill="#E6E600"/>
<path fill-rule="evenodd" clip-rule="evenodd" d="M22.5707 22.3363L22.5287 22.3699C22.401 22.3136 22.3389 22.1572 22.1954 22.1217C22.1812 22.1335 22.1643 22.1413 22.1464 22.1443C22.1284 22.1473 22.11 22.1455 22.093 22.139C22.0116 22.0836 21.9827 22.0072 21.9871 21.9108C21.995 21.8508 22.0195 21.7954 22.0282 21.7327C22.0553 21.5576 22.0466 21.3786 22.0029 21.2072C21.9854 20.6836 21.9381 20.1645 21.9364 19.639C21.9364 19.4654 21.9609 19.2808 21.8611 19.1217C21.8262 19.0965 21.7989 19.0615 21.7824 19.0208C21.8191 18.7599 21.8699 18.5017 21.9005 18.2381C21.925 18.0208 21.932 18.0099 21.7264 17.9708C21.673 17.9608 21.6152 17.9608 21.5942 17.8899C21.61 17.8172 21.6739 17.799 21.7307 17.7745C21.8611 17.7627 21.9915 17.7354 22.1219 17.7227C22.3196 17.7027 22.3931 17.7617 22.4045 17.969C22.4237 18.3827 22.4369 18.7936 22.4535 19.2054C22.5051 20.2263 22.5279 21.2536 22.5874 22.2763C22.5874 22.2981 22.5769 22.3181 22.5707 22.3363Z" fill="#E6E600"/>
<path fill-rule="evenodd" clip-rule="evenodd" d="M22.1149 22.1182C22.1429 22.1182 22.1691 22.1209 22.1963 22.1209L22.3608 22.81C22.3844 22.8509 22.3818 22.8863 22.338 22.9127C22.3056 22.93 22.2619 22.8663 22.2321 22.93C22.0904 23.2163 22.1446 23.4827 22.3984 23.6854C22.4325 23.71 22.4684 23.73 22.4841 23.7763C22.4997 23.791 22.5161 23.8046 22.5331 23.8172C22.5314 23.9182 22.45 23.9254 22.3914 23.9418C22.2383 23.9745 22.0904 24.0254 21.9329 24.0145C21.8777 24.0144 21.8231 24.0265 21.7728 24.05C21.4595 24.1136 21.1428 24.11 20.8278 24.0981C20.7726 24.0945 20.7079 24.0891 20.6904 24.1654C20.6755 24.2382 20.7324 24.2618 20.7875 24.2782C20.9275 24.3272 21.0736 24.3091 21.2154 24.3172C21.2941 24.3218 21.3816 24.2936 21.4429 24.3763C21.4525 24.49 21.3659 24.4954 21.2933 24.5081C21.204 24.5218 21.1135 24.5236 21.0238 24.5136C20.8435 24.5027 20.679 24.5372 20.5451 24.6772C20.5279 24.6988 20.5056 24.7154 20.4804 24.7254C20.3386 24.7754 20.2196 24.61 20.0385 24.7209C19.9309 24.7891 19.762 24.5836 19.6798 24.43C19.6716 24.3988 19.6704 24.3662 19.6763 24.3345C19.6894 24.2636 19.8023 24.2363 19.7594 24.1509C19.713 24.0627 19.6203 24.1063 19.5503 24.0981C19.3954 24.0818 19.23 24.1709 19.0909 24.0454C19.083 23.9009 19.2248 23.92 19.2886 23.8491C19.3273 23.8151 19.3755 23.795 19.426 23.7918C19.4575 23.7918 19.4846 23.8036 19.51 23.8236C19.5336 23.8472 19.559 23.8791 19.5949 23.8754C19.8119 23.8527 19.9895 23.9309 20.1523 24.0672C20.1925 24.1009 20.2406 24.1154 20.2844 24.0763C20.4585 23.9372 20.6519 23.8545 20.882 23.8718C20.9056 23.8718 20.9249 23.84 20.9459 23.8218C20.9695 23.8026 20.9976 23.7904 21.0273 23.7863C21.1804 23.8491 21.2889 23.8436 21.3676 23.6518C21.4368 23.48 21.5286 23.4954 21.7281 23.6809C21.8681 23.4791 21.8673 23.4363 21.6984 23.1791C21.6021 23.2618 21.603 23.4563 21.442 23.4545C21.2924 23.4545 21.26 23.2936 21.1725 23.2072C21.0911 23.3036 21.155 23.4991 20.9721 23.5245C20.8864 23.4663 20.8794 23.38 20.8943 23.2882C20.9599 23.0927 20.9494 22.8936 20.9301 22.6954C20.9365 22.6629 20.9497 22.6322 20.9686 22.6054C21.0605 22.4927 21.0386 22.3472 21.0719 22.2172C21.1016 22.1054 21.0981 21.9481 21.2495 21.9345C21.3843 21.9254 21.4438 22.06 21.5094 22.16C21.5274 22.186 21.5385 22.2163 21.5418 22.2482C21.5321 22.16 21.5698 22.0482 21.6293 21.9482C21.7071 21.8191 21.8524 21.8309 21.9591 21.9682C22.0029 22.0254 22.0221 22.1145 22.1149 22.1182Z" fill="#E6E600"/>
<path fill-rule="evenodd" clip-rule="evenodd" d="M19.3875 23.9454C19.3017 24.0254 19.1819 23.9554 19.0926 24.0245C18.971 24.1754 18.8284 24.04 18.6971 24.0536C18.6376 24.0418 18.5851 24.01 18.5247 24.0145C18.3655 24.0254 18.2141 23.9745 18.061 23.9418C18.0006 23.9254 17.9184 23.9191 17.9149 23.8172C17.9321 23.8048 17.9485 23.7912 17.9639 23.7763C17.9787 23.73 18.0155 23.7109 18.0496 23.6854C18.3007 23.4827 18.3594 23.2163 18.2185 22.9327C18.1861 22.8709 18.1441 22.93 18.11 22.9136C18.0645 22.8872 18.0645 22.8518 18.0872 22.8109C18.1065 22.6036 18.2159 22.4181 18.2159 22.2081C18.2264 22.1841 18.2427 22.1632 18.2632 22.1476C18.2838 22.132 18.3078 22.1222 18.3331 22.1191C18.3961 22.1191 18.4329 22.0781 18.4609 22.0227C18.5134 21.9236 18.5877 21.8445 18.7076 21.86C18.8249 21.8754 18.8432 21.9891 18.8791 22.0836C18.8887 22.1072 18.8887 22.1391 18.9115 22.1591C18.9264 22.1627 18.9342 22.1545 18.9447 22.1409C19.0209 22.0536 19.0751 21.9045 19.2142 21.9381C19.3717 21.9754 19.356 22.1463 19.384 22.2754C19.4067 22.3781 19.4015 22.4918 19.496 22.5645C19.5186 22.5862 19.5344 22.6143 19.5415 22.6454C19.503 22.87 19.475 23.09 19.5765 23.3081C19.5826 23.3918 19.5634 23.4627 19.496 23.5136C19.2869 23.5218 19.3656 23.3 19.2755 23.21C19.0252 23.5481 18.9859 23.5481 18.761 23.1909C18.5912 23.3854 18.586 23.4309 18.7032 23.6763C18.7671 23.6791 18.7872 23.6091 18.8301 23.5791C18.9194 23.5145 19.0174 23.51 19.062 23.6091C19.1259 23.7745 19.258 23.8545 19.3875 23.9454ZM19.6316 15.8881C19.6701 15.63 19.7375 15.3772 19.7226 15.1145C19.7201 15.0275 19.6971 14.9425 19.6556 14.8669C19.6141 14.7913 19.5554 14.7274 19.4846 14.6809C19.442 14.6576 19.3945 14.6457 19.3464 14.6463C19.2729 14.6381 19.1784 14.8109 19.1311 14.6381C19.1114 14.5717 19.1102 14.5008 19.1277 14.4337C19.1452 14.3666 19.1807 14.306 19.23 14.2591C19.2554 14.2345 19.293 14.2118 19.3219 14.2136C19.7384 14.2436 20.1584 14.0745 20.574 14.2627C20.7919 14.3645 20.9257 14.5109 20.9406 14.7627C20.959 14.8063 20.9651 14.8472 20.9187 14.8745C20.8522 14.8745 20.8164 14.8254 20.7954 14.7736C20.7219 14.5836 20.5679 14.5691 20.4357 14.65C20.1662 14.8209 19.9597 14.7091 19.762 14.53C19.6803 14.461 19.5868 14.4089 19.4864 14.3763C19.6684 14.4218 19.818 14.5536 19.9519 14.6954C20.0481 14.7936 20.0805 14.9018 19.9641 15.0336C19.8259 15.1872 19.9072 15.4054 19.8504 15.5881C19.8066 15.7236 19.8399 15.8991 19.6622 15.9636C19.6281 15.9491 19.615 15.9254 19.6316 15.8881ZM21.2224 16.7345C21.2635 16.84 21.3527 16.8209 21.4341 16.8163C21.813 16.8018 22.1455 16.6454 22.4727 16.4681C22.5095 16.4445 22.5287 16.4636 22.5427 16.4972C22.5392 16.6172 22.4465 16.6681 22.3642 16.7191C22.2256 16.8011 22.077 16.8635 21.9224 16.9045C21.7377 16.96 21.5592 17.04 21.3834 17.0936C21.1427 17.17 20.8654 17.32 20.5924 17.1372C20.5197 17.09 20.448 17.0781 20.3605 17.1336C20.1601 17.2663 20.0411 17.2009 19.986 16.9445C19.9901 16.9297 19.9971 16.9159 20.0066 16.904C20.0161 16.8921 20.0278 16.8824 20.0411 16.8754C20.2992 16.87 20.3062 16.8654 20.3027 16.58C20.3027 16.5054 20.2905 16.4345 20.2984 16.3627C20.3246 16.2245 20.3316 16.0845 20.3299 15.9454C20.329 15.8663 20.315 15.7863 20.3867 15.7309C20.5259 15.7254 20.511 15.8372 20.5171 15.9254C20.532 16.17 20.511 16.4136 20.5617 16.6572C20.581 16.7563 20.6125 16.8345 20.7394 16.8872C20.6352 16.5968 20.5656 16.2943 20.532 15.9863C20.5259 15.9209 20.5154 15.8581 20.5189 15.7927C20.5215 15.7045 20.5259 15.5982 20.637 15.5982C20.7227 15.5963 20.7621 15.6854 20.7674 15.77C20.7752 15.8836 20.805 15.9945 20.8164 16.11C20.8347 16.3045 20.8767 16.4936 20.9546 16.6727C20.9887 16.7463 21.0264 16.85 21.1384 16.7563C21.1637 16.7345 21.19 16.7218 21.2224 16.7345Z" fill="#E6E600"/>
<path fill-rule="evenodd" clip-rule="evenodd" d="M19.6316 15.8882C19.6448 15.9091 19.657 15.9291 19.6728 15.9491C19.7611 16.0418 19.7034 16.14 19.6763 16.23C19.6133 16.44 19.4855 16.6164 19.3823 16.8091C19.5223 16.7737 19.5774 16.6591 19.6194 16.5391C19.699 16.3164 19.776 16.0918 19.8058 15.85C19.8101 15.8327 19.8058 15.8073 19.8136 15.79C19.8574 15.6964 19.8355 15.5318 19.9746 15.5455C20.1321 15.5609 20.0621 15.7127 20.0569 15.8091C20.0328 16.1918 19.9248 16.5638 19.741 16.8964C19.7156 16.94 19.6894 16.9791 19.6859 17.0327C19.6395 17.0773 19.6395 17.1327 19.6518 17.1918C19.5756 17.29 19.4943 17.3237 19.4304 17.19C19.3884 17.1009 19.3376 17.1255 19.2746 17.1427C19.1513 17.1764 19.0419 17.1591 18.9588 17.0482C18.9001 16.9737 18.8161 16.9637 18.7313 16.9518C18.5108 16.9182 18.2985 16.8414 18.1056 16.7255C18.0146 16.6782 17.914 16.6273 17.9061 16.4973C17.9201 16.4637 17.9394 16.4437 17.977 16.4682C18.2955 16.6418 18.6201 16.79 18.9903 16.8209C19.1136 16.8282 19.1915 16.7946 19.2606 16.6809C19.4111 16.4291 19.5266 16.1618 19.6316 15.8882Z" fill="#E6E600"/>
<path fill-rule="evenodd" clip-rule="evenodd" d="M17.977 16.4636C17.9586 16.4754 17.942 16.4891 17.9227 16.5045C17.8335 16.5772 17.753 16.5236 17.6707 16.4854C17.4878 16.3991 17.2934 16.3415 17.0941 16.3145C16.857 16.2809 16.6811 16.3972 16.5858 16.6291C16.5508 16.7218 16.507 16.8163 16.4589 16.9018C16.3626 16.8772 16.4458 16.77 16.3854 16.73C16.4746 16.2754 16.7319 16.0845 17.1694 16.1472C17.4616 16.1891 17.7294 16.2927 17.977 16.4636ZM22.5261 16.5091C22.51 16.4933 22.492 16.4795 22.4727 16.4682C22.744 16.2809 23.0406 16.1727 23.3609 16.14C23.7362 16.1009 23.9821 16.3145 24.0635 16.7345L24.0224 16.8745C23.9165 16.8345 23.8999 16.7227 23.864 16.6336C23.7634 16.3972 23.5822 16.2809 23.3346 16.3209C23.1421 16.3502 22.9545 16.4074 22.7772 16.4909C22.6959 16.5282 22.6145 16.5809 22.5261 16.5091ZM21.2224 16.7345C21.2075 16.7511 21.1938 16.7687 21.1812 16.7872C21.0789 16.7854 21.0377 16.7118 21.0097 16.6282C20.9169 16.3965 20.8665 16.149 20.861 15.8982C20.8794 15.8127 20.9039 15.7263 20.9861 15.6772C21.0377 16.0354 21.0815 16.3954 21.2224 16.7345Z" fill="#E6E600"/>
<path fill-rule="evenodd" clip-rule="evenodd" d="M20.9887 15.6819C20.9703 15.7546 20.9957 15.841 20.9441 15.9101C20.819 15.7582 20.7892 15.0264 20.9047 14.8673C20.9161 14.8328 20.9292 14.8019 20.9423 14.7673C21.0281 15.0701 20.9922 15.3746 20.9887 15.6855M18.0872 22.8092C18.1012 22.8373 18.1135 22.8692 18.1231 22.8992C18.2412 23.0655 18.1651 23.1882 18.0426 23.301C17.9726 23.3082 17.9962 23.2355 17.97 23.2064C18.0023 23.0719 18.0242 22.9319 18.0872 22.8092ZM22.3248 22.9001C22.3362 22.871 22.3476 22.8392 22.3607 22.8101C22.4237 22.9328 22.4465 23.0728 22.478 23.2082C22.4535 23.2364 22.478 23.3092 22.4053 23.3028C22.2828 23.1901 22.2067 23.0664 22.3248 22.9001Z" fill="#E6E600"/>
<path fill-rule="evenodd" clip-rule="evenodd" d="M17.9709 23.2082C17.9866 23.2382 17.9989 23.2701 18.0146 23.3037C18.096 23.4364 18.0881 23.5437 17.9271 23.6019C17.9131 23.5728 17.9035 23.5437 17.8895 23.5137C17.9175 23.4128 17.9437 23.3101 17.9709 23.2082ZM22.4369 23.3046C22.45 23.271 22.4622 23.2392 22.478 23.2092C22.5042 23.3101 22.5313 23.4137 22.5602 23.5155C22.5453 23.5446 22.5357 23.5737 22.5217 23.6037C22.3607 23.5437 22.3528 23.4373 22.4369 23.3046ZM18.5877 19.2182C18.5361 19.1237 18.5265 19.0192 18.5064 18.9164C18.4425 18.8073 18.5002 18.7019 18.5125 18.5937C18.5519 18.7837 18.5921 18.9755 18.6297 19.1673C18.6166 19.1846 18.6166 19.2164 18.5877 19.2182ZM18.4162 21.5501C18.4346 21.5055 18.4495 21.4619 18.4661 21.4201C18.5011 21.4382 18.481 21.4837 18.5011 21.5073C18.4766 21.6419 18.4521 21.7828 18.3874 21.9064C18.3742 21.8592 18.3646 21.8101 18.3497 21.7592C18.383 21.6937 18.3384 21.6001 18.4162 21.5501ZM19.0944 17.8537C19.0086 17.8655 18.9255 17.8819 18.8424 17.8973C18.7977 17.8819 18.7522 17.8701 18.7094 17.8564C18.8004 17.8182 18.8975 17.8173 18.9955 17.8128C19.0366 17.8037 19.0856 17.7682 19.0944 17.8537ZM17.585 24.0828C17.7469 24.1182 17.9131 24.1364 18.0662 24.1973C18.3182 24.2928 18.4434 24.1673 18.5326 23.9519C18.5851 23.9446 18.6315 23.9492 18.6735 23.9855C18.7304 24.0319 18.8144 24.0437 18.8336 24.1373C18.8555 24.2573 18.9421 24.2837 19.0454 24.271C19.2519 24.3001 19.4566 24.3301 19.6675 24.3064C19.6781 24.3083 19.6882 24.3125 19.6972 24.3186C19.7062 24.3247 19.714 24.3326 19.72 24.3419V24.4164C19.4853 24.4479 19.2478 24.4486 19.013 24.4182C18.7942 24.3892 18.6481 24.4555 18.5589 24.7055C18.4915 24.3155 18.2132 24.2882 17.9359 24.2401C17.7854 24.2173 17.634 24.1955 17.4957 24.1201C17.5264 24.1092 17.5552 24.0946 17.585 24.0828ZM21.9162 23.9546C21.9013 24.0446 22.0169 24.0464 22.023 24.121L21.9827 24.1682C21.939 24.2073 21.8471 24.2037 21.8506 24.2892C21.8585 24.3564 21.9399 24.3428 21.9801 24.3782L22.0212 24.4246C21.9792 24.5101 21.9346 24.5946 21.8786 24.7101C21.8033 24.4673 21.6537 24.3819 21.4402 24.421C21.2862 24.3501 21.127 24.4028 20.9704 24.3873C20.8881 24.3801 20.8032 24.4001 20.7297 24.3464C20.8654 24.2046 21.0412 24.2773 21.197 24.2737C21.3851 24.2655 21.5671 24.3092 21.6537 24.0692C21.6695 24.0273 21.7368 24.021 21.7753 23.991C21.8138 23.9519 21.8637 23.9455 21.9162 23.9546ZM21.9512 21.5073C21.9323 21.4433 21.914 21.379 21.8961 21.3146C21.8602 21.2855 21.82 21.2664 21.7981 21.2228C21.6568 20.884 21.5637 20.5257 21.5216 20.1592C21.5172 20.1164 21.526 20.0755 21.5146 20.031C21.6292 19.7028 21.7902 19.3892 21.8305 19.0355C21.8506 19.051 21.8734 19.0628 21.8944 19.0782C21.9644 19.2673 21.932 19.4682 21.9398 19.6646C21.9608 20.2437 21.9644 20.8255 22.0405 21.3982C22.0309 21.4546 22.0221 21.5092 21.9512 21.5073ZM21.6091 17.8982C21.4472 17.9001 21.2985 17.8492 21.1453 17.8119C21.1515 17.7255 21.204 17.761 21.2451 17.7682C21.4096 17.7973 21.5776 17.8273 21.7395 17.8528C21.6965 17.8694 21.653 17.8846 21.6091 17.8982Z" fill="#E6E600"/>
<path fill-rule="evenodd" clip-rule="evenodd" d="M21.9862 21.4208C22.002 21.4626 22.0186 21.508 22.0361 21.5508C22.114 21.6008 22.0693 21.6944 22.1017 21.7617C22.0877 21.8108 22.0781 21.8599 22.0658 21.909C22.0002 21.7826 21.9792 21.6453 21.9503 21.508C21.9608 21.479 21.9748 21.4508 21.9862 21.4208ZM20.98 21.5544C20.8601 21.799 20.7227 22.038 20.812 22.3308C20.8338 22.369 20.8102 22.4108 20.8181 22.4499C20.8872 22.7235 20.9616 22.999 20.9756 23.2862C20.9573 23.3642 20.9597 23.4459 20.9826 23.5226C21.0885 23.6026 21.1226 23.699 21.0193 23.8099C21.0066 23.8255 20.9944 23.8416 20.9826 23.858C20.9126 23.8662 20.8522 23.908 20.7805 23.8999C20.6405 23.8817 20.5153 23.8271 20.5031 23.6653C20.4847 23.4408 20.4532 23.2153 20.4331 22.9908C20.4348 22.8535 20.4077 22.7199 20.4042 22.5835C20.3885 22.5344 20.3963 22.479 20.378 22.4344C20.3838 22.4486 20.3876 22.4636 20.3893 22.479C20.3893 22.5353 20.4077 22.5853 20.4121 22.6435C20.4366 22.8344 20.4077 23.0353 20.4707 23.2235C20.469 23.3671 20.5005 23.509 20.4943 23.6553C20.4917 23.848 20.3648 23.9953 20.2143 23.9871C20.0726 23.9817 19.9553 23.838 19.9536 23.6553C19.951 23.499 19.9737 23.3399 19.986 23.1844C20.0341 23.0071 20.0192 22.8244 20.0376 22.6435C20.0446 22.5471 20.0857 22.4544 20.0761 22.3571C20.0822 22.4471 20.0568 22.5308 20.0385 22.6162C20.0481 22.7408 20.0105 22.8635 20.0157 22.9871C19.9886 23.2062 19.965 23.4235 19.9501 23.6453C19.9387 23.8035 19.8066 23.9035 19.6473 23.9008C19.5835 23.899 19.5292 23.8635 19.4671 23.859L19.4295 23.8108C19.3288 23.6999 19.3595 23.6044 19.4653 23.5235C19.482 23.449 19.4968 23.369 19.5143 23.2944C19.4986 23.0999 19.4907 22.9071 19.5651 22.7208C19.5835 22.6671 19.5651 22.639 19.5082 22.6408C19.4952 22.6259 19.4832 22.6101 19.4723 22.5935C19.5432 22.479 19.6141 22.3635 19.6858 22.2517C19.7201 22.1678 19.7393 22.0782 19.7427 21.9871C19.7453 21.8326 19.762 21.679 19.8197 21.5317C19.8435 21.4783 19.8847 21.4355 19.9361 21.4108C20.2248 21.629 20.2248 21.629 20.5145 21.4062C20.5619 21.4328 20.6008 21.4733 20.6265 21.5226C20.6681 21.6322 20.6938 21.7478 20.7026 21.8653C20.7041 21.7008 20.7531 21.5405 20.8435 21.4053C20.8644 21.3795 20.8942 21.3631 20.9266 21.3599C21.0018 21.3726 21.0421 21.418 21.0456 21.4971C21.036 21.5326 21.0202 21.5608 20.98 21.5544Z" fill="#E6E600"/>
<path fill-rule="evenodd" clip-rule="evenodd" d="M20.9712 22.6901C20.903 22.5992 20.8356 22.5073 20.7656 22.4164C20.7805 22.3864 20.7953 22.3591 20.8111 22.331C20.8942 22.4255 20.9563 22.5301 21.0115 22.6428L20.9712 22.6901ZM19.8871 16.8964C20.056 16.7019 20.056 16.4482 20.0936 16.2101C20.1312 15.9837 20.1452 15.7555 20.1688 15.5173C20.2572 15.5492 20.2336 15.6037 20.231 15.6455C20.2065 16.0137 20.1723 16.3819 20.07 16.7373C20.0551 16.7928 20.0332 16.8464 20.0551 16.9055C20.0393 16.921 20.028 16.9373 20.014 16.9501H19.9335C19.8871 16.9637 19.8757 16.9419 19.8871 16.8964ZM20.3885 16.4546C20.329 16.1601 20.3605 15.8655 20.3473 15.5455C20.462 15.6101 20.4226 15.681 20.4243 15.7382C20.3526 15.9737 20.4121 16.2173 20.3885 16.4546Z" fill="#E6E600"/>
<path fill-rule="evenodd" clip-rule="evenodd" d="M19.8871 16.8962C19.9022 16.915 19.9183 16.9329 19.9352 16.9499C19.8477 17.0408 19.7506 17.1117 19.6369 17.1599C19.5826 17.1208 19.5861 17.0799 19.6369 17.0408C19.7419 17.0335 19.8057 16.9481 19.8871 16.8962ZM19.0944 17.8535C19.062 17.8399 19.0279 17.8281 18.9955 17.8126C19.2475 17.7381 19.4969 17.6671 19.7497 17.5944C19.7926 17.5762 19.8057 17.5926 19.8057 17.6362C19.5776 17.7373 19.3388 17.8103 19.0944 17.8535ZM20.7945 17.6953C20.6294 17.6597 20.4753 17.5826 20.3456 17.4708C20.35 17.4435 20.3719 17.4417 20.3911 17.4335L20.8505 17.6471C20.8549 17.6917 20.8435 17.7153 20.7945 17.6953Z" fill="#E6E600"/>
<path fill-rule="evenodd" clip-rule="evenodd" d="M19.8058 17.6353C19.7875 17.6208 19.7688 17.6068 19.7498 17.5935L20.1426 17.3862C20.152 17.3897 20.1605 17.3951 20.1678 17.4021C20.175 17.4092 20.1807 17.4177 20.1846 17.4271C20.0761 17.5362 19.9405 17.588 19.8058 17.6353ZM20.7945 17.6953L20.8505 17.648C20.9809 17.688 21.1148 17.7299 21.2443 17.768C21.2119 17.7844 21.1778 17.7962 21.1445 17.8117C21.0255 17.7844 20.9021 17.7608 20.7945 17.6953Z" fill="#E6E600"/>
<path fill-rule="evenodd" clip-rule="evenodd" d="M20.1837 17.4272C20.168 17.4136 20.1575 17.3999 20.1417 17.3863C20.2564 17.2208 20.3115 17.3808 20.3902 17.4336L20.3447 17.4708C20.2931 17.4554 20.2537 17.3817 20.1837 17.4272ZM20.7682 20.9726C20.8085 20.8354 20.8172 20.6981 20.8172 20.5545C20.8137 19.7345 20.8172 18.9172 20.8137 18.0972C20.8137 18.0163 20.8514 17.9245 20.7682 17.8545C20.7569 17.849 20.7525 17.8435 20.7569 17.8354C20.7604 17.8272 20.7639 17.8236 20.7682 17.8236C21.1007 17.8926 21.4245 18.009 21.7701 18.009C21.8611 18.0108 21.8655 18.0717 21.8629 18.1417C21.8191 19.2208 21.4796 20.1745 20.7682 20.9726ZM19.6762 17.8536C19.5774 17.8726 19.5931 17.9563 19.5931 18.0226C19.5931 18.9081 19.5975 19.7954 19.5896 20.6808C19.5896 20.7708 19.65 20.8408 19.6412 20.9281C19.0821 20.299 18.7741 19.5463 18.6376 18.7145C18.6061 18.5236 18.6018 18.3272 18.5869 18.1317C18.5773 18.0426 18.6087 18.0036 18.6997 18.0036C19.0217 17.9963 19.3289 17.8954 19.6369 17.8145C19.6806 17.7926 19.685 17.8181 19.6762 17.8536ZM18.5038 21.5072C18.4933 21.4776 18.4816 21.4485 18.4688 21.4199C18.6087 20.6926 18.5939 19.9545 18.5912 19.2172L18.6332 19.1672C18.7339 19.4545 18.8362 19.7399 18.9369 20.0254C18.9596 20.0708 18.9351 20.1117 18.9413 20.1554C18.8905 20.5226 18.8012 20.8799 18.6577 21.2226C18.6385 21.2663 18.5965 21.2854 18.5624 21.3126C18.5423 21.3781 18.5239 21.4454 18.5038 21.5072ZM20.98 21.5545C20.994 21.539 21.0045 21.5226 21.0185 21.5072C21.1882 21.4499 21.1331 21.3063 21.1331 21.1863C21.1296 21.0617 21.0395 21.0663 20.9555 21.0599C20.9407 21.0558 20.9275 21.0469 20.9179 21.0345C20.9083 21.0221 20.9027 21.0068 20.9021 20.9908C21.1217 20.6863 21.3291 20.3672 21.5085 20.0308C21.526 20.0581 21.5435 20.0881 21.5619 20.1154C21.5026 20.3443 21.4634 20.5782 21.4446 20.8145C21.4227 21.1272 21.5601 21.2508 21.8454 21.1945C21.8611 21.2317 21.876 21.2726 21.8909 21.3145C21.736 21.5799 21.736 21.5799 21.5059 21.3472C21.4569 21.2981 21.4044 21.2499 21.3274 21.1754L21.2329 21.9163L20.98 21.5545Z" fill="#E6E600"/>
<path fill-rule="evenodd" clip-rule="evenodd" d="M18.558 21.3118L18.6017 21.1945C18.796 21.2781 18.9124 21.1699 19.0121 21.019C19.0585 20.9581 19.0795 20.8754 19.1512 20.8381C19.2046 20.8281 19.2624 20.8308 19.3044 20.7808C19.3158 20.772 19.3296 20.7668 19.3438 20.7658C19.3581 20.7648 19.3724 20.7682 19.3849 20.7754C19.4277 20.8308 19.4881 20.8717 19.5021 20.9499C19.5014 20.9695 19.4947 20.9883 19.4829 21.0036C19.4216 21.0499 19.3262 21.0518 19.2974 21.1436C19.2484 21.1972 19.2466 21.299 19.146 21.2927C19.1232 21.2636 19.1574 21.1418 19.0611 21.2327C18.9868 21.2973 18.9172 21.3674 18.8529 21.4427C18.7452 21.5736 18.663 21.5981 18.6105 21.399C18.6009 21.3672 18.5772 21.3408 18.558 21.3118Z" fill="#E6E600"/>
<path fill-rule="evenodd" clip-rule="evenodd" d="M19.1688 20.86C19.146 20.9328 19.1224 21.0028 19.1023 21.0773C19.0366 21.051 19.0148 20.99 19.0104 20.9228C18.9863 20.6526 18.9445 20.3844 18.8853 20.12C18.9001 20.0873 18.9176 20.0582 18.9325 20.0246C19.0288 20.2 19.1276 20.371 19.2239 20.5464C19.2337 20.5622 19.2391 20.5804 19.2396 20.5991C19.2169 20.6619 19.2195 20.7273 19.2213 20.7937C19.2143 20.8246 19.2011 20.8482 19.1688 20.86ZM19.4724 20.9637C19.4811 20.9555 19.4908 20.9528 19.5004 20.9473C19.6465 21.1019 19.7918 21.2528 19.9344 21.4082C19.9381 21.4598 19.9255 21.5112 19.8985 21.5546C19.7918 21.51 19.7244 21.3773 19.5861 21.4082C19.5591 21.3978 19.5366 21.3774 19.5231 21.351C19.5494 21.2155 19.3928 21.1055 19.4724 20.9637ZM20.9013 20.991C20.9124 20.9979 20.9219 21.0072 20.9293 21.0182C20.9835 21.141 20.9538 21.261 20.9258 21.3819L20.8855 21.43C20.7499 21.3937 20.6528 21.49 20.5486 21.5564C20.5145 21.51 20.5128 21.4573 20.5101 21.4055C20.6396 21.2682 20.7735 21.13 20.9013 20.991ZM19.6806 20.991C19.8626 21.0382 19.9589 21.1782 20.0385 21.34C19.8933 21.2546 19.7874 21.1228 19.6806 20.991ZM20.3421 17.641C20.2161 17.5446 20.1269 17.7082 20.0114 17.6882C20.1164 17.6282 20.1943 17.3773 20.3421 17.641ZM20.0788 21.3364C20.1881 21.4582 20.294 21.3873 20.399 21.3264C20.3693 21.4219 20.3063 21.4982 20.2161 21.4982C20.1496 21.4955 20.0823 21.4291 20.0788 21.3364Z" fill="#E6E600"/>
<path fill-rule="evenodd" clip-rule="evenodd" d="M19.2125 20.6183C19.2143 20.5928 19.2186 20.571 19.2221 20.5473C19.2755 20.6237 19.3263 20.6992 19.3823 20.7755C19.3673 20.791 19.3533 20.8074 19.3403 20.8246C19.2344 20.8319 19.2186 20.7437 19.1898 20.6728C19.1922 20.6527 19.2001 20.6338 19.2125 20.6183ZM20.5163 21.2092C20.5653 21.1255 20.5941 21.0137 20.7245 21.0373C20.6659 21.111 20.6151 21.1928 20.5163 21.2092ZM20.7683 17.8201V17.8519C20.6939 17.8292 20.6038 17.8328 20.5653 17.7346C20.6401 17.7395 20.7113 17.7695 20.7683 17.8201ZM19.6763 17.8537C19.664 17.8419 19.6509 17.8283 19.6369 17.8164C19.6981 17.761 19.7681 17.7346 19.846 17.781C19.8014 17.8355 19.7358 17.8401 19.6763 17.8537ZM19.5538 21.3319L19.5931 21.3801C19.7086 21.5083 19.7174 21.6746 19.7445 21.8328C19.7594 21.8992 19.7533 21.9692 19.8014 22.0273C19.7996 22.1237 19.7358 22.1828 19.6841 22.2519C19.636 22.011 19.6001 21.7673 19.468 21.5546C19.4286 21.5664 19.4111 21.5392 19.3989 21.5028C19.3989 21.3946 19.4339 21.3228 19.5538 21.3319Z" fill="#E6E600"/>
<path fill-rule="evenodd" clip-rule="evenodd" d="M19.4269 21.5027L19.4689 21.5545C19.4015 21.6581 19.3289 21.8481 19.2396 21.829C19.1136 21.7972 19.1959 21.6018 19.1618 21.4845C19.1443 21.4227 19.1504 21.3554 19.1443 21.2927C19.167 21.2199 19.1915 21.1472 19.2143 21.0781C19.3166 21.1245 19.307 21.2236 19.307 21.3154C19.307 21.4072 19.3315 21.4754 19.4269 21.5027ZM21.7588 25.2536C21.6984 25.2663 21.6258 25.2954 21.6153 25.1927C21.6091 25.0981 21.6678 25.0445 21.7343 25.0018C21.8559 24.9254 21.8401 25.0945 21.9233 25.1345C21.9364 24.9827 22.0991 24.9099 22.051 24.7445C22.0475 24.7345 22.0825 24.7036 22.1061 24.6927C22.1123 24.689 22.1464 24.7109 22.1481 24.7227C22.1578 24.8863 22.3459 24.8699 22.3923 24.9936C22.4028 25.0254 22.4509 25.0372 22.4596 25.0154C22.5463 24.8454 22.6758 24.9163 22.8105 24.9572C22.7878 24.8381 22.7668 24.7427 22.7484 24.6481C22.73 24.5536 22.6994 24.4727 22.5821 24.5218C22.5323 24.5427 22.4955 24.5199 22.4903 24.4736C22.4771 24.4136 22.5375 24.4163 22.5734 24.4054C22.7431 24.3599 22.8149 24.4527 22.8481 24.6118C22.8726 24.7563 22.8455 24.9627 23.1001 24.8618C23.1133 24.8554 23.1509 24.8872 23.1614 24.909C23.1789 24.9481 23.1343 24.9663 23.1176 24.9645C22.8919 24.9499 22.7484 25.2309 22.5043 25.1454C22.4623 25.1336 22.4439 25.1618 22.4299 25.2009C22.3695 25.3536 22.2978 25.3736 22.1674 25.2581C22.0484 25.1545 21.9373 25.2145 21.8568 25.3345C21.7771 25.3618 21.8078 25.2572 21.7588 25.2536ZM19.2125 25.4818C19.3805 25.4209 19.489 25.3472 19.3954 25.1727C19.3656 25.1163 19.3849 25.0645 19.4383 25.0481C19.4873 25.029 19.4969 25.0854 19.5144 25.1245C19.5319 25.1645 19.5441 25.2136 19.5975 25.1972C19.6526 25.1836 19.6334 25.129 19.6308 25.089C19.6264 25.0399 19.6054 24.9809 19.664 24.9536C19.7323 24.9245 19.7323 25.0054 19.7655 25.0327C19.8661 25.1036 19.9825 25.059 20.0901 25.0699C20.1864 25.0863 20.3019 25.059 20.266 25.2299C20.357 25.2172 20.3509 25.1372 20.3999 25.109C20.4559 25.0781 20.5276 25.029 20.5696 25.0781C20.6081 25.1254 20.6046 25.2136 20.6046 25.2854C20.6064 25.3654 20.5408 25.3654 20.4848 25.3681C20.3841 25.3699 20.2826 25.349 20.2153 25.4745C20.1829 25.5327 20.1111 25.529 20.0508 25.4772C19.8381 25.3036 19.6605 25.2972 19.4566 25.4545C19.398 25.5018 19.3341 25.5127 19.2125 25.4818ZM18.9518 25.3227C18.9903 25.1018 19.0279 24.9327 19.0174 24.7572C19.0139 24.6963 19.034 24.6499 19.0856 24.6499C19.1731 24.6499 19.132 24.7227 19.1259 24.7618C19.1049 24.9409 19.0786 25.1181 19.0498 25.2972C19.0384 25.3581 18.9946 25.399 18.9386 25.4172C18.8835 25.4336 18.8476 25.4009 18.8144 25.359C18.6831 25.1736 18.4836 25.1218 18.2946 25.2381C18.2316 25.2772 18.1721 25.3072 18.0785 25.2736C18.2063 25.2009 18.299 25.1181 18.2395 24.9572C18.2281 24.9272 18.2526 24.8781 18.2894 24.8718C18.334 24.8618 18.341 24.909 18.3454 24.9445C18.355 25.009 18.3638 25.0745 18.4416 25.0899C18.4793 25.0972 18.5125 25.0972 18.5379 25.069C18.5589 25.0418 18.5283 25.0209 18.5125 24.9981C18.3961 24.8099 18.6368 24.8645 18.6726 24.7636C18.7015 24.689 18.7951 24.7618 18.7969 24.8263C18.8004 24.909 19.0366 24.9936 18.8039 25.0772C18.8441 25.1472 18.8861 25.2136 18.9518 25.3227ZM17.4363 24.4254C17.5316 24.3609 17.6384 24.3445 17.7058 24.3818C17.76 24.4136 17.6935 24.5099 17.6769 24.579C17.6734 24.5927 17.6673 24.6063 17.6664 24.6218C17.6533 24.7109 17.5474 24.8381 17.648 24.8863C17.7976 24.9518 17.7189 24.7572 17.7758 24.7072C17.8003 24.689 17.8335 24.6827 17.8799 24.6627C17.8755 24.7109 17.8773 24.7381 17.8738 24.7654C17.858 24.8418 17.7828 24.9381 17.9193 24.9699C18.047 25.0018 18.0243 24.9163 18.0243 24.8318C18.0251 24.7681 18.0995 24.7609 18.1538 24.7581C18.1581 24.7681 18.1651 24.7754 18.1634 24.7818C18.0741 25.1654 18.1319 25.1281 17.7679 25.0372C17.6673 25.0145 17.5684 24.9818 17.4686 24.9499C17.417 24.9372 17.3435 24.9445 17.3374 24.8681C17.3339 24.7881 17.3855 24.7372 17.4573 24.7063C17.4968 24.6965 17.5335 24.6769 17.564 24.649C17.6506 24.5454 17.6051 24.4545 17.4363 24.4254ZM20.8435 25.3718C20.6755 25.3263 20.7429 25.2009 20.8015 25.1472C20.9161 25.0499 20.9179 24.9445 20.8715 24.8227C20.8461 24.7545 20.8741 24.719 20.9231 24.7109C20.9835 24.7036 20.973 24.7663 20.9783 24.8054C20.9923 24.9145 21.001 25.0199 21.015 25.1272C21.0194 25.1854 21.0211 25.2554 21.1051 25.2318C21.1664 25.2145 21.1795 25.1709 21.1533 25.1145C21.1331 25.0645 21.1086 25.0109 21.176 24.9927C21.267 24.9699 21.246 25.0572 21.2618 25.1054C21.3169 25.2918 21.2311 25.3536 21.064 25.3427C20.9993 25.4254 20.9161 25.359 20.8435 25.3718ZM21.2793 25.4818C21.4096 25.349 21.5015 25.2509 21.3633 25.1172C21.323 25.0827 21.3589 25.0154 21.4053 24.9936C21.4543 24.9745 21.4665 25.0327 21.4893 25.0681C21.6048 25.2654 21.5593 25.3963 21.2793 25.4818ZM19.23 24.6545C19.2939 24.6899 19.3508 24.7081 19.3228 24.7827C19.2711 24.9118 19.2711 25.049 19.2598 25.1818C19.2563 25.2281 19.2598 25.2981 19.1898 25.2836C19.118 25.2699 19.1539 25.2054 19.16 25.1618C19.167 25.0745 19.1784 24.9909 19.1898 24.9063C19.202 24.8281 19.2125 24.7509 19.23 24.6545Z" fill="#E6E600"/>
<path fill-rule="evenodd" clip-rule="evenodd" d="M21.0587 25.3853C21.1007 25.4017 21.1436 25.4371 21.1121 25.479C21.0587 25.5417 20.9747 25.4908 20.9047 25.5017C20.8592 25.5117 20.8514 25.4508 20.8864 25.409C20.938 25.369 20.9992 25.3799 21.0587 25.3853ZM21.7587 25.2535C21.7911 25.2808 21.82 25.309 21.855 25.3335C21.8165 25.4253 21.7491 25.4344 21.6634 25.419C21.6826 25.3508 21.8051 25.3535 21.7587 25.2535ZM20.7919 24.809C20.7822 24.8499 20.7604 24.859 20.7341 24.8499C20.7184 24.8453 20.7 24.8217 20.7 24.8126C20.7017 24.7771 20.7271 24.7626 20.7586 24.7735C20.7726 24.779 20.7831 24.7962 20.7919 24.809ZM20.8032 24.9808C20.7866 25.0017 20.7682 25.0262 20.7402 25.0099C20.7157 24.9935 20.6956 24.9717 20.7131 24.9417C20.7271 24.9144 20.7472 24.8935 20.7761 24.9144C20.7997 24.9253 20.8172 24.9481 20.8032 24.9808ZM23.024 25.1217C23.0117 25.1617 22.9864 25.1699 22.9575 25.1671C22.9312 25.1635 22.8989 25.1508 22.9172 25.1135C22.9269 25.0944 22.9549 25.0781 22.9776 25.0744C23.0091 25.0708 23.0214 25.0971 23.024 25.1217ZM17.5237 25.069C17.508 25.1017 17.4878 25.1217 17.4572 25.1062C17.4432 25.0971 17.4283 25.0726 17.4327 25.0562C17.4388 25.0299 17.4651 25.0135 17.4931 25.0299C17.508 25.0353 17.5158 25.0571 17.5237 25.069ZM17.9332 25.189C17.9131 25.2026 17.8991 25.2217 17.886 25.2235C17.8527 25.2308 17.8335 25.2053 17.844 25.1771C17.8492 25.1626 17.8737 25.1499 17.8895 25.1499C17.9008 25.1508 17.9131 25.1726 17.9332 25.189ZM17.9953 23.9908C18.0551 23.9754 18.1176 23.9757 18.1772 23.9918C18.2368 24.0078 18.2916 24.039 18.3366 24.0826C18.2106 24.1035 18.1012 24.0581 17.9953 23.9908ZM17.4975 23.8362C17.553 23.8196 17.612 23.8199 17.6674 23.8371C17.7228 23.8544 17.7723 23.8878 17.8098 23.9335C17.7005 23.9544 17.6077 23.9108 17.4975 23.8362ZM22.1131 24.0699C22.2102 23.9908 22.3284 23.9726 22.4465 23.9671C22.45 23.9853 22.457 24.0026 22.4614 24.0208L22.1306 24.1217L22.1131 24.0699ZM22.6127 23.9453C22.7107 23.839 22.8096 23.8153 22.9514 23.8244C22.9071 23.8695 22.8538 23.9037 22.7952 23.9246C22.7366 23.9455 22.6743 23.9526 22.6127 23.9453ZM19.0112 24.3426H19.6806C19.4616 24.4053 19.2303 24.4053 19.0112 24.3426ZM20.0525 22.5971C20.041 22.5988 20.0296 22.601 20.0184 22.6035L20.0717 22.2153C20.1006 22.3862 20.1146 22.4953 20.0525 22.5971ZM20.357 22.4644V22.2662C20.4077 22.3199 20.3867 22.3726 20.3955 22.4217C20.4156 22.4672 20.392 22.4717 20.357 22.4644Z" fill="#E6E600"/>
<path fill-rule="evenodd" clip-rule="evenodd" d="M20.357 22.4646C20.3693 22.4499 20.3822 22.4357 20.3955 22.4219C20.4107 22.4411 20.4212 22.4639 20.4262 22.4882C20.4313 22.5126 20.4306 22.5378 20.4243 22.5619C20.4127 22.5752 20.4001 22.5877 20.3867 22.5991C20.3526 22.5619 20.35 22.5128 20.357 22.4646ZM19.2037 24.1891C19.0806 24.2169 18.9534 24.2197 18.8292 24.1973C18.9605 24.091 19.0681 24.0873 19.2037 24.1891ZM19.6508 24.211C19.5616 24.2546 19.4653 24.2482 19.3638 24.2546C19.3787 24.1701 19.4295 24.1746 19.4758 24.1746C19.5292 24.2028 19.6001 24.1537 19.6508 24.211Z" fill="#E6E600"/>
<path fill-rule="evenodd" clip-rule="evenodd" d="M19.6509 24.2108C19.5905 24.2008 19.5266 24.2108 19.4759 24.1745C19.5459 24.1699 19.6133 24.1654 19.6806 24.1654C19.699 24.1654 19.7218 24.1845 19.6894 24.2026C19.6798 24.2108 19.664 24.2063 19.6509 24.2108ZM21.589 24.1754C21.4795 24.2163 21.3609 24.2229 21.2478 24.1945C21.3694 24.0745 21.477 24.1217 21.589 24.1754ZM20.98 24.1745C21.022 24.1654 21.057 24.1836 21.1069 24.2363C21.005 24.2609 20.8983 24.252 20.8015 24.2108C20.8531 24.1536 20.9231 24.2026 20.98 24.1745Z" fill="#E6E600"/>
<path fill-rule="evenodd" clip-rule="evenodd" d="M20.98 24.1746C20.9248 24.211 20.8618 24.201 20.8015 24.211C20.784 24.201 20.7078 24.2064 20.7673 24.1746C20.8207 24.141 20.9056 24.17 20.98 24.1746ZM19.2125 20.6473C19.167 20.6828 19.1862 20.7355 19.1705 20.7791C19.1407 20.721 19.1206 20.66 19.1486 20.6C19.16 20.571 19.1923 20.6037 19.2125 20.6182V20.6473ZM18.6866 24.891C18.7041 24.911 18.7225 24.9228 18.726 24.9391C18.7443 24.9837 18.7076 24.9837 18.6831 24.98C18.6691 24.98 18.6472 24.9555 18.649 24.9428C18.6507 24.9264 18.6691 24.911 18.6866 24.891Z" fill="#E6E600"/>
</g>
</g>
<defs>
<clipPath id="clip0_2_3479">
<rect width="40" height="40" rx="20" fill="white"/>
</clipPath>
<clipPath id="clip1_2_3479">
<rect x="-8" width="56" height="40" rx="7" fill="white"/>
</clipPath>
</defs>
</svg>
