<svg width="44" height="32" viewBox="0 0 44 32" fill="none" xmlns="http://www.w3.org/2000/svg">
<g clip-path="url(#clip0_5_6969)">
<path d="M0 10.9091H44V21.0909H0V10.9091Z" fill="white"/>
<path d="M37.125 0H6.875C2.31894 0 0 3.58182 0 8V10.9091H44V8C44 3.58182 41.6811 0 37.125 0Z" fill="#E30000"/>
<path d="M0 24C0 28.4182 2.31894 32 6.875 32H37.125C41.6811 32 44 28.4182 44 24V21.0909H0V24Z" fill="#25333A"/>
<path fill-rule="evenodd" clip-rule="evenodd" d="M25.1929 13.3876C25.2602 14.0393 25.2589 14.6923 25.2884 15.3469C25.3448 16.5978 25.3888 17.8545 25.4369 19.1091V19.336C25.0746 18.9753 24.7426 18.648 24.4139 18.3171C24.405 18.2843 24.4201 18.2618 24.4421 18.2393C24.5019 18.168 24.4806 18.0836 24.4758 18.0065C24.4421 17.4647 24.4325 16.9207 24.4057 16.3767C24.3699 15.5913 24.3479 14.8073 24.3039 14.0218C24.2922 13.7811 24.3658 13.608 24.5617 13.4873C24.6848 13.4102 24.7673 13.4414 24.7714 13.5927C24.7824 13.8873 24.7921 14.1811 24.8072 14.4756C24.8505 15.3229 24.8752 16.1716 24.9137 17.0182C24.9316 17.4116 24.9674 17.8036 24.9557 18.1956C24.9516 18.3134 24.9584 18.4283 24.9756 18.4982C24.9186 18.2523 24.9646 17.9578 24.9426 17.664C24.9021 17.1643 24.8931 16.6625 24.8732 16.1607C24.8436 15.3047 24.7969 14.4523 24.7735 13.5963C24.768 13.3229 24.8223 13.2865 25.0753 13.3825C25.1138 13.3898 25.1544 13.3636 25.1929 13.3876ZM19.8097 18.4625C19.5244 18.7433 19.2377 19.0233 18.9325 19.32C18.9325 19.0509 18.9242 18.8189 18.9339 18.5825C18.9944 17.0138 19.0597 15.4436 19.1222 13.872C19.1291 13.7098 19.1463 13.5491 19.1601 13.3869C19.2006 13.3694 19.2288 13.4334 19.2714 13.4007C19.3109 13.369 19.3568 13.3474 19.4055 13.3374C19.5182 13.3171 19.5822 13.3738 19.5822 13.4953C19.5822 13.8683 19.5588 14.2371 19.5416 14.6051C19.5299 14.8931 19.51 15.1811 19.5031 15.4691C19.4859 16.1178 19.4509 16.7651 19.4282 17.4102C19.4137 17.7709 19.4069 18.1331 19.3869 18.4909C19.4131 18.1542 19.4131 17.8109 19.4261 17.472C19.4701 16.3811 19.5155 15.2902 19.5616 14.1993C19.5684 14.0043 19.5884 13.8073 19.5815 13.6102C19.5787 13.544 19.5884 13.4778 19.6544 13.4509C19.7121 13.424 19.7568 13.4669 19.8049 13.4953C19.9878 13.6102 20.0572 13.7753 20.0483 14.0022C20.0079 14.9262 19.9699 15.8503 19.9342 16.7745C19.9177 17.1898 19.9204 17.608 19.8744 18.024C19.8613 18.1687 19.8249 18.3142 19.8097 18.4625Z" fill="#E6E600"/>
<path fill-rule="evenodd" clip-rule="evenodd" d="M19.8097 18.4626C19.7629 18.3276 19.761 18.1799 19.8042 18.0436C19.8276 18.0393 19.8647 18.1055 19.8744 18.0327C19.8799 17.9673 19.8977 17.9062 19.8977 17.8436C19.8977 17.4204 19.9259 16.9978 19.9452 16.5782C19.9727 15.9782 19.9857 15.3767 20.0256 14.7789C20.0401 14.5775 20.038 14.3738 20.0421 14.1731C20.0449 14.0647 20.0401 13.9309 20.1638 13.8989C20.2869 13.8676 20.3597 13.9746 20.4271 14.0706C20.4677 14.1287 20.4704 14.1993 20.4663 14.2706C20.4299 14.8415 20.4223 15.4116 20.3955 15.9833C20.3721 16.5375 20.3536 17.0909 20.3288 17.6473C20.3646 16.8284 20.3996 16.0087 20.4292 15.1884C20.4367 14.9302 20.4553 14.672 20.4622 14.4102C20.4677 14.2029 20.5199 14.1629 20.7186 14.1826C20.8114 14.1935 20.9008 14.2124 20.9957 14.2189C21.039 14.2364 21.0864 14.2531 21.0995 14.3084C21.0802 14.3826 21.0177 14.3746 20.9675 14.376C20.8582 14.384 20.8211 14.4516 20.8513 14.5506C20.8864 14.656 20.8733 14.7644 20.8781 14.8698C20.8733 14.9658 20.8712 15.0618 20.8637 15.1578C20.8404 15.3683 20.8287 15.5801 20.8286 15.792C20.8245 16.176 20.7901 16.5622 20.7805 16.9455C20.7461 17.0869 20.7379 17.2341 20.7564 17.3789C20.7654 17.4255 20.7784 17.472 20.7894 17.5186C20.7997 17.5876 20.7729 17.6502 20.7372 17.704C20.7197 17.7243 20.6983 17.7403 20.6745 17.7509C20.6506 17.7616 20.6249 17.7667 20.599 17.7658C20.5323 17.7549 20.5034 17.8124 20.4656 17.8473L19.8097 18.4626ZM24.4462 18.2909C24.4346 18.3011 24.4236 18.3098 24.4132 18.3207C24.2716 18.1811 24.1272 18.0429 23.9877 17.9004C23.9774 17.8691 23.9904 17.8444 24.0069 17.8196C24.0207 17.7927 24.0172 17.7644 24.0172 17.7346C24.0069 16.8778 23.9629 16.0262 23.9224 15.1724C23.9079 14.8618 23.9189 14.5484 23.8866 14.2386C23.8786 14.1851 23.8901 14.1305 23.9189 14.0858C23.9849 13.9869 24.0585 13.8698 24.1898 13.9033C24.3122 13.9353 24.3088 14.0698 24.3101 14.1775C24.3328 15.1244 24.3878 16.0713 24.427 17.0182C24.4407 17.3571 24.427 17.7004 24.4744 18.0386C24.4847 18.1193 24.4964 18.2109 24.4462 18.2909ZM24.0117 18.8116C24.0255 18.9484 24.0784 18.9811 24.2139 18.9404C24.4236 18.8764 24.7178 19.0284 24.6752 19.3106C24.6656 19.3876 24.6841 19.4386 24.7577 19.4749C24.8656 19.528 24.9041 19.6764 25.0361 19.7018C25.0554 19.7069 25.0657 19.7484 25.0485 19.7622C24.9247 19.8386 24.9612 20.0226 24.8443 20.1047C24.8285 20.1178 24.8058 20.1396 24.8037 20.1586C24.7955 20.4102 24.6195 20.4553 24.4366 20.4967C23.569 20.6967 22.6897 20.7156 21.8076 20.6967C21.1572 20.6851 20.5082 20.6473 19.8716 20.4822C19.7039 20.4415 19.5973 20.3746 19.5396 20.1767C19.4937 20.0393 19.4255 19.9113 19.3381 19.7986C19.2872 19.7324 19.301 19.7258 19.3581 19.6764C19.5017 19.5527 19.6991 19.4778 19.6874 19.2066C19.6784 19.0124 19.9376 18.8676 20.1404 18.9389C20.2724 18.9847 20.3281 18.9506 20.3426 18.8116C20.3866 18.8022 20.4037 18.8349 20.4196 18.8676C20.4429 18.92 20.4374 18.9731 20.4312 19.0284C20.423 19.0528 20.4069 19.0733 20.3859 19.0866C20.3219 19.1186 20.2587 19.0996 20.1975 19.0807C20.1535 19.0655 20.0992 19.0436 20.06 19.0931C20.0112 19.1578 20.0854 19.1767 20.1061 19.2175C20.117 19.237 20.1218 19.2596 20.1198 19.2822C20.1095 19.32 20.0799 19.3396 20.0511 19.3578C19.9514 19.3818 19.8689 19.4291 19.8249 19.5367C19.8049 19.5891 19.7527 19.6175 19.7046 19.6516C19.5698 19.7513 19.5567 19.8298 19.6571 19.9636C19.6757 19.9906 19.7059 20.0167 19.7121 20.0487C19.7527 20.2626 19.9094 20.2989 20.0765 20.3338C20.6396 20.4487 21.2116 20.4997 21.7863 20.5033C22.3012 20.5084 22.8141 20.5186 23.3277 20.4684C23.6914 20.4327 24.0558 20.3942 24.4105 20.2989C24.515 20.2713 24.5927 20.2284 24.6181 20.1069C24.6298 20.0509 24.6683 20.0044 24.702 19.9586C24.7921 19.8407 24.7866 19.7513 24.6745 19.6662C24.5978 19.6197 24.5342 19.5524 24.4903 19.4713C24.4456 19.3775 24.3603 19.3906 24.2751 19.4029C24.0434 19.4444 23.8199 19.5149 23.5896 19.5622C23.5594 19.5578 23.5394 19.5404 23.5223 19.512C23.5063 19.4861 23.497 19.4563 23.495 19.4255C23.4931 19.3947 23.4987 19.3639 23.5113 19.336C23.5235 19.3105 23.5436 19.2902 23.5683 19.2786C23.8172 19.3862 24.0296 19.2146 24.2627 19.1847C24.295 19.1796 24.3129 19.1535 24.3094 19.1222C24.2978 19.0749 24.262 19.0618 24.218 19.0684C24.1389 19.0778 24.0612 19.128 23.9774 19.0924C23.9553 19.0792 23.9379 19.0588 23.9279 19.0342C23.915 18.9797 23.9181 18.9224 23.9368 18.8698C23.9513 18.8364 23.9678 18.8029 24.0145 18.8116" fill="#E6E600"/>
<path fill-rule="evenodd" clip-rule="evenodd" d="M24.0202 17.8691L23.9872 17.896C23.8868 17.8509 23.838 17.7258 23.7252 17.6974C23.7141 17.7068 23.7008 17.7131 23.6867 17.7155C23.6726 17.7179 23.6582 17.7164 23.6448 17.7113C23.5809 17.6669 23.5582 17.6058 23.5616 17.5287C23.5678 17.4807 23.5871 17.4363 23.5939 17.3862C23.6152 17.2461 23.6084 17.1029 23.574 16.9658C23.5602 16.5469 23.5231 16.1316 23.5217 15.7113C23.5217 15.5723 23.541 15.4247 23.4626 15.2974C23.4352 15.2773 23.4137 15.2493 23.4007 15.2167C23.4296 15.008 23.4695 14.8014 23.4936 14.5905C23.5128 14.4167 23.5183 14.408 23.3567 14.3767C23.3148 14.3687 23.2694 14.3687 23.2529 14.312C23.2653 14.2538 23.3155 14.2393 23.3602 14.2196C23.4626 14.2102 23.5651 14.1883 23.6675 14.1782C23.8229 14.1622 23.8806 14.2094 23.8896 14.3753C23.9047 14.7062 23.915 15.0349 23.9281 15.3643C23.9686 16.1811 23.9865 17.0029 24.0332 17.8211C24.0332 17.8385 24.025 17.8545 24.0202 17.8691Z" fill="#E6E600"/>
<path fill-rule="evenodd" clip-rule="evenodd" d="M23.6619 17.6945C23.6839 17.6945 23.7045 17.6967 23.7258 17.6967L23.8551 18.248C23.8736 18.2807 23.8716 18.3091 23.8372 18.3302C23.8118 18.344 23.7774 18.2931 23.754 18.344C23.6426 18.5731 23.6853 18.7862 23.8846 18.9483C23.9115 18.968 23.9396 18.984 23.952 19.0211C23.9642 19.0328 23.9771 19.0437 23.9905 19.0538C23.9891 19.1345 23.9252 19.1403 23.8791 19.1534C23.7588 19.1796 23.6426 19.2203 23.5189 19.2116C23.4755 19.2115 23.4327 19.2212 23.3931 19.24C23.147 19.2909 22.8981 19.288 22.6506 19.2785C22.6073 19.2756 22.5564 19.2712 22.5426 19.3323C22.531 19.3905 22.5756 19.4094 22.619 19.4225C22.729 19.4618 22.8438 19.4472 22.9551 19.4538C23.017 19.4574 23.0858 19.4349 23.1339 19.5011C23.1415 19.592 23.0734 19.5963 23.0163 19.6065C22.9462 19.6174 22.8751 19.6189 22.8046 19.6109C22.663 19.6022 22.5337 19.6298 22.4285 19.7418C22.415 19.7591 22.3975 19.7723 22.3776 19.7803C22.2663 19.8203 22.1728 19.688 22.0305 19.7767C21.9459 19.8312 21.8132 19.6669 21.7486 19.544C21.7422 19.5191 21.7412 19.493 21.7458 19.4676C21.7561 19.4109 21.8448 19.3891 21.8111 19.3207C21.7747 19.2502 21.7018 19.2851 21.6468 19.2785C21.5251 19.2654 21.3952 19.3367 21.2859 19.2363C21.2797 19.1207 21.3911 19.136 21.4413 19.0792C21.4716 19.052 21.5095 19.036 21.5492 19.0334C21.574 19.0334 21.5953 19.0429 21.6152 19.0589C21.6338 19.0778 21.6537 19.1032 21.6819 19.1003C21.8524 19.0822 21.992 19.1447 22.1198 19.2538C22.1515 19.2807 22.1893 19.2923 22.2236 19.2611C22.3605 19.1498 22.5124 19.0836 22.6932 19.0974C22.7118 19.0974 22.7269 19.072 22.7434 19.0574C22.7619 19.0421 22.784 19.0323 22.8073 19.0291C22.9276 19.0792 23.0129 19.0749 23.0748 18.9214C23.1291 18.784 23.2013 18.7963 23.358 18.9447C23.468 18.7832 23.4673 18.7491 23.3346 18.5432C23.259 18.6094 23.2597 18.7651 23.1332 18.7636C23.0156 18.7636 22.9902 18.6349 22.9215 18.5658C22.8575 18.6429 22.9077 18.7992 22.764 18.8196C22.6966 18.7731 22.6911 18.704 22.7028 18.6305C22.7544 18.4742 22.7461 18.3149 22.731 18.1563C22.736 18.1303 22.7464 18.1057 22.7613 18.0843C22.8335 17.9942 22.8163 17.8778 22.8424 17.7738C22.8658 17.6843 22.863 17.5585 22.982 17.5476C23.0878 17.5403 23.1346 17.648 23.1861 17.728C23.2003 17.7488 23.209 17.7731 23.2116 17.7985C23.204 17.728 23.2336 17.6385 23.2803 17.5585C23.3415 17.4552 23.4556 17.4647 23.5395 17.5745C23.5739 17.6203 23.589 17.6916 23.6619 17.6945Z" fill="#E6E600"/>
<path fill-rule="evenodd" clip-rule="evenodd" d="M21.5189 19.1563C21.4515 19.2203 21.3573 19.1643 21.2872 19.2196C21.1916 19.3403 21.0796 19.232 20.9764 19.2429C20.9297 19.2334 20.8884 19.208 20.841 19.2116C20.7159 19.2203 20.5969 19.1796 20.4766 19.1534C20.4292 19.1403 20.3646 19.1352 20.3618 19.0538C20.3754 19.0439 20.3882 19.0329 20.4003 19.0211C20.412 18.984 20.4409 18.9687 20.4677 18.9483C20.665 18.7862 20.7111 18.5731 20.6004 18.3462C20.5749 18.2967 20.5419 18.344 20.5151 18.3309C20.4794 18.3098 20.4794 18.2814 20.4973 18.2487C20.5124 18.0829 20.5983 17.9345 20.5983 17.7665C20.6066 17.7473 20.6194 17.7306 20.6355 17.7181C20.6517 17.7056 20.6706 17.6977 20.6904 17.6952C20.7399 17.6952 20.7688 17.6625 20.7908 17.6182C20.8321 17.5389 20.8905 17.4756 20.9847 17.488C21.0768 17.5003 21.0913 17.5912 21.1194 17.6669C21.127 17.6858 21.127 17.7112 21.1449 17.7272C21.1566 17.7302 21.1628 17.7236 21.171 17.7127C21.2308 17.6429 21.2734 17.5236 21.3828 17.5505C21.5065 17.5803 21.4941 17.7171 21.5161 17.8203C21.534 17.9025 21.5299 17.9934 21.6041 18.0516C21.6219 18.0689 21.6343 18.0915 21.6399 18.1163C21.6096 18.296 21.5876 18.472 21.6674 18.6465C21.6722 18.7134 21.6571 18.7702 21.6041 18.8109C21.4398 18.8174 21.5017 18.64 21.4309 18.568C21.2343 18.8385 21.2033 18.8385 21.0266 18.5527C20.8933 18.7083 20.8891 18.7447 20.9813 18.9411C21.0314 18.9432 21.0473 18.8872 21.0809 18.8632C21.1511 18.8116 21.2281 18.808 21.2631 18.8872C21.3133 19.0196 21.4171 19.0836 21.5189 19.1563ZM21.7107 12.7105C21.7409 12.504 21.7939 12.3018 21.7822 12.0916C21.7802 12.022 21.7622 11.954 21.7296 11.8935C21.697 11.833 21.6508 11.7819 21.5952 11.7447C21.5617 11.7261 21.5244 11.7166 21.4866 11.7171C21.4288 11.7105 21.3546 11.8487 21.3174 11.7105C21.3019 11.6574 21.301 11.6007 21.3147 11.547C21.3285 11.4933 21.3564 11.4448 21.3951 11.4072C21.4151 11.3876 21.4446 11.3694 21.4673 11.3709C21.7946 11.3949 22.1246 11.2596 22.4511 11.4102C22.6223 11.4916 22.7275 11.6087 22.7392 11.8102C22.7536 11.8451 22.7584 11.8778 22.722 11.8996C22.6698 11.8996 22.6416 11.8603 22.6251 11.8189C22.5673 11.6669 22.4463 11.6552 22.3425 11.72C22.1308 11.8567 21.9685 11.7672 21.8131 11.624C21.749 11.5688 21.6755 11.5271 21.5966 11.5011C21.7396 11.5374 21.8571 11.6429 21.9623 11.7563C22.0379 11.8349 22.0634 11.9214 21.9719 12.0269C21.8633 12.1498 21.9273 12.3243 21.8826 12.4705C21.8482 12.5789 21.8743 12.7192 21.7348 12.7709C21.7079 12.7592 21.6976 12.7403 21.7107 12.7105ZM22.9606 13.3876C22.9929 13.472 23.063 13.4567 23.1269 13.4531C23.4246 13.4414 23.6859 13.3163 23.943 13.1745C23.9719 13.1556 23.987 13.1709 23.998 13.1978C23.9953 13.2938 23.9224 13.3345 23.8578 13.3752C23.7488 13.4409 23.632 13.4908 23.5106 13.5236C23.3655 13.568 23.2253 13.632 23.0871 13.6749C22.898 13.736 22.6801 13.856 22.4656 13.7098C22.4085 13.672 22.3521 13.6625 22.2834 13.7069C22.1259 13.8131 22.0324 13.7607 21.9891 13.5556C21.9923 13.5437 21.9979 13.5327 22.0053 13.5232C22.0128 13.5137 22.022 13.5059 22.0324 13.5003C22.2353 13.496 22.2408 13.4923 22.238 13.264C22.238 13.2043 22.2284 13.1476 22.2346 13.0902C22.2552 12.9796 22.2607 12.8676 22.2593 12.7563C22.2586 12.6931 22.2476 12.6291 22.304 12.5847C22.4133 12.5803 22.4016 12.6698 22.4064 12.7403C22.4181 12.936 22.4016 13.1309 22.4415 13.3258C22.4566 13.4051 22.4814 13.4676 22.5811 13.5098C22.4993 13.2775 22.4445 13.0354 22.4181 12.7891C22.4133 12.7367 22.4051 12.6865 22.4078 12.6342C22.4099 12.5636 22.4133 12.4785 22.5006 12.4785C22.568 12.4771 22.5989 12.5483 22.6031 12.616C22.6093 12.7069 22.6326 12.7956 22.6416 12.888C22.656 13.0436 22.689 13.1949 22.7502 13.3382C22.777 13.3971 22.8066 13.48 22.8946 13.4051C22.9145 13.3876 22.9351 13.3774 22.9606 13.3876Z" fill="#E6E600"/>
<path fill-rule="evenodd" clip-rule="evenodd" d="M21.7107 12.7105C21.721 12.7273 21.7307 12.7433 21.743 12.7593C21.8125 12.8335 21.7671 12.912 21.7458 12.984C21.6963 13.152 21.5959 13.2931 21.5148 13.4473C21.6248 13.4189 21.6681 13.3273 21.7011 13.2313C21.7637 13.0531 21.8242 12.8735 21.8475 12.68C21.851 12.6662 21.8475 12.6458 21.8537 12.632C21.8881 12.5571 21.8709 12.4255 21.9802 12.4364C22.104 12.4487 22.049 12.5702 22.0449 12.6473C22.026 12.9535 21.9411 13.251 21.7967 13.5171C21.7767 13.552 21.7561 13.5833 21.7534 13.6262C21.7169 13.6618 21.7169 13.7062 21.7265 13.7535C21.6667 13.832 21.6028 13.8589 21.5526 13.752C21.5196 13.6807 21.4797 13.7004 21.4302 13.7142C21.3333 13.7411 21.2474 13.7273 21.182 13.6385C21.136 13.5789 21.07 13.5709 21.0033 13.5615C20.8301 13.5345 20.6633 13.4731 20.5117 13.3804C20.4402 13.3425 20.3612 13.3018 20.355 13.1978C20.366 13.1709 20.3811 13.1549 20.4107 13.1745C20.6609 13.3135 20.916 13.432 21.2068 13.4567C21.3037 13.4625 21.3649 13.4356 21.4192 13.3447C21.5375 13.1433 21.6282 12.9295 21.7107 12.7105Z" fill="#E6E600"/>
<path fill-rule="evenodd" clip-rule="evenodd" d="M20.4107 13.1709C20.3963 13.1804 20.3832 13.1913 20.3681 13.2036C20.298 13.2618 20.2347 13.2189 20.1701 13.1884C20.0263 13.1193 19.8736 13.0732 19.717 13.0516C19.5307 13.0247 19.3925 13.1178 19.3176 13.3033C19.2901 13.3774 19.2557 13.4531 19.2179 13.5214C19.1423 13.5018 19.2076 13.416 19.1602 13.384C19.2303 13.0204 19.4324 12.8676 19.7762 12.9178C20.0058 12.9513 20.2162 13.0342 20.4107 13.1709ZM23.985 13.2073C23.9723 13.1946 23.9582 13.1836 23.9431 13.1745C24.1562 13.0247 24.3893 12.9382 24.6409 12.912C24.9358 12.8807 25.129 13.0516 25.193 13.3876L25.1607 13.4996C25.0775 13.4676 25.0644 13.3782 25.0362 13.3069C24.9572 13.1178 24.8148 13.0247 24.6203 13.0567C24.469 13.0802 24.3216 13.1259 24.1823 13.1927C24.1184 13.2225 24.0545 13.2647 23.985 13.2073ZM22.9607 13.3876C22.949 13.4009 22.9382 13.415 22.9283 13.4298C22.8479 13.4284 22.8156 13.3694 22.7936 13.3025C22.7207 13.1172 22.681 12.9192 22.6767 12.7185C22.6912 12.6502 22.7104 12.5811 22.775 12.5418C22.8156 12.8284 22.85 13.1164 22.9607 13.3876Z" fill="#E6E600"/>
<path fill-rule="evenodd" clip-rule="evenodd" d="M22.7771 12.5454C22.7627 12.6036 22.7826 12.6727 22.7421 12.728C22.6438 12.6065 22.6204 12.0211 22.7111 11.8938C22.7201 11.8661 22.7304 11.8414 22.7407 11.8138C22.8081 12.056 22.7799 12.2996 22.7771 12.5483M20.4974 18.2472C20.5084 18.2698 20.518 18.2952 20.5256 18.3192C20.6184 18.4523 20.5586 18.5505 20.4623 18.6407C20.4073 18.6465 20.4259 18.5883 20.4053 18.5651C20.4307 18.4574 20.4479 18.3454 20.4974 18.2472ZM23.827 18.32C23.8359 18.2967 23.8448 18.2712 23.8551 18.248C23.9046 18.3461 23.9225 18.4581 23.9473 18.5665C23.928 18.5891 23.9473 18.6472 23.8902 18.6421C23.794 18.552 23.7341 18.4531 23.827 18.32Z" fill="#E6E600"/>
<path fill-rule="evenodd" clip-rule="evenodd" d="M20.406 18.5665C20.4184 18.5905 20.428 18.616 20.4404 18.6429C20.5043 18.7491 20.4982 18.8349 20.3717 18.8815C20.3607 18.8582 20.3531 18.8349 20.3421 18.8109C20.3641 18.7302 20.3847 18.648 20.406 18.5665ZM23.915 18.6436C23.9253 18.6167 23.935 18.5913 23.9473 18.5673C23.968 18.648 23.9893 18.7309 24.012 18.8124C24.0003 18.8356 23.9927 18.8589 23.9817 18.8829C23.8552 18.8349 23.849 18.7498 23.915 18.6436ZM20.8907 15.3745C20.8502 15.2989 20.8426 15.2153 20.8268 15.1331C20.7766 15.0458 20.822 14.9615 20.8316 14.8749C20.8625 15.0269 20.8942 15.1804 20.9237 15.3338C20.9134 15.3476 20.9134 15.3731 20.8907 15.3745ZM20.756 17.24C20.7704 17.2044 20.7821 17.1695 20.7952 17.136C20.8227 17.1505 20.8068 17.1869 20.8227 17.2058C20.8034 17.3135 20.7842 17.4262 20.7333 17.5251C20.723 17.4873 20.7154 17.448 20.7037 17.4073C20.7298 17.3549 20.6948 17.28 20.756 17.24ZM21.2888 14.2829C21.2214 14.2924 21.1561 14.3055 21.0908 14.3178C21.0557 14.3055 21.02 14.296 20.9863 14.2851C21.0578 14.2545 21.1341 14.2538 21.2111 14.2502C21.2434 14.2429 21.2819 14.2145 21.2888 14.2829ZM20.1028 19.2662C20.23 19.2945 20.3607 19.3091 20.481 19.3578C20.679 19.4342 20.7773 19.3338 20.8474 19.1615C20.8887 19.1556 20.9251 19.1593 20.9581 19.1884C21.0028 19.2255 21.0688 19.2349 21.0839 19.3098C21.1011 19.4058 21.1692 19.4269 21.2503 19.4167C21.4125 19.44 21.5734 19.464 21.7391 19.4451C21.7474 19.4466 21.7554 19.4499 21.7625 19.4548C21.7695 19.4597 21.7756 19.466 21.7803 19.4735V19.5331C21.596 19.5583 21.4093 19.5588 21.2248 19.5345C21.053 19.5113 20.9382 19.5644 20.868 19.7644C20.8151 19.4524 20.5965 19.4305 20.3785 19.392C20.2603 19.3738 20.1413 19.3564 20.0327 19.296C20.0568 19.2873 20.0795 19.2756 20.1028 19.2662ZM23.506 19.1636C23.4943 19.2356 23.585 19.2371 23.5898 19.2967L23.5582 19.3345C23.5238 19.3658 23.4517 19.3629 23.4544 19.4313C23.4606 19.4851 23.5245 19.4742 23.5562 19.5025L23.5885 19.5396C23.5555 19.608 23.5204 19.6756 23.4764 19.768C23.4173 19.5738 23.2997 19.5055 23.132 19.5367C23.011 19.48 22.8858 19.5222 22.7628 19.5098C22.6982 19.504 22.6315 19.52 22.5737 19.4771C22.6803 19.3636 22.8185 19.4218 22.9408 19.4189C23.0887 19.4124 23.2317 19.4473 23.2997 19.2553C23.3121 19.2218 23.365 19.2167 23.3953 19.1927C23.4255 19.1615 23.4647 19.1564 23.506 19.1636ZM23.5335 17.2058C23.5186 17.1546 23.5042 17.1032 23.4902 17.0516C23.462 17.0284 23.4303 17.0131 23.4132 16.9782C23.3021 16.7072 23.229 16.4205 23.1959 16.1273C23.1925 16.0931 23.1993 16.0604 23.1904 16.0247C23.2805 15.7622 23.407 15.5113 23.4386 15.2284C23.4544 15.2407 23.4723 15.2502 23.4888 15.2625C23.5438 15.4138 23.5183 15.5745 23.5245 15.7316C23.541 16.1949 23.5438 16.6604 23.6036 17.1185C23.596 17.1636 23.5892 17.2073 23.5335 17.2058ZM23.2647 14.3185C23.1375 14.32 23.0206 14.2793 22.9003 14.2495C22.9051 14.1804 22.9463 14.2087 22.9787 14.2145C23.1079 14.2378 23.2399 14.2618 23.3671 14.2822C23.3333 14.2955 23.2992 14.3076 23.2647 14.3185Z" fill="#E6E600"/>
<path fill-rule="evenodd" clip-rule="evenodd" d="M23.5606 17.1367C23.573 17.1702 23.586 17.2066 23.5998 17.2407C23.661 17.2807 23.6259 17.3556 23.6513 17.4095C23.6403 17.4487 23.6328 17.488 23.6232 17.5273C23.5716 17.4262 23.5551 17.3164 23.5324 17.2066C23.5407 17.1833 23.5517 17.1607 23.5606 17.1367ZM22.77 17.2436C22.6758 17.4393 22.5678 17.6306 22.638 17.8647C22.6552 17.8953 22.6366 17.9287 22.6428 17.96C22.6971 18.1789 22.7555 18.3993 22.7665 18.6291C22.7522 18.6915 22.7541 18.7569 22.772 18.8182C22.8552 18.8822 22.882 18.9593 22.8009 19.048C22.7909 19.0605 22.7813 19.0734 22.772 19.0866C22.717 19.0931 22.6696 19.1266 22.6132 19.12C22.5032 19.1055 22.4049 19.0618 22.3953 18.9324C22.3808 18.7527 22.3561 18.5724 22.3403 18.3927C22.3417 18.2829 22.3203 18.176 22.3176 18.0669C22.3052 18.0276 22.3114 17.9833 22.297 17.9477C22.3015 17.959 22.3045 17.971 22.3059 17.9833C22.3059 18.0284 22.3203 18.0684 22.3238 18.1149C22.343 18.2677 22.3203 18.4284 22.3698 18.5789C22.3685 18.6938 22.3932 18.8073 22.3884 18.9244C22.3863 19.0786 22.2867 19.1964 22.1684 19.1898C22.057 19.1855 21.9649 19.0706 21.9635 18.9244C21.9615 18.7993 21.9793 18.672 21.989 18.5476C22.0268 18.4058 22.0151 18.2597 22.0295 18.1149C22.035 18.0378 22.0673 17.9636 22.0598 17.8858C22.0646 17.9578 22.0447 18.0247 22.0302 18.0931C22.0378 18.1927 22.0082 18.2909 22.0123 18.3898C21.991 18.5651 21.9725 18.7389 21.9608 18.9164C21.9518 19.0429 21.848 19.1229 21.7229 19.1207C21.6727 19.1193 21.6301 19.0909 21.5813 19.0873L21.5517 19.0487C21.4727 18.96 21.4967 18.8836 21.5799 18.8189C21.593 18.7593 21.6047 18.6953 21.6184 18.6357C21.606 18.48 21.5998 18.3258 21.6583 18.1767C21.6727 18.1338 21.6583 18.1113 21.6136 18.1127C21.6034 18.1009 21.5939 18.0882 21.5854 18.0749C21.6411 17.9833 21.6968 17.8909 21.7532 17.8015C21.7801 17.7344 21.7952 17.6627 21.7978 17.5898C21.7999 17.4662 21.813 17.3433 21.8583 17.2255C21.877 17.1828 21.9094 17.1485 21.9498 17.1287C22.1767 17.3033 22.1767 17.3033 22.4042 17.1251C22.4415 17.1464 22.4721 17.1788 22.4922 17.2182C22.525 17.3059 22.5451 17.3983 22.552 17.4924C22.5532 17.3607 22.5918 17.2325 22.6627 17.1244C22.6792 17.1037 22.7026 17.0906 22.728 17.088C22.7872 17.0982 22.8188 17.1346 22.8215 17.1978C22.814 17.2262 22.8016 17.2487 22.77 17.2436Z" fill="#E6E600"/>
<path fill-rule="evenodd" clip-rule="evenodd" d="M22.7632 18.152C22.7096 18.0793 22.6567 18.0058 22.6017 17.9331C22.6134 17.9091 22.625 17.8873 22.6374 17.8647C22.7027 17.9404 22.7515 18.024 22.7949 18.1142L22.7632 18.152ZM21.9114 13.5171C22.0441 13.3615 22.0441 13.1585 22.0737 12.968C22.1032 12.7869 22.1142 12.6044 22.1328 12.4138C22.2022 12.4393 22.1837 12.4829 22.1816 12.5164C22.1624 12.8109 22.1355 13.1055 22.0551 13.3898C22.0434 13.4342 22.0262 13.4771 22.0434 13.5244C22.031 13.5367 22.0221 13.5498 22.0111 13.56H21.9479C21.9114 13.5709 21.9025 13.5535 21.9114 13.5171ZM22.3054 13.1636C22.2586 12.928 22.2834 12.6924 22.273 12.4364C22.3631 12.488 22.3322 12.5447 22.3335 12.5905C22.2772 12.7789 22.3239 12.9738 22.3054 13.1636Z" fill="#E6E600"/>
<path fill-rule="evenodd" clip-rule="evenodd" d="M21.9115 13.5171C21.9234 13.5321 21.936 13.5464 21.9493 13.56C21.8806 13.6327 21.8042 13.6895 21.7149 13.728C21.6722 13.6967 21.675 13.664 21.7149 13.6327C21.7974 13.6269 21.8476 13.5585 21.9115 13.5171ZM21.2886 14.2829C21.2632 14.272 21.2364 14.2625 21.2109 14.2502C21.4089 14.1905 21.6049 14.1338 21.8036 14.0756C21.8373 14.0611 21.8476 14.0742 21.8476 14.1091C21.6683 14.19 21.4807 14.2483 21.2886 14.2829ZM22.6244 14.1564C22.4948 14.1279 22.3737 14.0662 22.2718 13.9767C22.2752 13.9549 22.2924 13.9535 22.3075 13.9469L22.6684 14.1178C22.6719 14.1535 22.6629 14.1724 22.6244 14.1564Z" fill="#E6E600"/>
<path fill-rule="evenodd" clip-rule="evenodd" d="M21.8477 14.1083C21.8334 14.0967 21.8187 14.0855 21.8037 14.0749L22.1124 13.9091C22.1197 13.9118 22.1265 13.9161 22.1321 13.9218C22.1378 13.9274 22.1423 13.9342 22.1454 13.9418C22.0601 14.0291 21.9536 14.0705 21.8477 14.1083ZM22.6246 14.1563L22.6686 14.1185C22.771 14.1505 22.8762 14.184 22.978 14.2145C22.9525 14.2276 22.9257 14.2371 22.8996 14.2494C22.8061 14.2276 22.7091 14.2087 22.6246 14.1563Z" fill="#E6E600"/>
<path fill-rule="evenodd" clip-rule="evenodd" d="M22.1444 13.9418C22.132 13.9309 22.1237 13.92 22.1114 13.9091C22.2014 13.7767 22.2447 13.9047 22.3066 13.9469L22.2709 13.9767C22.2303 13.9644 22.1994 13.9054 22.1444 13.9418ZM22.6036 16.7782C22.6352 16.6684 22.6421 16.5585 22.6421 16.4436C22.6394 15.7876 22.6421 15.1338 22.6394 14.4778C22.6394 14.4131 22.6689 14.3396 22.6036 14.2836C22.5947 14.2793 22.5912 14.2749 22.5947 14.2684C22.5974 14.2618 22.6002 14.2589 22.6036 14.2589C22.8649 14.3142 23.1192 14.4073 23.3908 14.4073C23.4623 14.4087 23.4657 14.4574 23.4637 14.5134C23.4293 15.3767 23.1626 16.1396 22.6036 16.7782ZM21.7456 14.2829C21.6679 14.2982 21.6803 14.3651 21.6803 14.4182C21.6803 15.1265 21.6837 15.8364 21.6776 16.5447C21.6776 16.6167 21.725 16.6727 21.7181 16.7425C21.2788 16.2393 21.0368 15.6371 20.9296 14.9716C20.9048 14.8189 20.9014 14.6618 20.8897 14.5054C20.8821 14.4342 20.9069 14.4029 20.9784 14.4029C21.2314 14.3971 21.4727 14.3164 21.7147 14.2516C21.7491 14.2342 21.7525 14.2545 21.7456 14.2829ZM20.8244 17.2058C20.8161 17.1821 20.807 17.1588 20.7969 17.136C20.9069 16.5542 20.8952 15.9636 20.8931 15.3738L20.9261 15.3338C21.0052 15.5636 21.0856 15.792 21.1647 16.0204C21.1826 16.0567 21.1633 16.0894 21.1681 16.1244C21.1283 16.4182 21.0581 16.704 20.9454 16.9782C20.9302 17.0131 20.8973 17.0284 20.8704 17.0502C20.8546 17.1025 20.8402 17.1564 20.8244 17.2058ZM22.77 17.2436C22.781 17.2313 22.7892 17.2182 22.8002 17.2058C22.9336 17.16 22.8903 17.0451 22.8903 16.9491C22.8876 16.8494 22.8167 16.8531 22.7507 16.848C22.7391 16.8447 22.7287 16.8376 22.7212 16.8277C22.7136 16.8177 22.7093 16.8055 22.7088 16.7927C22.8814 16.5491 23.0443 16.2938 23.1852 16.0247C23.199 16.0465 23.2127 16.0705 23.2272 16.0924C23.1806 16.2755 23.1498 16.4626 23.1351 16.6516C23.1179 16.9018 23.2258 17.0007 23.4499 16.9556C23.4623 16.9854 23.474 17.0182 23.4857 17.0516C23.364 17.264 23.364 17.264 23.1832 17.0778C23.1447 17.0385 23.1034 17 23.0429 16.9404L22.9687 17.5331L22.77 17.2436Z" fill="#E6E600"/>
<path fill-rule="evenodd" clip-rule="evenodd" d="M20.8672 17.0495L20.9016 16.9556C21.0542 17.0225 21.1456 16.936 21.224 16.8153C21.2604 16.7665 21.2769 16.7004 21.3333 16.6705C21.3753 16.6625 21.4206 16.6647 21.4536 16.6247C21.4627 16.6176 21.4734 16.6135 21.4846 16.6127C21.4959 16.6119 21.5071 16.6146 21.5169 16.6204C21.5506 16.6647 21.598 16.6974 21.609 16.76C21.6085 16.7756 21.6032 16.7907 21.5939 16.8029C21.5458 16.84 21.4708 16.8414 21.4481 16.9149C21.4096 16.9578 21.4083 17.0393 21.3292 17.0342C21.3113 17.0109 21.3381 16.9134 21.2625 16.9862C21.2041 17.0379 21.1494 17.094 21.0989 17.1542C21.0143 17.2589 20.9497 17.2785 20.9084 17.1193C20.9009 17.0938 20.8823 17.0727 20.8672 17.0495Z" fill="#E6E600"/>
<path fill-rule="evenodd" clip-rule="evenodd" d="M21.3468 16.688C21.3289 16.7462 21.3103 16.8022 21.2945 16.8618C21.243 16.8407 21.2258 16.792 21.2223 16.7382C21.2034 16.522 21.1705 16.3075 21.124 16.096C21.1357 16.0698 21.1495 16.0465 21.1611 16.0196C21.2368 16.16 21.3145 16.2967 21.3901 16.4371C21.3978 16.4497 21.4021 16.4643 21.4025 16.4793C21.3846 16.5295 21.3866 16.5818 21.388 16.6349C21.3825 16.6596 21.3722 16.6785 21.3468 16.688ZM21.5853 16.7709C21.5922 16.7644 21.5998 16.7622 21.6073 16.7578C21.7221 16.8815 21.8363 17.0022 21.9483 17.1265C21.9512 17.1678 21.9414 17.2089 21.9201 17.2436C21.8363 17.208 21.7833 17.1018 21.6747 17.1265C21.6534 17.1182 21.6358 17.1019 21.6252 17.0807C21.6458 16.9724 21.5228 16.8844 21.5853 16.7709ZM22.708 16.7927C22.7168 16.7982 22.7243 16.8057 22.73 16.8145C22.7726 16.9127 22.7493 17.0087 22.7273 17.1055L22.6956 17.144C22.5891 17.1149 22.5128 17.192 22.431 17.2451C22.4041 17.208 22.4028 17.1658 22.4007 17.1244C22.5025 17.0145 22.6076 16.904 22.708 16.7927ZM21.749 16.7927C21.892 16.8305 21.9676 16.9425 22.0301 17.072C21.916 17.0036 21.8328 16.8982 21.749 16.7927ZM22.2687 14.1127C22.1697 14.0356 22.0996 14.1665 22.0088 14.1505C22.0913 14.1025 22.1525 13.9018 22.2687 14.1127ZM22.0618 17.0691C22.1477 17.1665 22.2309 17.1098 22.3134 17.0611C22.29 17.1375 22.2405 17.1985 22.1697 17.1985C22.1175 17.1964 22.0645 17.1433 22.0618 17.0691Z" fill="#E6E600"/>
<path fill-rule="evenodd" clip-rule="evenodd" d="M21.3812 16.4945C21.3825 16.4742 21.386 16.4567 21.3887 16.4378C21.4307 16.4989 21.4705 16.5593 21.5145 16.6203C21.5028 16.6327 21.4918 16.6459 21.4815 16.6596C21.3983 16.6654 21.386 16.5949 21.3633 16.5382C21.3652 16.5221 21.3714 16.507 21.3812 16.4945ZM22.4055 16.9673C22.444 16.9003 22.4667 16.8109 22.5692 16.8298C22.5231 16.8887 22.4832 16.9542 22.4055 16.9673ZM22.6035 14.256V14.2814C22.5451 14.2633 22.4743 14.2662 22.444 14.1876C22.5028 14.1915 22.5588 14.2155 22.6035 14.256ZM21.7455 14.2829C21.7359 14.2734 21.7256 14.2625 21.7146 14.2531C21.7627 14.2087 21.8177 14.1876 21.8789 14.2247C21.8438 14.2683 21.7923 14.272 21.7455 14.2829ZM21.6493 17.0654L21.6802 17.104C21.771 17.2065 21.7778 17.3396 21.7992 17.4662C21.8108 17.5193 21.806 17.5753 21.8438 17.6218C21.8425 17.6989 21.7923 17.7462 21.7517 17.8014C21.7139 17.6087 21.6857 17.4138 21.5819 17.2436C21.551 17.2531 21.5372 17.2313 21.5276 17.2022C21.5276 17.1156 21.5551 17.0582 21.6493 17.0654Z" fill="#E6E600"/>
<path fill-rule="evenodd" clip-rule="evenodd" d="M21.5496 17.2022L21.5826 17.2436C21.5297 17.3265 21.4726 17.4785 21.4025 17.4633C21.3035 17.4378 21.3681 17.2815 21.3413 17.1876C21.3275 17.1382 21.3323 17.0844 21.3275 17.0342C21.3454 16.976 21.3647 16.9178 21.3825 16.8625C21.463 16.8996 21.4554 16.9789 21.4554 17.0524C21.4554 17.1258 21.4747 17.1804 21.5496 17.2022ZM23.3818 20.2029C23.3343 20.2131 23.2773 20.2364 23.269 20.1542C23.2642 20.0786 23.3103 20.0356 23.3625 20.0015C23.4581 19.9404 23.4457 20.0756 23.511 20.1076C23.5213 19.9862 23.6492 19.928 23.6114 19.7956C23.6087 19.7876 23.6362 19.7629 23.6547 19.7542C23.6595 19.7513 23.6863 19.7687 23.6877 19.7782C23.6953 19.9091 23.8431 19.896 23.8795 19.9949C23.8878 20.0204 23.9256 20.0298 23.9325 20.0124C24.0005 19.8764 24.1023 19.9331 24.2082 19.9658C24.1903 19.8705 24.1738 19.7942 24.1593 19.7185C24.1449 19.6429 24.1208 19.5782 24.0287 19.6175C23.9895 19.6342 23.9607 19.616 23.9565 19.5789C23.9462 19.5309 23.9937 19.5331 24.0218 19.5244C24.1552 19.488 24.2116 19.5622 24.2377 19.6895C24.257 19.8051 24.2357 19.9702 24.4357 19.8895C24.446 19.8844 24.4756 19.9098 24.4838 19.9273C24.4976 19.9586 24.4625 19.9731 24.4495 19.9716C24.2721 19.96 24.1593 20.1847 23.9675 20.1164C23.9345 20.1069 23.9201 20.1295 23.9091 20.1607C23.8617 20.2829 23.8053 20.2989 23.7028 20.2065C23.6093 20.1236 23.522 20.1716 23.4588 20.2676C23.3962 20.2895 23.4203 20.2058 23.3818 20.2029ZM21.3812 20.3855C21.5132 20.3367 21.5984 20.2778 21.5248 20.1382C21.5015 20.0931 21.5166 20.0516 21.5585 20.0386C21.597 20.0233 21.6046 20.0684 21.6183 20.0996C21.6321 20.1316 21.6417 20.1709 21.6837 20.1578C21.727 20.1469 21.7118 20.1033 21.7098 20.0713C21.7063 20.032 21.6898 19.9847 21.7359 19.9629C21.7895 19.9396 21.7895 20.0044 21.8157 20.0262C21.8947 20.0829 21.9862 20.0473 22.0707 20.056C22.1463 20.0691 22.2371 20.0473 22.2089 20.184C22.2804 20.1738 22.2756 20.1098 22.3141 20.0873C22.3581 20.0625 22.4145 20.0233 22.4475 20.0625C22.4777 20.1004 22.475 20.1709 22.475 20.2284C22.4763 20.2924 22.4248 20.2924 22.3808 20.2945C22.3017 20.296 22.222 20.2793 22.169 20.3796C22.1436 20.4262 22.0872 20.4233 22.0398 20.3818C21.8727 20.2429 21.7332 20.2378 21.573 20.3636C21.5269 20.4015 21.4767 20.4102 21.3812 20.3855ZM21.1763 20.2582C21.2065 20.0815 21.2361 19.9462 21.2278 19.8058C21.2251 19.7571 21.2409 19.72 21.2815 19.72C21.3502 19.72 21.3179 19.7782 21.3131 19.8095C21.2966 19.9527 21.276 20.0945 21.2533 20.2378C21.2443 20.2865 21.21 20.3193 21.166 20.3338C21.1227 20.3469 21.0945 20.3207 21.0683 20.2873C20.9652 20.1389 20.8085 20.0975 20.66 20.1905C20.6105 20.2218 20.5637 20.2458 20.4902 20.2189C20.5905 20.1607 20.6634 20.0945 20.6167 19.9658C20.6077 19.9418 20.627 19.9025 20.6558 19.8975C20.6909 19.8895 20.6964 19.9273 20.6998 19.9556C20.7074 20.0073 20.7143 20.0596 20.7755 20.072C20.805 20.0778 20.8312 20.0778 20.8511 20.0553C20.8676 20.0335 20.8435 20.0167 20.8312 19.9985C20.7397 19.848 20.9288 19.8916 20.957 19.8109C20.9797 19.7513 21.0532 19.8095 21.0546 19.8611C21.0573 19.9273 21.243 19.9949 21.0601 20.0618C21.0917 20.1178 21.1247 20.1709 21.1763 20.2582ZM19.9855 19.5404C20.0605 19.4887 20.1443 19.4756 20.1973 19.5055C20.2399 19.5309 20.1877 19.608 20.1746 19.6633C20.1718 19.6742 20.167 19.6851 20.1663 19.6975C20.156 19.7687 20.0728 19.8705 20.1519 19.9091C20.2695 19.9615 20.2076 19.8058 20.2523 19.7658C20.2715 19.7513 20.2977 19.7462 20.3341 19.7302C20.3307 19.7687 20.332 19.7905 20.3293 19.8124C20.3169 19.8735 20.2578 19.9505 20.365 19.976C20.4654 20.0015 20.4475 19.9331 20.4475 19.8655C20.4482 19.8145 20.5067 19.8087 20.5493 19.8065C20.5527 19.8145 20.5582 19.8204 20.5568 19.8255C20.4867 20.1324 20.5321 20.1025 20.2461 20.0298C20.167 20.0116 20.0893 19.9855 20.011 19.96C19.9704 19.9498 19.9127 19.9556 19.9078 19.8945C19.9051 19.8305 19.9457 19.7898 20.002 19.7651C20.0331 19.7573 20.0619 19.7416 20.0859 19.7193C20.154 19.6364 20.1182 19.5636 19.9855 19.5404ZM22.6627 20.2975C22.5307 20.2611 22.5836 20.1607 22.6297 20.1178C22.7197 20.04 22.7211 19.9556 22.6847 19.8582C22.6647 19.8036 22.6867 19.7753 22.7252 19.7687C22.7727 19.7629 22.7644 19.8131 22.7685 19.8444C22.7795 19.9316 22.7864 20.016 22.7974 20.1018C22.8008 20.1484 22.8022 20.2044 22.8682 20.1855C22.9163 20.1716 22.9267 20.1367 22.906 20.0916C22.8902 20.0516 22.871 20.0087 22.9239 19.9942C22.9954 19.976 22.9789 20.0458 22.9913 20.0844C23.0346 20.2335 22.9672 20.2829 22.8359 20.2742C22.785 20.3404 22.7197 20.2873 22.6627 20.2975ZM23.005 20.3855C23.1075 20.2793 23.1797 20.2007 23.071 20.0938C23.0394 20.0662 23.0676 20.0124 23.104 19.9949C23.1425 19.9796 23.1522 20.0262 23.17 20.0545C23.2608 20.2124 23.225 20.3171 23.005 20.3855ZM21.3949 19.7236C21.4451 19.752 21.4898 19.7666 21.4678 19.8262C21.4272 19.9295 21.4272 20.0393 21.4183 20.1455C21.4155 20.1825 21.4183 20.2385 21.3633 20.2269C21.3069 20.216 21.3351 20.1644 21.3399 20.1295C21.3454 20.0596 21.3543 19.9927 21.3633 19.9251C21.3729 19.8625 21.3812 19.8007 21.3949 19.7236Z" fill="#E6E600"/>
<path fill-rule="evenodd" clip-rule="evenodd" d="M22.832 20.3083C22.865 20.3214 22.8987 20.3498 22.874 20.3832C22.832 20.4334 22.766 20.3927 22.711 20.4014C22.6753 20.4094 22.6691 20.3607 22.6966 20.3272C22.7372 20.2952 22.7853 20.304 22.832 20.3083ZM23.382 20.2029C23.4075 20.2247 23.4302 20.2472 23.4577 20.2669C23.4274 20.3403 23.3745 20.3476 23.3071 20.3352C23.3222 20.2807 23.4185 20.2829 23.382 20.2029ZM22.6223 19.8472C22.6148 19.88 22.5976 19.8872 22.577 19.88C22.5646 19.8763 22.5502 19.8574 22.5502 19.8502C22.5515 19.8218 22.5715 19.8102 22.5962 19.8189C22.6072 19.8232 22.6155 19.8371 22.6223 19.8472ZM22.6313 19.9847C22.6182 20.0014 22.6038 20.0211 22.5818 20.008C22.5625 19.9949 22.5467 19.9774 22.5605 19.9534C22.5715 19.9316 22.5873 19.9149 22.61 19.9316C22.6285 19.9403 22.6423 19.9585 22.6313 19.9847ZM24.3762 20.0974C24.3665 20.1294 24.3466 20.136 24.3239 20.1338C24.3033 20.1309 24.2778 20.1207 24.2923 20.0909C24.2998 20.0756 24.3218 20.0625 24.3397 20.0596C24.3645 20.0567 24.3741 20.0778 24.3762 20.0974ZM20.0545 20.0552C20.0422 20.0814 20.0263 20.0974 20.0023 20.0851C19.9913 20.0778 19.9796 20.0582 19.983 20.0451C19.9878 20.024 20.0085 20.0109 20.0305 20.024C20.0422 20.0283 20.0483 20.0458 20.0545 20.0552ZM20.3763 20.1512C20.3605 20.1622 20.3495 20.1774 20.3392 20.1789C20.313 20.1847 20.2979 20.1643 20.3062 20.1418C20.3103 20.1302 20.3295 20.12 20.3419 20.12C20.3508 20.1207 20.3605 20.1382 20.3763 20.1512ZM20.4251 19.1927C20.472 19.1804 20.5211 19.1807 20.568 19.1935C20.6148 19.2063 20.6578 19.2313 20.6932 19.2662C20.5942 19.2829 20.5083 19.2465 20.4251 19.1927ZM20.0339 19.0691C20.0776 19.0557 20.1239 19.056 20.1675 19.0698C20.211 19.0836 20.2498 19.1103 20.2793 19.1469C20.1934 19.1636 20.1205 19.1287 20.0339 19.0691ZM23.6605 19.256C23.7368 19.1927 23.8296 19.1782 23.9224 19.1738C23.9252 19.1883 23.9307 19.2022 23.9341 19.2167L23.6742 19.2974L23.6605 19.256ZM24.053 19.1563C24.13 19.0712 24.2077 19.0523 24.3191 19.0596C24.2843 19.0956 24.2424 19.123 24.1964 19.1398C24.1504 19.1565 24.1014 19.1622 24.053 19.1563ZM21.2233 19.4742H21.7492C21.5771 19.5243 21.3954 19.5243 21.2233 19.4742ZM22.0414 18.0778C22.0324 18.0791 22.0235 18.0808 22.0146 18.0829L22.0565 17.7723C22.0792 17.9091 22.0902 17.9963 22.0414 18.0778ZM22.2807 17.9716V17.8131C22.3205 17.856 22.304 17.8982 22.3109 17.9374C22.3267 17.9738 22.3082 17.9774 22.2807 17.9716Z" fill="#E6E600"/>
<path fill-rule="evenodd" clip-rule="evenodd" d="M22.2805 17.9716C22.2902 17.9599 22.3003 17.9485 22.3107 17.9374C22.3226 17.9528 22.3309 17.971 22.3349 17.9905C22.3388 18.01 22.3383 18.0302 22.3334 18.0494C22.3242 18.0601 22.3143 18.0701 22.3038 18.0793C22.277 18.0494 22.275 18.0102 22.2805 17.9716ZM21.3743 19.3513C21.2776 19.3735 21.1776 19.3757 21.0801 19.3578C21.1832 19.2727 21.2678 19.2698 21.3743 19.3513ZM21.7256 19.3687C21.6555 19.4036 21.5799 19.3985 21.5001 19.4036C21.5118 19.336 21.5517 19.3396 21.5881 19.3396C21.6301 19.3622 21.6858 19.3229 21.7256 19.3687Z" fill="#E6E600"/>
<path fill-rule="evenodd" clip-rule="evenodd" d="M21.7259 19.3687C21.6784 19.3607 21.6283 19.3687 21.5884 19.3396C21.6434 19.336 21.6963 19.3323 21.7493 19.3323C21.7637 19.3323 21.7816 19.3476 21.7561 19.3621C21.7486 19.3687 21.7362 19.3651 21.7259 19.3687ZM23.2487 19.3403C23.1627 19.373 23.0694 19.3783 22.9806 19.3556C23.0761 19.2596 23.1607 19.2974 23.2487 19.3403ZM22.7702 19.3396C22.8032 19.3323 22.8307 19.3469 22.8699 19.389C22.7898 19.4088 22.706 19.4016 22.6299 19.3687C22.6705 19.3229 22.7255 19.3621 22.7702 19.3396Z" fill="#E6E600"/>
<path fill-rule="evenodd" clip-rule="evenodd" d="M22.7701 19.3396C22.7267 19.3687 22.6772 19.3607 22.6298 19.3687C22.6161 19.3607 22.5562 19.3651 22.603 19.3396C22.6449 19.3127 22.7116 19.336 22.7701 19.3396ZM21.3813 16.5178C21.3456 16.5462 21.3607 16.5883 21.3483 16.6232C21.3249 16.5767 21.3091 16.528 21.3311 16.48C21.3401 16.4567 21.3655 16.4829 21.3813 16.4945V16.5178ZM20.9681 19.9127C20.9819 19.9287 20.9963 19.9382 20.9991 19.9512C21.0135 19.9869 20.9846 19.9869 20.9654 19.984C20.9544 19.984 20.9372 19.9643 20.9386 19.9542C20.9399 19.9411 20.9544 19.9287 20.9681 19.9127Z" fill="#E6E600"/>
</g>
<defs>
<clipPath id="clip0_5_6969">
<rect width="44" height="32" rx="7" fill="white"/>
</clipPath>
</defs>
</svg>
