<svg width="21" height="27" viewBox="0 0 21 27" fill="none" xmlns="http://www.w3.org/2000/svg">
<path fill-rule="evenodd" clip-rule="evenodd" d="M6.49592 0.583313H14.4655C17.9659 0.583313 20.7947 1.9654 20.8334 5.47873V25.0862C20.8334 25.3058 20.7817 25.5254 20.6784 25.7191C20.5105 26.0291 20.2263 26.2616 19.8776 26.365C19.5417 26.4683 19.1672 26.4166 18.8572 26.2358L10.4872 22.0508L2.10425 26.2358C1.91179 26.3379 1.69091 26.4037 1.47133 26.4037C0.747998 26.4037 0.166748 25.8096 0.166748 25.0862V5.47873C0.166748 1.9654 3.00841 0.583313 6.49592 0.583313ZM5.61758 10.4258H15.3438C15.8993 10.4258 16.3513 9.97244 16.3513 9.4054C16.3513 8.83706 15.8993 8.38498 15.3438 8.38498H5.61758C5.06217 8.38498 4.61008 8.83706 4.61008 9.4054C4.61008 9.97244 5.06217 10.4258 5.61758 10.4258Z" fill="white"/>
</svg>
