<svg width="44" height="32" viewBox="0 0 44 32" fill="none" xmlns="http://www.w3.org/2000/svg">
<g clip-path="url(#clip0_5_13037)">
<path d="M0 10.9091H44V21.0909H0V10.9091Z" fill="white"/>
<path d="M21.8414 20.2078C24.0002 20.2078 25.7503 18.4578 25.7503 16.299C25.7503 14.1402 24.0002 12.3902 21.8414 12.3902C19.6827 12.3902 17.9326 14.1402 17.9326 16.299C17.9326 18.4578 19.6827 20.2078 21.8414 20.2078Z" fill="#000088"/>
<path d="M21.8416 19.7192C23.7305 19.7192 25.2618 18.1879 25.2618 16.299C25.2618 14.4101 23.7305 12.8788 21.8416 12.8788C19.9527 12.8788 18.4214 14.4101 18.4214 16.299C18.4214 18.1879 19.9527 19.7192 21.8416 19.7192Z" fill="white"/>
<path d="M21.8418 16.9831C22.2195 16.9831 22.5258 16.6768 22.5258 16.299C22.5258 15.9212 22.2195 15.615 21.8418 15.615C21.464 15.615 21.1577 15.9212 21.1577 16.299C21.1577 16.6768 21.464 16.9831 21.8418 16.9831Z" fill="#000088"/>
<path d="M25.2092 16.915C25.3028 16.9273 25.3888 16.8615 25.4011 16.7678C25.4135 16.6742 25.3476 16.5883 25.254 16.5759C25.1604 16.5635 25.0744 16.6294 25.0621 16.723C25.0497 16.8166 25.1156 16.9026 25.2092 16.915Z" fill="#000088"/>
<path d="M21.8409 19.7192L21.9582 17.667L21.8409 16.6898L21.7236 17.667L21.8409 19.7192Z" fill="#000088"/>
<path d="M24.935 17.7664C25.0223 17.8026 25.1223 17.7612 25.1585 17.674C25.1948 17.5868 25.1534 17.4867 25.0662 17.4505C24.9789 17.4143 24.8789 17.4557 24.8427 17.5429C24.8064 17.6301 24.8478 17.7302 24.935 17.7664Z" fill="#000088"/>
<path d="M20.9547 19.6029L21.5994 17.6509L21.7393 16.6766L21.3729 17.5902L20.9547 19.6029Z" fill="#000088"/>
<path d="M24.4507 18.5169C24.5256 18.5744 24.633 18.5603 24.6905 18.4854C24.748 18.4105 24.7339 18.3032 24.6591 18.2457C24.5842 18.1881 24.4768 18.2022 24.4193 18.2771C24.3617 18.352 24.3758 18.4593 24.4507 18.5169Z" fill="#000088"/>
<path d="M20.1318 19.261L21.2594 17.5425L21.6465 16.6376L21.0563 17.4252L20.1318 19.261Z" fill="#000088"/>
<path d="M23.7881 19.1172C23.8455 19.1922 23.9529 19.2064 24.0278 19.1489C24.1028 19.0915 24.117 18.9841 24.0596 18.9092C24.0021 18.8342 23.8948 18.82 23.8198 18.8774C23.7449 18.9349 23.7306 19.0422 23.7881 19.1172Z" fill="#000088"/>
<path d="M19.4227 18.7174L20.9571 17.3494L21.5653 16.5755L20.7912 17.1835L19.4227 18.7174Z" fill="#000088"/>
<path d="M22.992 19.5242C23.0281 19.6115 23.1281 19.653 23.2154 19.6169C23.3026 19.5808 23.3441 19.4808 23.308 19.3935C23.2719 19.3062 23.1719 19.2647 23.0847 19.3008C22.9974 19.3369 22.9559 19.4369 22.992 19.5242Z" fill="#000088"/>
<path d="M18.8791 18.0092L20.7149 17.0847L21.5025 16.4945L20.5976 16.8815L18.8791 18.0092Z" fill="#000088"/>
<path d="M22.1177 19.7126C22.1299 19.8062 22.2158 19.8722 22.3094 19.8599C22.4031 19.8477 22.469 19.7618 22.4568 19.6682C22.4445 19.5745 22.3587 19.5085 22.265 19.5208C22.1714 19.5331 22.1054 19.6189 22.1177 19.7126Z" fill="#000088"/>
<path d="M18.5369 17.1839L20.5497 16.7662L21.4634 16.4001L20.4891 16.5397L18.5369 17.1839Z" fill="#000088"/>
<path d="M21.225 19.6674C21.2126 19.7611 21.2784 19.847 21.3721 19.8594C21.4657 19.8717 21.5516 19.8059 21.564 19.7123C21.5764 19.6186 21.5105 19.5327 21.4169 19.5203C21.3233 19.5079 21.2373 19.5738 21.225 19.6674Z" fill="#000088"/>
<path d="M18.421 16.299L20.473 16.4163L21.4502 16.299L20.473 16.1818L18.421 16.299Z" fill="#000088"/>
<path d="M20.3739 19.3934C20.3377 19.4806 20.3791 19.5807 20.4663 19.6169C20.5536 19.6531 20.6536 19.6117 20.6898 19.5245C20.726 19.4372 20.6847 19.3372 20.5974 19.301C20.5102 19.2648 20.4101 19.3061 20.3739 19.3934Z" fill="#000088"/>
<path d="M18.5376 15.4132L20.4895 16.058L21.4638 16.1978L20.5502 15.8314L18.5376 15.4132Z" fill="#000088"/>
<path d="M19.6231 18.9086C19.5655 18.9835 19.5796 19.0909 19.6545 19.1484C19.7295 19.206 19.8368 19.1919 19.8944 19.117C19.9519 19.042 19.9378 18.9347 19.8629 18.8771C19.788 18.8196 19.6806 18.8337 19.6231 18.9086Z" fill="#000088"/>
<path d="M18.8791 14.5889L20.5979 15.7165L21.5029 16.1036L20.7151 15.5134L18.8791 14.5889Z" fill="#000088"/>
<path d="M19.0229 18.2455C18.9479 18.3029 18.9337 18.4103 18.9912 18.4853C19.0486 18.5602 19.156 18.5744 19.2309 18.517C19.3059 18.4595 19.3201 18.3522 19.2627 18.2772C19.2052 18.2022 19.0979 18.188 19.0229 18.2455Z" fill="#000088"/>
<path d="M19.4227 13.8798L20.791 15.4143L21.565 16.0226L20.9569 15.2484L19.4227 13.8798Z" fill="#000088"/>
<path d="M18.616 17.45C18.5287 17.4861 18.4872 17.5861 18.5233 17.6734C18.5594 17.7607 18.6595 17.8022 18.7467 17.7661C18.834 17.73 18.8755 17.6299 18.8394 17.5426C18.8033 17.4554 18.7033 17.4139 18.616 17.45Z" fill="#000088"/>
<path d="M20.1311 13.3369L21.0558 15.1728L21.646 15.9605L21.2589 15.0555L20.1311 13.3369Z" fill="#000088"/>
<path d="M18.4276 16.5755C18.3339 16.5878 18.268 16.6737 18.2802 16.7673C18.2925 16.861 18.3784 16.9269 18.472 16.9147C18.5657 16.9024 18.6317 16.8165 18.6194 16.7229C18.6071 16.6292 18.5213 16.5633 18.4276 16.5755Z" fill="#000088"/>
<path d="M20.9564 12.9946L21.3741 15.0076L21.7402 15.9214L21.6007 14.9469L20.9564 12.9946Z" fill="#000088"/>
<path d="M18.4729 15.6832C18.3793 15.6709 18.2933 15.7367 18.281 15.8304C18.2686 15.924 18.3345 16.01 18.4281 16.0223C18.5217 16.0347 18.6077 15.9688 18.6201 15.8752C18.6324 15.7815 18.5665 15.6956 18.4729 15.6832Z" fill="#000088"/>
<path d="M21.8415 12.8786L21.7244 14.9309L21.8417 15.9081L21.9589 14.9309L21.8415 12.8786Z" fill="#000088"/>
<path d="M18.7471 14.8317C18.6598 14.7955 18.5597 14.8368 18.5235 14.9241C18.4873 15.0113 18.5287 15.1114 18.616 15.1476C18.7032 15.1838 18.8033 15.1424 18.8395 15.0552C18.8757 14.9679 18.8343 14.8679 18.7471 14.8317Z" fill="#000088"/>
<path d="M22.7273 12.9948L22.0826 14.947L21.9429 15.9214L22.3092 15.0077L22.7273 12.9948Z" fill="#000088"/>
<path d="M19.2319 14.0813C19.157 14.0238 19.0496 14.0378 18.9921 14.1127C18.9346 14.1877 18.9486 14.295 19.0236 14.3526C19.0985 14.4101 19.2058 14.396 19.2634 14.3211C19.3209 14.2462 19.3068 14.1388 19.2319 14.0813Z" fill="#000088"/>
<path d="M23.5517 13.3368L22.4241 15.0556L22.0371 15.9605L22.6273 15.1728L23.5517 13.3368Z" fill="#000088"/>
<path d="M19.895 13.4809C19.8376 13.4059 19.7302 13.3917 19.6552 13.4492C19.5803 13.5066 19.5661 13.614 19.6235 13.689C19.681 13.7639 19.7883 13.7781 19.8633 13.7207C19.9383 13.6632 19.9525 13.5559 19.895 13.4809Z" fill="#000088"/>
<path d="M24.2609 13.8804L22.7265 15.2487L22.1182 16.0226L22.8923 15.4146L24.2609 13.8804Z" fill="#000088"/>
<path d="M20.6902 13.0734C20.6541 12.9861 20.5541 12.9446 20.4668 12.9807C20.3795 13.0168 20.338 13.1168 20.3741 13.2041C20.4102 13.2914 20.5102 13.3329 20.5975 13.2968C20.6848 13.2607 20.7263 13.1607 20.6902 13.0734Z" fill="#000088"/>
<path d="M24.8035 14.589L22.9674 15.5135L22.1796 16.1036L23.0847 15.7166L24.8035 14.589Z" fill="#000088"/>
<path d="M21.565 12.8851C21.5527 12.7914 21.4669 12.7254 21.3732 12.7377C21.2796 12.75 21.2136 12.8358 21.2258 12.9295C21.2381 13.0231 21.324 13.0891 21.4176 13.0769C21.5113 13.0646 21.5773 12.9787 21.565 12.8851Z" fill="#000088"/>
<path d="M25.1456 15.4143L23.1325 15.8318L22.2187 16.1979L23.1932 16.0584L25.1456 15.4143Z" fill="#000088"/>
<path d="M22.4577 12.9304C22.4701 12.8367 22.4042 12.7508 22.3106 12.7384C22.2169 12.726 22.131 12.7919 22.1186 12.8855C22.1062 12.9791 22.1721 13.0651 22.2657 13.0775C22.3594 13.0899 22.4453 13.024 22.4577 12.9304Z" fill="#000088"/>
<path d="M25.262 16.2993L23.2097 16.1819L22.2324 16.2991L23.2097 16.4164L25.262 16.2993Z" fill="#000088"/>
<path d="M23.3087 13.2045C23.3449 13.1173 23.3036 13.0172 23.2163 12.981C23.1291 12.9448 23.029 12.9861 22.9928 13.0734C22.9566 13.1606 22.998 13.2607 23.0852 13.2969C23.1724 13.3331 23.2725 13.2917 23.3087 13.2045Z" fill="#000088"/>
<path d="M25.1454 17.1852L23.1933 16.5402L22.2189 16.4003L23.1325 16.7668L25.1454 17.1852Z" fill="#000088"/>
<path d="M24.0595 13.6898C24.1171 13.6149 24.103 13.5075 24.0281 13.4499C23.9532 13.3924 23.8458 13.4065 23.7883 13.4814C23.7307 13.5563 23.7448 13.6637 23.8197 13.7212C23.8946 13.7787 24.002 13.7647 24.0595 13.6898Z" fill="#000088"/>
<path d="M24.8038 18.0095L23.0852 16.8817L22.1802 16.4946L22.9679 17.0848L24.8038 18.0095Z" fill="#000088"/>
<path d="M24.6597 14.3529C24.7347 14.2955 24.7489 14.1881 24.6914 14.1132C24.634 14.0382 24.5267 14.024 24.4517 14.0814C24.3767 14.1389 24.3625 14.2462 24.4199 14.3212C24.4774 14.3962 24.5847 14.4104 24.6597 14.3529Z" fill="#000088"/>
<path d="M24.2597 18.7185L22.8916 17.1839L22.1176 16.5756L22.7257 17.3498L24.2597 18.7185Z" fill="#000088"/>
<path d="M25.0666 15.1484C25.1539 15.1123 25.1954 15.0123 25.1593 14.925C25.1232 14.8377 25.0232 14.7962 24.9359 14.8323C24.8486 14.8684 24.8071 14.9684 24.8432 15.0557C24.8793 15.143 24.9793 15.1845 25.0666 15.1484Z" fill="#000088"/>
<path d="M23.5512 19.2613L22.6268 17.4253L22.0366 16.6376L22.4236 17.5426L23.5512 19.2613Z" fill="#000088"/>
<path d="M25.255 16.0229C25.3486 16.0106 25.4146 15.9248 25.4024 15.8311C25.3901 15.7375 25.3042 15.6715 25.2106 15.6837C25.1169 15.696 25.051 15.7819 25.0632 15.8755C25.0755 15.9692 25.1613 16.0351 25.255 16.0229Z" fill="#000088"/>
<path d="M22.726 19.6035L22.3085 17.5905L21.9424 16.6767L22.0819 17.6512L22.726 19.6035Z" fill="#000088"/>
<path d="M37.125 0H6.875C2.31894 0 0 3.58182 0 8V10.9091H44V8C44 3.58182 41.6811 0 37.125 0Z" fill="#F39C12"/>
<path d="M0 24C0 28.4182 2.31894 32 6.875 32H37.125C41.6811 32 44 28.4182 44 24V21.0909H0V24Z" fill="#27AE60"/>
</g>
<defs>
<clipPath id="clip0_5_13037">
<rect width="44" height="32" rx="7" fill="white"/>
</clipPath>
</defs>
</svg>
