<svg width="40" height="40" viewBox="0 0 40 40" fill="none" xmlns="http://www.w3.org/2000/svg">
<g clip-path="url(#clip0_2_3368)">
<mask id="mask0_2_3368" style="mask-type:luminance" maskUnits="userSpaceOnUse" x="1" y="1" width="38" height="38">
<path d="M38.7457 20.0015C38.7457 24.975 36.77 29.7448 33.2532 33.2615C29.7364 36.7783 24.9667 38.754 19.9932 38.754C15.0197 38.754 10.25 36.7783 6.73317 33.2615C3.2164 29.7448 1.24069 24.975 1.24069 20.0015C1.24069 15.0281 3.2164 10.2583 6.73317 6.7415C10.25 3.22473 15.0197 1.24902 19.9932 1.24902C24.9667 1.24902 29.7364 3.22473 33.2532 6.7415C36.77 10.2583 38.7457 15.0281 38.7457 20.0015Z" fill="white"/>
</mask>
<g mask="url(#mask0_2_3368)">
<path d="M1.25 38.75L1.25 26.25H38.75V38.75H1.25Z" fill="#27AE60"/>
<path d="M1.25 26.25L1.25 13.75L38.75 13.75V26.25L1.25 26.25Z" fill="white"/>
<path d="M1.25 13.75L1.25 1.25L38.75 1.25V13.75L1.25 13.75Z" fill="#F39C12"/>
<path d="M19.9933 25.4719C23.0126 25.4719 25.4601 23.0244 25.4601 20.0051C25.4601 16.9859 23.0126 14.5383 19.9933 14.5383C16.9741 14.5383 14.5266 16.9859 14.5266 20.0051C14.5266 23.0244 16.9741 25.4719 19.9933 25.4719Z" fill="#000088"/>
<path d="M19.9933 24.7886C22.6352 24.7886 24.7768 22.647 24.7768 20.0051C24.7768 17.3633 22.6352 15.2217 19.9933 15.2217C17.3515 15.2217 15.2099 17.3633 15.2099 20.0051C15.2099 22.647 17.3515 24.7886 19.9933 24.7886Z" fill="white"/>
<path d="M19.9934 20.9617C20.5217 20.9617 20.9501 20.5334 20.9501 20.005C20.9501 19.4767 20.5217 19.0483 19.9934 19.0483C19.465 19.0483 19.0367 19.4767 19.0367 20.005C19.0367 20.5334 19.465 20.9617 19.9934 20.9617Z" fill="#000088"/>
<path d="M24.7045 20.8666C24.8355 20.884 24.9557 20.7918 24.973 20.6609C24.9903 20.5299 24.8982 20.4097 24.7672 20.3924C24.6362 20.3751 24.5161 20.4672 24.4987 20.5982C24.4814 20.7291 24.5736 20.8493 24.7045 20.8666Z" fill="#000088"/>
<path d="M19.9933 24.7885L20.1574 21.9185L19.9933 20.5518L19.8293 21.9185L19.9933 24.7885Z" fill="#000088"/>
<path d="M24.3212 22.0574C24.4432 22.108 24.5832 22.0502 24.6338 21.9282C24.6845 21.8062 24.6266 21.6662 24.5046 21.6156C24.3826 21.565 24.2426 21.6228 24.192 21.7448C24.1414 21.8668 24.1992 22.0068 24.3212 22.0574Z" fill="#000088"/>
<path d="M18.7545 24.6257L19.6563 21.8957L19.8518 20.533L19.3394 21.8107L18.7545 24.6257Z" fill="#000088"/>
<path d="M23.6425 23.1066C23.7473 23.187 23.8974 23.1674 23.9779 23.0626C24.0584 22.9579 24.0387 22.8077 23.9339 22.7272C23.8292 22.6468 23.679 22.6665 23.5986 22.7712C23.5181 22.876 23.5378 23.0261 23.6425 23.1066Z" fill="#000088"/>
<path d="M17.6017 24.1475L19.1788 21.744L19.7201 20.4785L18.8947 21.58L17.6017 24.1475Z" fill="#000088"/>
<path d="M22.7151 23.9461C22.7955 24.051 22.9456 24.0708 23.0504 23.9905C23.1553 23.9101 23.1751 23.76 23.0948 23.6552C23.0145 23.5503 22.8643 23.5305 22.7595 23.6108C22.6546 23.6911 22.6348 23.8413 22.7151 23.9461Z" fill="#000088"/>
<path d="M16.6102 23.387L18.7561 21.4737L19.6068 20.3914L18.5242 21.2417L16.6102 23.387Z" fill="#000088"/>
<path d="M21.6029 24.5154C21.6534 24.6375 21.7933 24.6955 21.9154 24.645C22.0374 24.5945 22.0954 24.4546 22.045 24.3326C21.9945 24.2105 21.8546 24.1525 21.7325 24.203C21.6105 24.2535 21.5525 24.3933 21.6029 24.5154Z" fill="#000088"/>
<path d="M15.8509 22.3966L18.4184 21.1036L19.52 20.2783L18.2544 20.8196L15.8509 22.3966Z" fill="#000088"/>
<path d="M20.38 24.7792C20.3972 24.9102 20.5172 25.0025 20.6482 24.9853C20.7792 24.9682 20.8715 24.8481 20.8543 24.7171C20.8371 24.5862 20.7171 24.4939 20.5861 24.511C20.4551 24.5282 20.3629 24.6483 20.38 24.7792Z" fill="#000088"/>
<path d="M15.3724 21.2426L18.1875 20.6585L19.4653 20.1465L18.1026 20.3416L15.3724 21.2426Z" fill="#000088"/>
<path d="M19.1319 24.7157C19.1146 24.8466 19.2067 24.9668 19.3377 24.9841C19.4686 25.0014 19.5888 24.9093 19.6061 24.7784C19.6234 24.6474 19.5313 24.5272 19.4004 24.5099C19.2694 24.4926 19.1492 24.5847 19.1319 24.7157Z" fill="#000088"/>
<path d="M15.2101 20.0048L18.0801 20.1688L19.4467 20.0048L18.0801 19.8408L15.2101 20.0048Z" fill="#000088"/>
<path d="M17.9411 24.3327C17.8905 24.4547 17.9483 24.5946 18.0703 24.6453C18.1923 24.6959 18.3322 24.6381 18.3829 24.5161C18.4335 24.3941 18.3757 24.2541 18.2537 24.2035C18.1317 24.1529 17.9917 24.2107 17.9411 24.3327Z" fill="#000088"/>
<path d="M15.3729 18.7662L18.1027 19.668L19.4654 19.8635L18.1877 19.3511L15.3729 18.7662Z" fill="#000088"/>
<path d="M16.8915 23.6549C16.8111 23.7597 16.8308 23.9098 16.9355 23.9903C17.0403 24.0708 17.1905 24.0511 17.2709 23.9463C17.3514 23.8415 17.3317 23.6914 17.2269 23.6109C17.1222 23.5304 16.972 23.5501 16.8915 23.6549Z" fill="#000088"/>
<path d="M15.8502 17.6133L18.2541 19.1903L19.5198 19.7316L18.4181 18.9063L15.8502 17.6133Z" fill="#000088"/>
<path d="M16.0518 22.7272C15.947 22.8076 15.9271 22.9577 16.0074 23.0626C16.0878 23.1674 16.2379 23.1873 16.3428 23.1069C16.4477 23.0266 16.4675 22.8764 16.3872 22.7716C16.3068 22.6667 16.1567 22.6469 16.0518 22.7272Z" fill="#000088"/>
<path d="M16.6106 16.6216L18.5243 18.7677L19.6068 19.6184L18.7563 18.5357L16.6106 16.6216Z" fill="#000088"/>
<path d="M15.4824 21.6149C15.3603 21.6654 15.3023 21.8053 15.3528 21.9274C15.4032 22.0495 15.5431 22.1075 15.6652 22.057C15.7873 22.0065 15.8453 21.8666 15.7948 21.7445C15.7443 21.6225 15.6044 21.5645 15.4824 21.6149Z" fill="#000088"/>
<path d="M17.6013 15.8622L18.8945 18.4298L19.72 19.5315L19.1786 18.2658L17.6013 15.8622Z" fill="#000088"/>
<path d="M15.2188 20.3917C15.0878 20.4089 14.9956 20.529 15.0127 20.6599C15.0299 20.7909 15.15 20.8832 15.281 20.866C15.4119 20.8489 15.5042 20.7288 15.4871 20.5978C15.4699 20.4668 15.3498 20.3745 15.2188 20.3917Z" fill="#000088"/>
<path d="M18.7556 15.3837L19.3398 18.199L19.8519 19.477L19.6567 18.1141L18.7556 15.3837Z" fill="#000088"/>
<path d="M15.2818 19.1436C15.1508 19.1263 15.0306 19.2184 15.0133 19.3494C14.996 19.4803 15.0881 19.6005 15.2191 19.6178C15.3501 19.6351 15.4703 19.543 15.4876 19.412C15.5049 19.2811 15.4127 19.1609 15.2818 19.1436Z" fill="#000088"/>
<path d="M19.9931 15.2212L19.8292 18.0915L19.9933 19.4583L20.1573 18.0915L19.9931 15.2212Z" fill="#000088"/>
<path d="M15.6651 17.9526C15.543 17.9019 15.4031 17.9598 15.3525 18.0818C15.3018 18.2038 15.3597 18.3438 15.4817 18.3944C15.6037 18.445 15.7437 18.3872 15.7943 18.2652C15.8449 18.1431 15.7871 18.0032 15.6651 17.9526Z" fill="#000088"/>
<path d="M21.232 15.3837L20.3304 18.114L20.1349 19.4768L20.6472 18.1989L21.232 15.3837Z" fill="#000088"/>
<path d="M16.3438 16.9034C16.239 16.8229 16.0889 16.8426 16.0084 16.9474C15.9279 17.0521 15.9476 17.2023 16.0524 17.2828C16.1571 17.3632 16.3073 17.3435 16.3878 17.2388C16.4682 17.134 16.4485 16.9839 16.3438 16.9034Z" fill="#000088"/>
<path d="M22.3849 15.8621L20.8079 18.2658L20.2666 19.5315L21.092 18.4298L22.3849 15.8621Z" fill="#000088"/>
<path d="M17.2711 16.0639C17.1908 15.959 17.0407 15.9391 16.9358 16.0195C16.831 16.0998 16.8111 16.25 16.8914 16.3548C16.9718 16.4597 17.1219 16.4795 17.2268 16.3992C17.3316 16.3188 17.3515 16.1687 17.2711 16.0639Z" fill="#000088"/>
<path d="M23.3766 16.6226L21.2306 18.5362L20.3799 19.6186L21.4626 18.7682L23.3766 16.6226Z" fill="#000088"/>
<path d="M18.3839 15.4939C18.3335 15.3718 18.1936 15.3137 18.0715 15.3642C17.9494 15.4147 17.8914 15.5546 17.9419 15.6767C17.9923 15.7987 18.1322 15.8568 18.2543 15.8063C18.3764 15.7558 18.4344 15.6159 18.3839 15.4939Z" fill="#000088"/>
<path d="M24.1364 17.6133L21.5686 18.9063L20.4668 19.7317L21.7326 19.1904L24.1364 17.6133Z" fill="#000088"/>
<path d="M19.6071 15.2305C19.5899 15.0995 19.4698 15.0072 19.3388 15.0244C19.2079 15.0415 19.1156 15.1616 19.1327 15.2926C19.1499 15.4236 19.2699 15.5159 19.4009 15.4987C19.5319 15.4816 19.6242 15.3615 19.6071 15.2305Z" fill="#000088"/>
<path d="M24.615 18.7678L21.7995 19.3518L20.5215 19.8638L21.8844 19.6687L24.615 18.7678Z" fill="#000088"/>
<path d="M20.8553 15.2936C20.8726 15.1627 20.7805 15.0425 20.6495 15.0251C20.5186 15.0078 20.3984 15.0999 20.381 15.2309C20.3637 15.3619 20.4558 15.4821 20.5868 15.4994C20.7178 15.5167 20.838 15.4246 20.8553 15.2936Z" fill="#000088"/>
<path d="M24.7772 20.0055L21.9069 19.8412L20.5401 20.0052L21.9069 20.1693L24.7772 20.0055Z" fill="#000088"/>
<path d="M22.0462 15.6771C22.0968 15.5551 22.039 15.4151 21.9169 15.3645C21.7949 15.3138 21.655 15.3717 21.6043 15.4937C21.5537 15.6157 21.6115 15.7557 21.7335 15.8063C21.8556 15.8569 21.9955 15.7991 22.0462 15.6771Z" fill="#000088"/>
<path d="M24.6144 21.2444L21.8842 20.3424L20.5214 20.1467L21.7992 20.6593L24.6144 21.2444Z" fill="#000088"/>
<path d="M23.0954 16.3557C23.1759 16.2509 23.1562 16.1007 23.0515 16.0203C22.9467 15.9398 22.7966 15.9595 22.7161 16.0642C22.6356 16.169 22.6553 16.3191 22.7601 16.3996C22.8648 16.4801 23.015 16.4604 23.0954 16.3557Z" fill="#000088"/>
<path d="M24.1362 22.3973L21.7325 20.82L20.4668 20.2786L21.5685 21.1041L24.1362 22.3973Z" fill="#000088"/>
<path d="M23.9351 17.2831C24.04 17.2027 24.0598 17.0526 23.9795 16.9478C23.8991 16.8429 23.749 16.823 23.6442 16.9034C23.5393 16.9837 23.5194 17.1338 23.5998 17.2387C23.6801 17.3436 23.8302 17.3634 23.9351 17.2831Z" fill="#000088"/>
<path d="M23.3758 23.3886L21.4623 21.2424L20.3799 20.3916L21.2303 21.4743L23.3758 23.3886Z" fill="#000088"/>
<path d="M24.5044 18.3958C24.6265 18.3453 24.6845 18.2055 24.6341 18.0834C24.5836 17.9613 24.4437 17.9033 24.3216 17.9538C24.1995 18.0042 24.1415 18.1441 24.192 18.2662C24.2425 18.3883 24.3824 18.4463 24.5044 18.3958Z" fill="#000088"/>
<path d="M22.385 24.1482L21.092 21.5805L20.2667 20.4788L20.808 21.7445L22.385 24.1482Z" fill="#000088"/>
<path d="M24.7678 19.6191C24.8988 19.6019 24.9911 19.4818 24.9739 19.3509C24.9568 19.2199 24.8367 19.1276 24.7057 19.1447C24.5747 19.1619 24.4825 19.282 24.4996 19.4129C24.5168 19.5439 24.6368 19.6362 24.7678 19.6191Z" fill="#000088"/>
<path d="M21.2307 24.6266L20.6467 21.8113L20.1348 20.5333L20.3298 21.8961L21.2307 24.6266Z" fill="#000088"/>
</g>
</g>
<defs>
<clipPath id="clip0_2_3368">
<rect width="40" height="40" rx="20" fill="white"/>
</clipPath>
</defs>
</svg>
