<svg width="19" height="26" viewBox="0 0 19 26" fill="none" xmlns="http://www.w3.org/2000/svg">
<path d="M9.1 0C4.069 0 0 4.069 0 9.1C0 11.362 0.65 13.481 1.833 15.392C3.068 17.394 4.693 19.11 5.941 21.112C6.552 22.087 6.994 22.997 7.462 24.05C7.8 24.765 8.073 26 9.1 26C10.127 26 10.4 24.765 10.725 24.05C11.206 22.997 11.635 22.087 12.246 21.112C13.494 19.123 15.119 17.407 16.354 15.392C17.55 13.481 18.2 11.362 18.2 9.1C18.2 4.069 14.131 0 9.1 0ZM9.1 12.675C7.306 12.675 5.85 11.219 5.85 9.425C5.85 7.631 7.306 6.175 9.1 6.175C10.894 6.175 12.35 7.631 12.35 9.425C12.35 11.219 10.894 12.675 9.1 12.675Z" fill="#022140"/>
</svg>
