<svg width="44" height="32" viewBox="0 0 44 32" fill="none" xmlns="http://www.w3.org/2000/svg">
<path d="M44 27.0769C44 28.3826 43.4849 29.6348 42.5681 30.5581C41.6512 31.4813 40.4077 32 39.1111 32H4.88889C3.59227 32 2.34877 31.4813 1.43192 30.5581C0.515078 29.6348 0 28.3826 0 27.0769V4.92308C0 3.6174 0.515078 2.36519 1.43192 1.44194C2.34877 0.51868 3.59227 0 4.88889 0H39.1111C40.4077 0 41.6512 0.51868 42.5681 1.44194C43.4849 2.36519 44 3.6174 44 4.92308V27.0769Z" fill="#00AFCA"/>
<path d="M23.2653 17.695C25.1993 17.695 26.767 16.1163 26.767 14.1689C26.767 12.2214 25.1993 10.6427 23.2653 10.6427C21.3314 10.6427 19.7637 12.2214 19.7637 14.1689C19.7637 16.1163 21.3314 17.695 23.2653 17.695Z" fill="#FFCC4D"/>
<path d="M23.2676 10.3769C23.4753 10.3744 23.5511 10.2427 23.5511 10.0864C23.5511 9.87718 23.2676 8.24518 23.2676 8.24518C23.2676 8.24518 22.9791 9.87718 22.9791 10.0864C22.9791 10.2427 23.0573 10.3769 23.2676 10.3769ZM23.2676 17.9806C23.0573 17.9818 22.9791 18.1135 22.9791 18.2698C22.9791 18.4803 23.2676 20.0901 23.2676 20.0901C23.2676 20.0901 23.5511 18.479 23.5511 18.2698C23.5523 18.1147 23.4753 17.9806 23.2676 17.9806ZM22.2886 17.8316C22.0869 17.7799 21.9806 17.887 21.9402 18.0384C21.8865 18.2403 21.741 19.8919 21.741 19.8919C21.741 19.8919 22.4389 18.3892 22.4927 18.1873C22.5342 18.0359 22.4915 17.8858 22.2886 17.8316ZM24.2441 10.4864C24.447 10.5406 24.557 10.4323 24.5973 10.2821C24.6511 10.079 24.7856 8.44826 24.7856 8.44826C24.7856 8.44826 24.0987 9.92887 24.0437 10.1332C24.0033 10.2833 24.0425 10.4323 24.2441 10.4864ZM21.3805 17.4501C21.1983 17.3479 21.0676 17.423 20.9906 17.5596C20.8867 17.7406 20.322 19.2975 20.322 19.2975C20.322 19.2975 21.3817 18.0286 21.4856 17.8476C21.5638 17.711 21.5626 17.5559 21.3805 17.4501ZM25.1559 10.8643C25.338 10.9701 25.4725 10.8938 25.5495 10.7584C25.6546 10.5763 26.2033 9.03779 26.2033 9.03779C26.2033 9.03779 25.1571 10.2895 25.052 10.4704C24.9762 10.6058 24.9762 10.7596 25.1559 10.8643ZM20.6007 16.8483C20.4516 16.7018 20.3061 16.7399 20.1961 16.8507C20.0495 16.9996 19.1035 18.3559 19.1035 18.3559C19.1035 18.3559 20.454 17.4058 20.6007 17.2593C20.7107 17.1486 20.7498 16.9959 20.6007 16.8483ZM25.9406 11.4698C26.0897 11.6187 26.2376 11.5806 26.3476 11.4698C26.4955 11.3221 27.4219 9.97687 27.4219 9.97687C27.4219 9.97687 26.0909 10.9147 25.9442 11.0636C25.8342 11.1744 25.7939 11.3221 25.9406 11.4698ZM20.0042 16.0618C19.8979 15.8821 19.7476 15.8821 19.6119 15.9596C19.431 16.0643 18.1697 17.1276 18.1697 17.1276C18.1697 17.1276 19.7182 16.5639 19.8979 16.4593C20.0336 16.3806 20.1093 16.2452 20.0042 16.0618ZM26.5431 12.2599C26.6495 12.4433 26.8035 12.4446 26.9367 12.367C27.1176 12.2612 28.3581 11.2052 28.3581 11.2052C28.3581 11.2052 26.8316 11.7627 26.6507 11.8673C26.5162 11.9461 26.4405 12.0778 26.5431 12.2599ZM19.629 15.1473C19.5728 14.9455 19.4261 14.9061 19.2758 14.9455C19.0753 14.9996 17.583 15.6987 17.583 15.6987C17.583 15.6987 19.2232 15.5572 19.4237 15.503C19.574 15.4612 19.6828 15.3516 19.629 15.1473ZM26.9208 13.1781C26.977 13.3824 27.1237 13.4243 27.274 13.3836C27.4757 13.3295 28.946 12.6329 28.946 12.6329C28.946 12.6329 27.3278 12.7732 27.1249 12.8273C26.9758 12.8667 26.867 12.9763 26.9208 13.1781ZM19.5007 14.1664C19.4982 13.9572 19.3675 13.8809 19.2122 13.8809C19.0045 13.8809 17.3838 14.1664 17.3838 14.1664C17.3838 14.1664 19.0045 14.4569 19.2122 14.4569C19.3675 14.4569 19.5007 14.3781 19.5007 14.1664ZM27.0516 14.1664C27.0528 14.3781 27.1836 14.4569 27.3388 14.4569C27.5478 14.4569 29.1465 14.1664 29.1465 14.1664C29.1465 14.1664 27.5466 13.8809 27.3388 13.8809C27.1836 13.8796 27.0516 13.9572 27.0516 14.1664ZM19.629 13.1855C19.6803 12.9824 19.574 12.8753 19.4237 12.8347C19.2232 12.7806 17.583 12.6341 17.583 12.6341C17.583 12.6341 19.0753 13.3369 19.2758 13.391C19.4261 13.4316 19.5752 13.3898 19.629 13.1855ZM26.922 15.1535C26.8682 15.3578 26.9758 15.4686 27.1249 15.5092C27.3266 15.5633 28.946 15.6987 28.946 15.6987C28.946 15.6987 27.4757 15.0058 27.2728 14.9516C27.1237 14.9123 26.9758 14.9504 26.922 15.1535ZM20.0055 12.271C20.1069 12.0889 20.0323 11.9559 19.8967 11.8784C19.717 11.7738 18.1709 11.2052 18.1709 11.2052C18.1709 11.2052 19.431 12.2723 19.6107 12.3769C19.7463 12.4556 19.9003 12.4532 20.0055 12.271ZM26.5456 16.0729C26.4405 16.2563 26.5162 16.3916 26.6507 16.4692C26.8303 16.575 28.3593 17.1276 28.3593 17.1276C28.3593 17.1276 27.1163 16.0753 26.9367 15.9695C26.8022 15.8919 26.6495 15.8919 26.5456 16.0729ZM20.6031 11.4858C20.7486 11.3356 20.7107 11.1892 20.6007 11.0784C20.4528 10.9307 19.1059 9.9781 19.1059 9.9781C19.1059 9.9781 20.0495 11.3381 20.1949 11.4858C20.3049 11.5966 20.4552 11.6359 20.6031 11.4858ZM25.9442 16.863C25.7963 17.0132 25.8342 17.1633 25.9442 17.2729C26.0909 17.4218 27.4268 18.3547 27.4268 18.3547C27.4268 18.3547 26.4955 17.0144 26.3476 16.8655C26.2376 16.7547 26.0909 16.7141 25.9442 16.863ZM21.3853 10.8839C21.5626 10.7769 21.5638 10.6255 21.4868 10.4889C21.3829 10.3079 20.3269 9.03656 20.3269 9.03656C20.3269 9.03656 20.8867 10.5959 20.9906 10.7769C21.0676 10.9135 21.2032 10.9898 21.3853 10.8839ZM25.1608 17.4698C24.9799 17.5756 24.9775 17.7295 25.0545 17.8649C25.1596 18.047 26.2082 19.2963 26.2082 19.2963C26.2082 19.2963 25.6546 17.7578 25.5507 17.5756C25.4725 17.4415 25.3405 17.3639 25.1608 17.4698ZM22.2922 10.5061C22.4927 10.4495 22.5318 10.3018 22.4927 10.1504C22.4389 9.94856 21.7447 8.44579 21.7447 8.44579C21.7447 8.44579 21.8852 10.0975 21.939 10.2993C21.9793 10.4507 22.0893 10.5603 22.2922 10.5061ZM24.2478 17.8501C24.0449 17.9067 24.0033 18.0544 24.0437 18.2058C24.0975 18.4089 24.7892 19.8895 24.7892 19.8895C24.7892 19.8895 24.6499 18.2587 24.5961 18.0569C24.557 17.9055 24.4482 17.7959 24.2478 17.8501Z" fill="#FFCC4D"/>
<path d="M26.7006 22.9465L26.6553 22.9662L26.6052 22.9736L26.5673 22.981L26.4977 22.9662L26.4671 22.9539L26.439 22.9403L26.406 22.9194L26.351 22.88L26.3009 22.8394L26.2728 22.8197L26.2373 22.805L26.2129 22.7988H26.1775L26.0393 23.088L26.0112 23.1287L25.9843 23.1619L25.9562 23.1828L25.9318 23.2037L25.8963 23.2173H25.8633L25.8328 23.2037L25.79 23.1828L25.7778 23.1619L25.7631 23.141L25.7485 23.1139L25.7338 23.0819L25.7142 22.9797L25.6739 23.013L25.636 23.061L25.5602 23.1767L25.515 23.237L25.4673 23.2837L25.4417 23.312L25.4087 23.333L25.3757 23.3477L25.3353 23.36H25.3158L25.2803 23.3674L25.2473 23.36L25.2217 23.3477L25.1435 23.253L25.0555 23.1582L24.9956 23.253L24.9259 23.333L24.8929 23.3662L24.8623 23.3994L24.8293 23.4265L24.767 23.461L24.734 23.4683H24.701L24.6729 23.461L24.646 23.4462L24.6265 23.4253L24.6008 23.3933C24.5837 23.3432 24.5654 23.2935 24.5458 23.2443L24.5385 23.2099L24.5262 23.184L24.5116 23.1705H24.4969L24.316 23.4683L24.2903 23.4942L24.2427 23.5151L24.1376 23.541H24.0752L24.0276 23.5274L24.0129 23.52L23.9933 23.4991L23.9885 23.4868V23.4597L24.0129 23.1619L23.9933 23.1693L23.9408 23.1951C23.8927 23.2456 23.8458 23.2973 23.8002 23.3502L23.7403 23.4253L23.6658 23.488L23.5961 23.541L23.557 23.5631L23.4763 23.5754L23.4433 23.568L23.4287 23.5631L23.4152 23.5483L23.4079 23.5274V23.5065L23.4152 23.4203L23.436 23.2837L23.4226 23.2037L23.3945 23.157L23.3541 23.2173L23.2881 23.3047C23.2332 23.3649 23.1769 23.424 23.1195 23.4819C23.0873 23.5033 23.0559 23.5259 23.0253 23.5496L22.952 23.5754L22.9373 23.568H22.9166L22.9019 23.5557L22.897 23.5483L22.8823 23.5274L22.8775 23.5065V23.4807L22.8701 23.4462L22.8775 23.1902C22.7552 23.2739 22.6318 23.3551 22.5071 23.4327L22.4607 23.4536L22.4081 23.4807C22.358 23.493 22.3091 23.5053 22.2602 23.52H22.2113L22.1661 23.5139L22.1246 23.4991L22.1453 23.445L22.1857 23.3502L22.2113 23.3108L22.2407 23.2702L22.2663 23.2296L22.3348 23.1619L22.4093 23.109L22.4949 23.0536L22.5829 23.013L22.6843 22.9797L22.7846 22.9539L23.0131 22.9133L23.1268 22.8985C23.4641 22.8788 23.8027 22.8763 24.14 22.8788L24.5103 22.8579L24.6252 22.8443L24.8379 22.8037L24.9406 22.7754L25.0359 22.736L25.1239 22.6954C25.1703 22.6585 25.218 22.6216 25.2669 22.5871L25.3317 22.5108L25.262 22.3767L25.317 22.3693L25.3696 22.357L25.4246 22.3299L25.4698 22.2954L25.4893 22.2831L25.5113 22.2622L25.526 22.2351L25.5407 22.2154L25.5456 22.1883V22.1416L25.5309 22.1145L25.6458 22.0936L25.768 22.08L25.8963 22.0727H26.0296C26.2166 22.08 26.4023 22.0911 26.5881 22.1059C26.8692 22.1403 27.1516 22.1674 27.4339 22.1945L27.6869 22.208V22.3016L27.682 22.3434L27.6673 22.3828L27.6551 22.4234L27.6405 22.4567L27.6209 22.4837C27.5977 22.5108 27.572 22.5379 27.5463 22.5637L27.4865 22.6031L27.4217 22.6302L27.3569 22.645L27.2823 22.6585L27.1393 22.645L27.0648 22.624L27 22.5896L26.9303 22.5563L26.8778 22.5083L26.8252 22.4554V22.5711C26.8155 22.6462 26.8032 22.72 26.7922 22.7951L26.7666 22.8653L26.7519 22.8936L26.7323 22.9133L26.7177 22.9342L26.7006 22.9465ZM21.3008 22.3102L21.4536 22.3779C21.4841 22.3522 21.5155 22.3276 21.5477 22.304L21.6076 22.272L21.6613 22.2376L21.863 22.1563L22.0366 22.0751L22.1246 22.0419L22.2737 21.9619L22.3336 21.92C22.4851 21.8203 22.6379 21.7219 22.7907 21.6247L22.9239 21.5299L23.0253 21.4487C23.1256 21.3576 23.2233 21.2653 23.3211 21.1717L23.3615 21.1447L23.4079 21.1176C23.4635 21.0893 23.5198 21.0622 23.5766 21.0363L23.6902 20.997C23.9176 20.9342 24.1486 20.885 24.3808 20.848C24.6179 20.8197 24.855 20.7877 25.0921 20.7607L25.4075 20.7065C25.4857 20.6843 25.5639 20.6647 25.6433 20.6462L25.724 20.544L25.8536 20.4025L25.9416 20.3151L26.0393 20.2327L26.1542 20.1453L26.2875 20.0567L26.4903 19.936C26.6358 19.8622 26.78 19.7883 26.9242 19.712C27.1809 19.5914 27.4339 19.4634 27.6857 19.333L27.8055 19.2517L27.8385 19.1496L27.8861 19.0499L27.946 18.9477L28.1012 18.7385C28.1721 18.6622 28.2406 18.5859 28.309 18.5071C28.3921 18.4259 28.4777 18.3471 28.5645 18.2708L28.694 18.1637L28.7588 18.1157L28.8285 18.069C28.8773 18.0407 28.9262 18.0136 28.9763 17.9877L29.0509 17.9533L29.123 17.9274L29.2807 17.8856L29.3589 17.8807L29.4335 17.8733L29.5117 17.8807L29.5862 17.893L29.5813 17.9742L29.5618 18.0542L29.5019 18.224L29.4518 18.3114L29.3919 18.4L29.3186 18.4936L29.2306 18.5883L29.3002 18.581L29.3601 18.5674L29.4078 18.5527L29.453 18.533L29.541 18.5059L29.6669 18.4923L29.6742 18.5403V18.5871L29.6669 18.6339L29.6547 18.6745L29.6351 18.7151L29.607 18.7557L29.5813 18.7877L29.5483 18.8222C29.456 18.9119 29.3619 18.9997 29.266 19.0856L29.3455 19.093C29.4041 19.1114 29.4628 19.1299 29.5227 19.1459L29.5875 19.1607L29.5092 19.2222C29.4472 19.264 29.3845 19.3046 29.321 19.344L29.1059 19.4659L28.9983 19.5336L28.8908 19.6087L28.7906 19.6899L28.8358 19.696L28.8981 19.7231L28.925 19.7305L28.9507 19.744L28.9727 19.7502L28.9922 19.744L28.859 19.8191C28.7757 19.8585 28.693 19.8991 28.6109 19.941L28.5082 20.0025L28.4887 20.0234L28.4765 20.0443L28.4618 20.064L28.4667 20.0911L28.4813 20.112L28.507 20.1317L28.5315 20.1539L28.5217 20.1797L28.507 20.2019L28.4813 20.2216L28.4569 20.2425L28.3921 20.2745L28.3139 20.309L28.1611 20.3631L28.0658 20.4111L28.199 20.5453L28.1513 20.592L28.1061 20.6265L28.0658 20.6474L28.0181 20.6671L27.9252 20.6807H27.7932L27.8079 20.7422L27.8275 20.8025L27.8556 20.9391C27.7722 21.0044 27.6871 21.0671 27.6001 21.1274L27.4449 21.2283L27.2726 21.3293L27.1699 21.3773L27.0697 21.424C26.9565 21.4683 26.842 21.5089 26.7262 21.5459L26.4659 21.6013L26.3229 21.6222C26.4781 21.6271 26.6333 21.6296 26.7886 21.6283L27.1699 21.5877L27.3373 21.5545L27.4852 21.5139C27.583 21.4807 27.6783 21.4437 27.7737 21.4056L27.9595 21.3194L28.1428 21.2173L28.3151 21.1077L28.4985 21.0007L28.3885 20.9465L28.2833 20.9133L28.2332 20.8899C28.1953 20.8714 28.1575 20.853 28.1183 20.837L28.056 20.8025L28.1086 20.7631L28.1733 20.736L28.243 20.7102C28.3237 20.6905 28.4056 20.672 28.4862 20.6548C28.5913 20.6437 28.6965 20.6302 28.8016 20.6154L28.9348 20.6019L29.0375 20.576L29.0643 20.5613L29.0839 20.5403L29.079 20.533L29.0643 20.5194L29.0448 20.512L29.0191 20.4997L28.9446 20.485L28.8492 20.4714L28.7563 20.464L28.6635 20.4505L28.5803 20.4296L28.5302 20.4087L29.1866 20.261L29.3015 20.2265C29.3516 20.208 29.4005 20.1871 29.4493 20.1662L29.5141 20.1243L29.5422 20.0985L29.5349 20.0923L29.5227 20.0776L29.4603 20.064L29.3748 20.0567H29.2721C29.2025 20.0517 29.134 20.0468 29.0643 20.0443L28.9788 20.0296L28.9238 20.016L29.0191 19.9767C29.1609 19.9323 29.3051 19.8917 29.4493 19.8536C29.5312 19.8253 29.6143 19.797 29.6975 19.7723L29.8246 19.7182L29.8845 19.685L29.9395 19.6517L29.959 19.6308L29.9798 19.6037L29.9993 19.584L30.0067 19.5631L29.9993 19.5422L29.9798 19.5274L29.959 19.5225H29.7732L29.6852 19.5274H29.5655L29.53 19.5225L29.5068 19.5077L29.4775 19.4942C29.7219 19.3317 29.9688 19.1705 30.2169 19.013L30.41 18.8776C30.4621 18.8342 30.513 18.7894 30.5628 18.7434L30.6227 18.6757L30.6777 18.608L30.718 18.5342L30.751 18.4603L30.7706 18.3779V18.2905H30.7253L30.6777 18.2979L30.5726 18.3373C30.4795 18.3962 30.3849 18.4529 30.289 18.5071L30.2365 18.5416L30.1741 18.5674L30.1142 18.5883L30.0592 18.6019L30.0067 18.6093H29.9443L29.8918 18.5883L30.0543 18.4665C30.1851 18.3545 30.3147 18.2413 30.443 18.128C30.5849 17.9915 30.7234 17.8516 30.8586 17.7083L31.0517 17.4917C31.1091 17.4154 31.1678 17.3416 31.2277 17.2677C31.2753 17.1988 31.323 17.1287 31.3682 17.0585L31.3829 17.0327L31.3878 17.0117L31.3829 16.9834L31.3756 16.9637L31.3682 16.9416L31.3487 16.928L31.3279 16.9071L31.3083 16.8997L31.2827 16.8874L31.2533 16.88H31.2008L31.1751 16.8874L31.1397 16.8923L31.1201 16.9145L31.092 16.9354C30.9551 17.0733 30.8195 17.2136 30.6862 17.3551L30.5237 17.5102C30.4169 17.6039 30.3094 17.6966 30.201 17.7883C30.15 17.8231 30.0983 17.8568 30.0458 17.8893L29.8979 17.9643L29.9431 17.9237C29.992 17.877 30.0397 17.8302 30.0861 17.7822C30.2585 17.5828 30.4235 17.376 30.5823 17.1668L30.8928 16.7274L30.9759 16.5797L31.059 16.4443L31.1262 16.3213L31.1788 16.2056L31.2118 16.112L31.2191 16.0788V16.0247L31.2118 16.0037L31.1873 15.9631L31.1727 15.9496L31.1507 15.9434L31.1128 15.9213L31.0627 15.9077H30.971L30.9453 15.9151L30.9258 15.9213L30.8977 15.936L30.8781 15.9557L30.8231 16.0037C30.7628 16.0768 30.7046 16.1515 30.6483 16.2277C30.5139 16.4394 30.3721 16.6462 30.2255 16.8493L30.0556 17.0523L29.97 17.141L29.8771 17.2222L29.9969 16.997L30.1851 16.5994L30.3073 16.309L30.3599 16.16L30.4528 15.8548C30.476 15.7563 30.4968 15.6579 30.5151 15.5582C30.5237 15.4659 30.531 15.3736 30.5371 15.28L30.5273 15.2123L30.5225 15.152L30.5151 15.0893L30.4956 15.0105L30.4809 14.9883L30.4479 14.9551L30.4027 14.9354L30.3526 14.9207H30.3073L30.2646 14.928L30.2523 14.9354L30.2328 14.9403L30.2255 14.9551C30.1045 15.3391 30.0128 15.7305 29.9077 16.1182C29.8686 16.2265 29.8295 16.3348 29.7879 16.4431L29.6877 16.6388L29.6253 16.7262L29.6657 16.5317C29.6852 16.4185 29.7023 16.3065 29.7182 16.1933L29.7463 15.9151L29.7537 15.7994C29.75 15.7407 29.7451 15.682 29.739 15.6234L29.7268 15.5557L29.7072 15.5016L29.6791 15.461L29.6645 15.4474L29.6241 15.4339L29.6046 15.4265H29.5826L29.563 15.4339L29.508 15.4474L29.4555 15.4745C29.4139 15.6837 29.3638 15.8917 29.3076 16.0973C29.2275 16.3565 29.1337 16.6113 29.0265 16.8603C28.954 17.0134 28.8774 17.1645 28.7967 17.3133L28.6488 17.5705L28.4887 17.813C28.3813 17.9643 28.27 18.1129 28.155 18.2585C28.0426 18.3865 27.9277 18.512 27.8116 18.6376C27.6906 18.757 27.5671 18.8751 27.4412 18.9908C27.3117 19.0991 27.1809 19.2037 27.0477 19.3071C26.8852 19.4254 26.7189 19.5383 26.549 19.6456L26.2532 19.8203L25.7827 20.0382L25.2987 20.213L24.8978 20.336L24.4822 20.4296L24.2745 20.464L23.8491 20.5182L23.634 20.5317L23.6132 20.5391L23.5925 20.5453L23.5521 20.5674L23.5069 20.5994C23.4543 20.6456 23.4025 20.6928 23.3517 20.741L23.2441 20.8505L22.8542 21.2887L22.7063 21.4376L22.5328 21.5717L22.4643 21.6185L22.3971 21.6603L22.2505 21.728C22.0231 21.8216 21.7921 21.9065 21.5636 21.9988L21.5037 22.032L21.4499 22.0603L21.4108 22.0862L21.3362 22.1613L21.3155 22.1945L21.3008 22.2277L21.2959 22.2757V22.3102" fill="#FFCC4D"/>
<path d="M23.761 22.6143L23.8734 22.6291L23.9284 22.65L23.9406 22.6561V22.6635H23.9284L23.9137 22.6697L23.8062 22.6906H23.7206L23.4395 22.6697L22.727 22.6561C22.5387 22.6586 22.3505 22.6635 22.1623 22.6697C21.9961 22.682 21.8311 22.6955 21.6648 22.7103L21.5365 22.7312L21.4228 22.7571C21.396 22.7669 21.3703 22.7768 21.3434 22.7841L21.3092 22.7989L21.2823 22.8198L21.2945 22.7509L21.3238 22.682L21.2297 22.7091L21.1491 22.7497L21.1173 22.7706L21.0892 22.7977L21.0684 22.8297L21.0635 22.8641L21.044 22.8174L21.0293 22.7755C21.0257 22.7462 21.0208 22.717 21.0146 22.6881C21.022 22.6524 21.0293 22.6168 21.0342 22.5811L21.0562 22.5466L21.0684 22.5195L21.0965 22.4875L21.1503 22.4334L21.2236 22.3854L21.3067 22.3386C21.3505 22.3644 21.3973 22.3847 21.4461 22.3989C21.4942 22.4033 21.5426 22.3987 21.5891 22.3854C21.6636 22.4518 21.8567 22.4383 21.8836 22.3177C21.894 22.2732 21.894 22.2268 21.8836 22.1823L21.9643 22.1761L22.0584 22.1614L22.2662 22.1072L22.375 22.0863L22.4752 22.0604L22.5693 22.0469L22.6487 22.0395L22.6157 22.0678L22.441 22.202L22.375 22.2488L22.4605 22.2709L22.5351 22.2845L22.3762 22.4666L22.3346 22.5208L22.3872 22.5417L22.441 22.5564L22.5021 22.57H22.6231L22.7428 22.5429L22.7905 22.5146L22.8455 22.5429L22.8993 22.5638C22.9335 22.5737 22.969 22.5835 23.0044 22.5909C23.0875 22.5995 23.1706 22.6094 23.255 22.6168H23.761M23.1486 20.5589L23.0887 20.6808L23.0203 20.8371C22.9851 20.9007 22.9521 20.9656 22.9213 21.0315L22.8871 21.066L22.8076 20.9983L22.7196 20.9368L22.6255 20.8888L22.5265 20.8494L22.3102 20.794L22.2038 20.7743C22.0876 20.7607 21.971 20.7496 21.8543 20.7411C21.6997 20.7386 21.5452 20.7312 21.3911 20.7189L21.176 20.6931L21.055 20.6721L20.9413 20.6463L20.8215 20.6045L20.7201 20.5515L20.6455 20.5023L20.4915 20.3878C20.2666 20.1749 20.0442 19.9595 19.8132 19.7515L19.68 19.658L19.6188 19.6309L19.5553 19.6112L19.4416 19.5854C19.3752 19.5615 19.3084 19.5389 19.2412 19.5177C19.1786 19.4873 19.1154 19.4582 19.0517 19.4303C18.9409 19.3611 18.8336 19.2864 18.7303 19.2063L18.6631 19.1435L18.5298 19.0094L18.4015 18.8678C18.1901 18.6081 17.9908 18.3398 17.7843 18.0764C17.6855 17.9708 17.5849 17.867 17.4824 17.7651L17.3956 17.6851L17.3076 17.6112L17.1145 17.4697L17.095 17.4758L17.073 17.4968L17.0522 17.5238C17.04 17.5546 17.0302 17.5866 17.0204 17.6186L17.0131 17.6457L16.9642 17.6235L16.9238 17.6026L16.875 17.5817L16.8346 17.5681H16.7478L16.7002 17.5817L16.6537 17.6026C16.6904 17.6494 16.7258 17.6961 16.7601 17.7441L16.82 17.8389L16.9287 18.0481L16.9678 18.1503L16.9825 18.2044L16.9972 18.2451L17.0033 18.2918V18.3312H16.6415L16.6941 18.4124C16.7344 18.4678 16.7772 18.522 16.82 18.5749L17.0424 18.7989L17.117 18.8592L17.1854 18.9072C17.1273 18.9134 17.069 18.9183 17.0106 18.922L16.8346 18.9417L16.8945 18.9971C16.9471 19.034 16.9984 19.0721 17.0497 19.1115L17.1365 19.1718L17.2245 19.226L17.3113 19.274L17.392 19.3011L17.4665 19.3208L17.5264 19.3343L17.546 19.3417L17.5606 19.3565L17.5655 19.3626V19.3884L17.546 19.4438L17.5411 19.4832L17.5325 19.5103V19.53L17.5411 19.5644L17.546 19.5915L17.5606 19.6038L17.5802 19.6186L17.6058 19.6321L17.6401 19.6395L17.7085 19.6666L17.7415 19.6789L17.7684 19.6998L17.7745 19.7072V19.7208L17.7684 19.7281L17.7146 19.7675L17.6877 19.7946L17.6608 19.8278V19.8561L17.6547 19.8832L17.6682 19.9558L17.9028 20.0371L17.9566 20.0494L18.0104 20.0715L18.0507 20.0924L18.085 20.1134L17.8625 20.2894L17.9224 20.3435L17.997 20.3841L18.0911 20.4309C18.1583 20.4555 18.2255 20.4777 18.294 20.4998L18.3942 20.5195L18.4822 20.5405H18.5616L18.4871 20.5946L18.393 20.6549L18.2927 20.7103L18.2182 20.7644L18.2854 20.8112C18.4895 20.9171 18.6985 21.0155 18.9112 21.1029C19.2827 21.2555 19.6628 21.3884 20.0454 21.5078C20.131 21.5288 20.2153 21.5509 20.2996 21.5755L20.4072 21.5964L20.1908 21.5755C20.0564 21.558 19.9223 21.5375 19.7887 21.514L19.6005 21.4734L19.2302 21.3663L19.0566 21.3048C18.5922 21.1226 18.1387 20.9134 17.6731 20.7361L17.7073 20.7164L17.8014 20.682L17.8613 20.6685C17.9432 20.6438 18.0226 20.6168 18.1033 20.5872C17.9433 20.5628 17.7839 20.5341 17.6254 20.5011C17.5433 20.4742 17.4605 20.4491 17.3773 20.426L17.3296 20.4051L17.2893 20.3841L17.2563 20.362L17.2343 20.3423V20.3361L17.2416 20.3288L17.2624 20.3214L17.282 20.3078L17.3357 20.2869L17.5704 20.218L17.7061 20.1712C17.5117 20.1343 17.3162 20.1011 17.1206 20.0703L17.0265 20.0481L16.952 20.0223L16.9251 20.0075L16.8994 19.9866L16.8774 19.9743L16.864 19.9521L16.8847 19.9386L16.9446 19.9251C17.007 19.9152 17.0705 19.9041 17.1328 19.8918L17.2404 19.8783C17.3015 19.8611 17.3614 19.8426 17.4213 19.8229L17.4494 19.8032L17.4763 19.7811L17.37 19.7405L17.3015 19.7281L17.2343 19.7134L16.9263 19.6728L16.8456 19.6531L16.7711 19.6383L16.6232 19.5854L16.5547 19.5509L16.4997 19.5115L16.446 19.4635L16.4056 19.4032L16.4203 19.3958L16.446 19.3884H16.4802L16.534 19.3958L16.7894 19.4094L16.9385 19.4241H17.1255L17.1781 19.4168L17.2196 19.4032L17.2465 19.3884C17.1201 19.3366 16.9946 19.2824 16.8701 19.226C16.7877 19.1839 16.7046 19.1433 16.6207 19.1041L16.3665 18.97L16.2455 18.8949C16.171 18.8419 16.0972 18.7877 16.0243 18.7325L15.9302 18.6512L15.8886 18.6044L15.8471 18.5638L15.8214 18.5232L15.7933 18.4752L15.7664 18.4358L15.7517 18.3891L15.7407 18.3017H15.786L15.8397 18.3078L15.8935 18.33L15.9473 18.3497L16.0536 18.4174L16.1746 18.4851L16.2284 18.5195L16.2883 18.5515L16.3482 18.5786L16.402 18.5995L16.4618 18.6143L16.5156 18.6204H16.5767L16.6293 18.5995L16.4704 18.4764C16.3388 18.3664 16.2088 18.2544 16.0805 18.1404C15.8678 17.9365 15.6635 17.7238 15.4682 17.5029L15.3826 17.3884L15.2946 17.2801C15.2464 17.2107 15.1991 17.1405 15.1528 17.0697L15.1406 17.0426V16.9958L15.1467 16.9749L15.1528 16.9552L15.1736 16.9417L15.1932 16.9208L15.2152 16.906L15.2408 16.8986L15.2677 16.8937H15.3215L15.3545 16.8986L15.3838 16.906L15.4095 16.9269C15.555 17.0721 15.698 17.2186 15.8385 17.3675C15.9937 17.5177 16.1551 17.6629 16.3225 17.8008L16.4765 17.9004L16.556 17.9423L16.6305 17.9681L16.578 17.9349L16.4374 17.7934C16.2651 17.594 16.1013 17.3872 15.94 17.178C15.8689 17.0797 15.7992 16.9804 15.731 16.8801C15.6701 16.7821 15.6073 16.6853 15.5427 16.5897C15.4915 16.5051 15.4422 16.4193 15.3948 16.3324C15.3676 16.2622 15.3391 16.1924 15.3093 16.1232L15.3007 16.09V16.0346L15.3093 16.0149L15.335 15.9743L15.3496 15.9595L15.3704 15.9472L15.4572 15.9189H15.5513L15.5782 15.9251L15.5977 15.9324L15.6246 15.9472L15.6992 16.0149L15.874 16.2389C16.0108 16.4506 16.1551 16.6574 16.3042 16.8605L16.4631 17.0635L16.5511 17.1509L16.6452 17.2321C16.5381 17.0276 16.4354 16.8208 16.3372 16.6118C16.2956 16.5155 16.2553 16.4187 16.2162 16.3214L16.1624 16.1725C16.134 16.0698 16.1026 15.968 16.0683 15.8672L16.0353 15.7183L16.0108 15.5669L15.9962 15.4254L15.9901 15.2912L15.9962 15.2235L16.0047 15.162L16.0108 15.1004L16.0243 15.0401L16.0377 15.018L16.0451 14.9983L16.0646 14.9761L16.0781 14.9638L16.1245 14.9429L16.1722 14.9306H16.2186L16.259 14.938L16.2785 14.9429L16.2932 14.9503L16.3005 14.9651L16.3078 14.9848C16.4227 15.3626 16.5168 15.7466 16.6158 16.1294C16.655 16.2365 16.6953 16.3423 16.7381 16.4469L16.7845 16.5478L16.8383 16.6426L16.8982 16.7374L16.8591 16.5404C16.8437 16.428 16.8258 16.316 16.8053 16.2044C16.7919 16.0738 16.7809 15.9429 16.7723 15.8118L16.7857 15.6358L16.7992 15.5669L16.82 15.514L16.8468 15.4734L16.8603 15.4586L16.8798 15.4451L16.8994 15.4389H16.9605L17.0155 15.4586L17.0681 15.4857L17.1622 15.9115C17.1964 16.0408 17.2343 16.17 17.2758 16.2968C17.3443 16.49 17.4188 16.682 17.4983 16.8715L17.5924 17.0672L17.7268 17.3257L17.8735 17.5817L18.0361 17.8254L18.2096 18.0678L18.3722 18.2709C18.4846 18.3989 18.5983 18.5257 18.7144 18.65C18.8354 18.7694 18.9588 18.8863 19.0847 19.0008L19.2791 19.1645C19.4575 19.3048 19.6408 19.4377 19.8303 19.5632C19.9782 19.6518 20.1285 19.738 20.2801 19.8204L20.7421 20.0445C20.9767 20.138 21.2138 20.2241 21.4534 20.3005C21.6881 20.3632 21.9264 20.4174 22.166 20.4629C22.4874 20.5146 22.8174 20.5454 23.1486 20.5589Z" fill="#FFCC4D"/>
<path d="M4.22545 28.9503C4.22545 28.9503 3.93578 29.1927 3.838 29.0709C3.68034 28.874 4.32322 27.8906 4.32322 27.5435C4.32322 26.9761 3.94556 26.8186 3.48111 26.7386C3.16822 26.6844 2.661 26.762 2.661 26.762C2.75634 26.8912 2.81867 26.9318 2.98 26.9392C2.86884 26.9981 2.77613 27.0869 2.71224 27.1958C2.64835 27.3047 2.6158 27.4294 2.61822 27.5558C2.61822 28.0432 2.81867 28.2451 2.81867 28.7977C2.81867 29.1041 2.56934 29.4931 2.56934 29.4931C3.00934 29.4487 3.22934 29.0389 3.10467 28.7091C3.13835 28.7027 3.17305 28.7047 3.20582 28.7147C3.2386 28.7248 3.26847 28.7427 3.29289 28.7669C3.32467 28.6771 3.27456 28.57 3.20611 28.4801C3.26111 28.4518 3.30145 28.4691 3.38822 28.4863C3.37967 28.3927 3.32345 28.2943 3.18778 28.2007C3.58378 28.3029 3.827 28.026 3.827 27.7355C3.827 27.514 3.67422 27.3564 3.52389 27.3564C3.46695 27.3583 3.41159 27.3757 3.36378 27.4069C3.33567 27.3478 3.35034 27.2666 3.37845 27.2063C3.26967 27.2346 3.2 27.2998 3.25011 27.4377C3.21284 27.4383 3.17609 27.4467 3.14222 27.4624C3.10834 27.4781 3.07807 27.5007 3.05334 27.5287C3.07672 27.5583 3.10679 27.5817 3.14102 27.5972C3.17526 27.6126 3.21267 27.6195 3.25011 27.6174C3.189 27.7454 3.25745 27.818 3.35645 27.8746C3.35645 27.8746 3.29289 27.6174 3.45545 27.6174C3.52878 27.6174 3.59478 27.6432 3.59478 27.7503C3.59478 27.8426 3.51289 27.9731 3.32467 27.9657C3.13522 27.9571 2.98245 27.834 2.98245 27.5324C2.98245 27.2506 3.20611 27.1115 3.50067 27.1029C3.76711 27.0943 3.96756 27.2395 3.96756 27.5164C3.96756 27.8832 3.43956 28.7226 3.43956 29.05C3.43956 29.2961 3.65834 29.4327 3.87345 29.4327C4.15211 29.4327 4.38678 29.1546 4.38678 29.1546L4.22545 28.9503ZM4.16434 22.3017C4.16434 21.6887 4.71189 21.3724 5.14211 21.3724C5.72145 21.3724 6.03067 21.722 6.03067 22.1774C6.03067 22.4383 5.983 22.6007 5.86445 22.8481L4.53589 25.626C4.48727 25.7426 4.46594 25.8689 4.47356 25.9952C4.47356 26.2438 4.71434 26.4481 4.96611 26.4543C5.19467 26.4604 5.44522 26.2389 5.44522 25.9866C5.44522 25.6801 5.28878 25.5447 5.12622 25.5447C4.927 25.5447 4.84756 25.626 4.84756 25.7675C4.84756 25.8672 4.89522 25.9091 4.96245 25.9091C5.13356 25.9091 5.08589 25.6777 5.08589 25.6777C5.10866 25.6824 5.13011 25.6922 5.14873 25.7062C5.16734 25.7203 5.18267 25.7383 5.19363 25.7589C5.20459 25.7796 5.21091 25.8024 5.21214 25.8258C5.21338 25.8492 5.2095 25.8726 5.20078 25.8943C5.26479 25.9078 5.32269 25.942 5.36578 25.9915C5.32177 26.0387 5.26398 26.0706 5.20078 26.0826C5.24111 26.2155 5.18734 26.2807 5.07245 26.3091C5.09225 26.2643 5.0978 26.2144 5.08834 26.1663C4.90622 26.218 4.62756 26.1367 4.62756 25.8192C4.62756 25.5041 4.84389 25.2395 5.25089 25.3047C5.15311 25.2604 5.10545 25.1657 5.09567 25.0574C5.169 25.0881 5.25089 25.0918 5.25089 25.0918C5.20322 25.0081 5.13722 24.9355 5.13967 24.7681C5.21545 24.8038 5.28511 24.8666 5.38167 24.826C5.23011 24.5269 5.41589 24.1158 5.89011 24.0161C5.72913 24.1924 5.63745 24.4217 5.63222 24.6611C5.63222 25.3749 5.83022 25.4931 5.83022 25.9878C5.82694 26.1032 5.79668 26.2161 5.74189 26.3175C5.68709 26.4189 5.60932 26.5058 5.51489 26.5712V26.5626C5.65178 26.5995 5.741 26.6697 5.79234 26.762C5.47578 26.8518 5.015 26.8506 4.76934 26.7534C4.65798 26.7371 4.55161 26.6961 4.45796 26.6333C4.3643 26.5705 4.28571 26.4875 4.22789 26.3903C4.16815 26.2516 4.13732 26.1021 4.13732 25.9509C4.13732 25.7997 4.16815 25.6502 4.22789 25.5115C4.41611 25.1164 5.30345 23.2223 5.57967 22.6254C5.6406 22.4987 5.67275 22.3599 5.67378 22.2192C5.67378 21.8561 5.34256 21.7281 5.15434 21.7281C4.92822 21.7281 4.69845 21.9029 4.69845 22.1171C4.69845 22.2549 4.773 22.3361 4.87811 22.3361C5.13356 22.3361 5.11767 22.1183 5.06634 21.9804C5.224 22.0543 5.31689 22.1798 5.29122 22.3152C5.38167 22.3275 5.46723 22.3706 5.54545 22.4592C5.48311 22.5404 5.40734 22.5995 5.29122 22.6007C5.34256 22.81 5.20322 22.8986 5.06634 22.9466C5.10911 22.794 5.13722 22.6155 4.87811 22.6155C4.68867 22.6155 4.53956 22.5823 4.45278 22.458C4.44667 22.6241 4.43078 23.2764 4.43078 23.2764C4.421 23.5226 4.75711 23.5152 4.971 23.4426C4.88911 23.7257 4.72411 23.8795 4.33911 23.8401C4.39808 23.863 4.44843 23.9039 4.48308 23.9571C4.51772 24.0104 4.53491 24.0732 4.53222 24.1367C4.53222 24.3681 4.34645 24.6229 4.22545 24.6992L4.16434 22.3017Z" fill="#FFCC4D"/>
<path d="M4.28528 22.3017C4.28528 21.6887 3.73772 21.3724 3.3075 21.3724C2.72817 21.3724 2.41895 21.722 2.41895 22.1774C2.41895 22.4383 2.46661 22.6007 2.58517 22.8481L3.91372 25.626C3.96193 25.7427 3.98284 25.869 3.97483 25.9952C3.97483 26.2438 3.73406 26.4481 3.4835 26.4543C3.25372 26.4604 3.00439 26.2389 3.00439 25.9866C3.00439 25.6801 3.16083 25.5447 3.32339 25.5447C3.52261 25.5447 3.60206 25.626 3.60206 25.7675C3.60206 25.8672 3.55439 25.9091 3.48717 25.9091C3.31606 25.9091 3.36372 25.6777 3.36372 25.6777C3.34095 25.6825 3.3195 25.6922 3.30089 25.7062C3.28227 25.7203 3.26694 25.7383 3.25598 25.7589C3.24503 25.7796 3.23871 25.8024 3.23747 25.8258C3.23624 25.8492 3.24011 25.8726 3.24883 25.8943C3.18483 25.9078 3.12692 25.942 3.08383 25.9915C3.12785 26.0387 3.18563 26.0706 3.24883 26.0826C3.20972 26.2155 3.2635 26.2807 3.37839 26.3078C3.35859 26.263 3.35304 26.2132 3.3625 26.1651C3.54461 26.2167 3.82328 26.1355 3.82328 25.818C3.82328 25.5029 3.60695 25.2383 3.20117 25.3035C3.29772 25.2592 3.34661 25.1644 3.35517 25.0561C3.30589 25.0755 3.25395 25.0871 3.20117 25.0906C3.24761 25.0069 3.31361 24.9343 3.31117 24.7669C3.23539 24.8026 3.16695 24.8654 3.06917 24.8247C3.22072 24.5257 3.03495 24.1146 2.56072 24.0149C2.7217 24.1911 2.81339 24.4204 2.81861 24.6598C2.81861 25.3737 2.62183 25.4918 2.62183 25.9866C2.62183 26.1934 2.72817 26.4186 2.93717 26.57V26.5614C2.87963 26.5732 2.82521 26.597 2.77741 26.6314C2.72962 26.6657 2.68952 26.7098 2.65972 26.7607C2.97628 26.8506 3.43583 26.8494 3.68272 26.7521C3.79408 26.7359 3.90045 26.6949 3.9941 26.6321C4.08776 26.5693 4.16635 26.4863 4.22417 26.3891C4.28391 26.2504 4.31474 26.1008 4.31474 25.9497C4.31474 25.7985 4.28391 25.649 4.22417 25.5103C4.03595 25.1152 3.14861 23.2211 2.87239 22.6241C2.81146 22.4975 2.77931 22.3587 2.77828 22.218C2.77828 21.8549 3.1095 21.7269 3.29772 21.7269C3.52383 21.7269 3.75361 21.9017 3.75361 22.1158C3.75361 22.2537 3.67906 22.3349 3.57395 22.3349C3.3185 22.3349 3.33439 22.1171 3.3845 21.9792C3.22683 22.0531 3.13395 22.1786 3.15961 22.314C3.06027 22.3291 2.96985 22.3804 2.90539 22.458C2.96772 22.5392 3.0435 22.5983 3.15961 22.5995C3.10828 22.8087 3.24761 22.8974 3.3845 22.9454C3.34172 22.7927 3.31361 22.6143 3.57395 22.6143C3.76339 22.6143 3.9125 22.5811 3.99928 22.4567L4.02128 23.2752C4.03106 23.5214 3.69372 23.514 3.47983 23.4414C3.5605 23.7232 3.72672 23.8771 4.1105 23.8377C4.05153 23.8605 4.00118 23.9015 3.96654 23.9547C3.93189 24.0079 3.9147 24.0707 3.91739 24.1343C3.91739 24.3657 4.10195 24.6204 4.22417 24.6967L4.28528 22.3017ZM4.22539 28.9503C4.22539 28.9503 4.51506 29.1927 4.61283 29.0709C4.7705 28.874 4.12761 27.8906 4.12761 27.5435C4.12761 26.9761 4.50528 26.8186 4.96972 26.7386C5.28261 26.6844 5.79106 26.762 5.79106 26.762C5.6945 26.8912 5.63339 26.9318 5.47206 26.9392C5.58313 26.9982 5.67576 27.0871 5.73963 27.1959C5.80351 27.3048 5.83612 27.4294 5.83383 27.5558C5.83383 28.0432 5.63339 28.2451 5.63339 28.7977C5.63339 29.1041 5.88272 29.4931 5.88272 29.4931C5.44272 29.4487 5.22272 29.0389 5.34739 28.7091C5.31371 28.7029 5.27906 28.705 5.24632 28.715C5.21359 28.7251 5.18371 28.7429 5.15917 28.7669C5.12739 28.6771 5.17872 28.57 5.24594 28.4801C5.19094 28.4518 5.15061 28.4691 5.06383 28.4863C5.07239 28.3927 5.12739 28.2943 5.26428 28.2007C4.86828 28.3029 4.62506 28.026 4.62506 27.7355C4.62506 27.514 4.77783 27.3564 4.92817 27.3564C4.97706 27.3564 5.04795 27.3774 5.08828 27.4069C5.11639 27.3478 5.10172 27.2666 5.07239 27.2063C5.18239 27.2346 5.25083 27.2998 5.20195 27.4377C5.23921 27.4384 5.27593 27.4468 5.3098 27.4625C5.34366 27.4782 5.37394 27.5007 5.39872 27.5287C5.37534 27.5583 5.34527 27.5817 5.31104 27.5972C5.2768 27.6126 5.23939 27.6195 5.20195 27.6174C5.26306 27.7454 5.19461 27.818 5.09561 27.8746C5.09561 27.8746 5.15917 27.6174 4.99661 27.6174C4.92328 27.6174 4.85728 27.6432 4.85728 27.7503C4.85728 27.8426 4.93917 27.9731 5.12739 27.9657C5.31561 27.9571 5.46839 27.834 5.46839 27.5324C5.46839 27.2506 5.24472 27.1115 4.95017 27.1029C4.68372 27.0943 4.48328 27.2395 4.48328 27.5164C4.48328 27.8832 5.01128 28.7226 5.01128 29.05C5.01128 29.2961 4.7925 29.4327 4.57739 29.4327C4.29872 29.4327 4.06406 29.1546 4.06406 29.1546L4.22539 28.9503ZM4.16428 11.5411C4.16428 10.9257 4.71183 10.6106 5.14206 10.6106C5.72139 10.6106 6.03061 10.9601 6.03061 11.4167C6.03061 11.6764 5.98294 11.8389 5.86439 12.0863L4.53583 14.8654C4.48714 14.9815 4.46581 15.1075 4.4735 15.2334C4.4735 15.4832 4.71428 15.6863 4.96606 15.6937C5.19461 15.6986 5.44517 15.4771 5.44517 15.226C5.44517 14.9207 5.28872 14.7841 5.12617 14.7841C4.92694 14.7841 4.8475 14.8666 4.8475 15.0081C4.8475 15.1054 4.89517 15.1484 4.96239 15.1484C5.1335 15.1484 5.08583 14.9171 5.08583 14.9171C5.10841 14.9217 5.1297 14.9313 5.1482 14.9451C5.1667 14.959 5.18196 14.9767 5.19291 14.9971C5.20387 15.0175 5.21024 15.0401 5.21159 15.0633C5.21294 15.0865 5.20923 15.1096 5.20072 15.1312C5.26479 15.1453 5.32264 15.1799 5.36572 15.2297C5.32152 15.2769 5.26388 15.3091 5.20072 15.322C5.24106 15.4549 5.18728 15.5189 5.07239 15.5472C5.09227 15.5024 5.09782 15.4525 5.08828 15.4044C4.90617 15.4561 4.6275 15.3749 4.6275 15.0574C4.6275 14.7435 4.84383 14.4789 5.25083 14.5441C5.15306 14.4974 5.10539 14.4026 5.09561 14.2967C5.16895 14.3263 5.25083 14.3287 5.25083 14.3287C5.20317 14.2451 5.13717 14.1724 5.13961 14.0063C5.21539 14.0407 5.28506 14.1047 5.38161 14.0641C5.23006 13.7638 5.41583 13.3515 5.89006 13.2543C5.72946 13.4308 5.63784 13.6599 5.63217 13.8992C5.63217 14.6118 5.83017 14.7312 5.83017 15.2272C5.83017 15.434 5.72383 15.658 5.51483 15.8106V15.802C5.64928 15.8389 5.73728 15.9066 5.78983 16.0001C5.47328 16.0912 5.0125 16.0887 4.76683 15.9915C4.65556 15.975 4.54929 15.9339 4.45567 15.8711C4.36205 15.8084 4.28341 15.7255 4.22539 15.6284C4.16564 15.4902 4.1348 15.3411 4.1348 15.1903C4.1348 15.0395 4.16564 14.8904 4.22539 14.7521C4.41361 14.3558 5.30095 12.4617 5.57717 11.8647C5.63745 11.7379 5.66957 11.5993 5.67128 11.4586C5.67128 11.0943 5.34006 10.9663 5.15183 10.9663C4.92572 10.9663 4.69595 11.1398 4.69595 11.354C4.69595 11.4918 4.7705 11.5743 4.87561 11.5743C5.13106 11.5743 5.11517 11.3552 5.06383 11.2186C5.2215 11.29 5.31439 11.418 5.28872 11.5534C5.37917 11.5657 5.46472 11.6075 5.54294 11.6986C5.48061 11.7774 5.40483 11.8364 5.28872 11.8389C5.34006 12.0494 5.20072 12.138 5.06383 12.186C5.10661 12.0334 5.13472 11.8561 4.87561 11.8561C4.68617 11.8561 4.53706 11.8229 4.45028 11.6998C4.44417 11.8647 4.42828 12.5183 4.42828 12.5183C4.4185 12.7632 4.75461 12.7571 4.9685 12.6832C4.88906 12.9663 4.72406 13.1189 4.33906 13.0795C4.39812 13.1026 4.44851 13.1438 4.48315 13.1972C4.51779 13.2506 4.53493 13.3136 4.53217 13.3774C4.53217 13.6075 4.34639 13.8635 4.22539 13.9386L4.16428 11.5411Z" fill="#FFCC4D"/>
<path d="M4.28528 11.5411C4.28528 10.9257 3.73772 10.6106 3.3075 10.6106C2.72817 10.6106 2.41895 10.9601 2.41895 11.4167C2.41895 11.6764 2.46661 11.8389 2.58517 12.0863L3.91372 14.8654C3.96017 14.9626 3.97483 15.0721 3.97483 15.2334C3.97483 15.4832 3.73406 15.6863 3.4835 15.6937C3.25372 15.6986 3.00439 15.4771 3.00439 15.226C3.00439 14.9207 3.16083 14.7841 3.32339 14.7841C3.52261 14.7841 3.60206 14.8666 3.60206 15.0081C3.60206 15.1054 3.55439 15.1484 3.48717 15.1484C3.31606 15.1484 3.36372 14.9171 3.36372 14.9171C3.34104 14.9215 3.31962 14.931 3.301 14.9448C3.28238 14.9586 3.26702 14.9763 3.25604 14.9968C3.24505 15.0173 3.23871 15.04 3.23746 15.0632C3.23622 15.0864 3.2401 15.1097 3.24883 15.1312C3.18477 15.1453 3.12691 15.1799 3.08383 15.2297C3.12804 15.2769 3.18568 15.3091 3.24883 15.322C3.20972 15.4549 3.26228 15.5189 3.37717 15.5472C3.35729 15.5024 3.35173 15.4525 3.36128 15.4044C3.54339 15.4561 3.82206 15.3749 3.82206 15.0574C3.82206 14.7435 3.60572 14.4789 3.19995 14.5441C3.2965 14.4974 3.34539 14.4026 3.35395 14.2967C3.28061 14.3263 3.19995 14.3287 3.19995 14.3287C3.24639 14.2451 3.31239 14.1724 3.30995 14.0063C3.23417 14.0407 3.16572 14.1047 3.06795 14.0641C3.2195 13.7638 3.03372 13.3515 2.5595 13.2543C2.7201 13.4308 2.81172 13.6599 2.81739 13.8992C2.81739 14.6118 2.62061 14.7312 2.62061 15.2272C2.62061 15.434 2.72695 15.658 2.93595 15.8106V15.802C2.80028 15.8389 2.71106 15.9066 2.66095 16.0001C2.9775 16.0912 3.43706 16.0887 3.68395 15.9915C3.79522 15.975 3.90149 15.9339 3.99511 15.8711C4.08873 15.8084 4.16737 15.7255 4.22539 15.6284C4.28514 15.4902 4.31598 15.3411 4.31598 15.1903C4.31598 15.0395 4.28514 14.8904 4.22539 14.7521C4.03717 14.3558 3.14983 12.4617 2.87361 11.8647C2.81278 11.7385 2.78063 11.6002 2.7795 11.4598C2.7795 11.0955 3.11072 10.9675 3.29895 10.9675C3.52506 10.9675 3.75483 11.1411 3.75483 11.3552C3.75483 11.4931 3.68028 11.5755 3.57517 11.5755C3.31972 11.5755 3.33561 11.3564 3.38572 11.2198C3.22806 11.2912 3.13517 11.4192 3.16083 11.5546C3.06104 11.5693 2.97034 11.6211 2.90661 11.6998C2.96895 11.7786 3.04472 11.8377 3.16083 11.8401C3.1095 12.0506 3.24883 12.1392 3.38572 12.1872C3.34295 12.0346 3.31483 11.8574 3.57517 11.8574C3.76461 11.8574 3.91372 11.8241 4.0005 11.7011L4.02128 12.5171C4.03106 12.762 3.69372 12.7558 3.47983 12.682C3.5605 12.9651 3.72672 13.1177 4.1105 13.0795C4.05144 13.1026 4.00105 13.1438 3.96641 13.1972C3.93177 13.2506 3.91463 13.3136 3.91739 13.3774C3.91739 13.6075 4.10195 13.8635 4.22417 13.9386L4.28528 11.5411Z" fill="#FFCC4D"/>
<path d="M4.28539 9.69738C4.28539 10.3115 3.73783 10.6278 3.30761 10.6278C2.72828 10.6278 2.41905 10.2783 2.41905 9.82045C2.41905 9.56199 2.46672 9.39953 2.58528 9.15092L3.91383 6.37184C3.96202 6.25553 3.98294 6.12961 3.97494 6.00384C3.97494 5.75522 3.73417 5.55092 3.48361 5.54476C3.25383 5.53984 3.0045 5.76015 3.0045 6.01245C3.0045 6.31892 3.16094 6.4543 3.3235 6.4543C3.52272 6.4543 3.60217 6.37184 3.60217 6.2303C3.60217 6.13184 3.5545 6.08999 3.48728 6.08999C3.31617 6.08999 3.36383 6.32138 3.36383 6.32138C3.34111 6.31676 3.31967 6.30715 3.30105 6.29324C3.28243 6.27932 3.26709 6.26144 3.25612 6.24087C3.24515 6.22031 3.23882 6.19755 3.23758 6.17424C3.23634 6.15093 3.24022 6.12762 3.24894 6.10599C3.1846 6.09332 3.12643 6.05904 3.08394 6.00876C3.12855 5.96233 3.18607 5.93057 3.24894 5.91768C3.20983 5.78476 3.26361 5.72076 3.3785 5.69245C3.35862 5.73723 3.35306 5.78713 3.36261 5.83522C3.54472 5.78353 3.82339 5.86722 3.82339 6.1823C3.82339 6.49615 3.60705 6.76076 3.20128 6.69553C3.29783 6.7423 3.34672 6.83707 3.35528 6.94292C3.30569 6.92504 3.25385 6.91426 3.20128 6.91092C3.24772 6.99461 3.31372 7.06722 3.31128 7.23338C3.2355 7.19892 3.16705 7.13492 3.06928 7.17553C3.22083 7.47584 3.03505 7.88815 2.56083 7.98661C2.72142 7.80962 2.81301 7.58012 2.81872 7.34045C2.81872 6.62907 2.62194 6.50845 2.62194 6.01368C2.62194 5.80692 2.72828 5.58292 2.93728 5.4303V5.43892C2.87989 5.42673 2.82566 5.40258 2.77809 5.36803C2.73052 5.33348 2.69065 5.28929 2.66105 5.2383C2.97761 5.14845 3.43717 5.14968 3.68405 5.24815C3.79552 5.26453 3.90196 5.30573 3.99562 5.36875C4.08928 5.43177 4.16781 5.51502 4.2255 5.61245C4.28532 5.75067 4.3162 5.89983 4.3162 6.05061C4.3162 6.20139 4.28532 6.35054 4.2255 6.48876C4.03728 6.88507 3.14994 8.77922 2.87372 9.37491C2.81277 9.50114 2.78062 9.63949 2.77961 9.77984C2.77961 10.1454 3.11083 10.2721 3.29905 10.2721C3.52517 10.2721 3.75494 10.0986 3.75494 9.88322C3.75494 9.74661 3.68039 9.66291 3.57528 9.66291C3.31983 9.66291 3.33572 9.88076 3.38583 10.0186C3.22817 9.94722 3.13528 9.81922 3.16094 9.68384C3.06131 9.66868 2.97076 9.61695 2.90672 9.53861C2.96905 9.45984 3.04483 9.39953 3.16094 9.3983C3.10961 9.18907 3.24894 9.09922 3.38583 9.04999C3.34305 9.20384 3.31494 9.3823 3.57528 9.3823C3.76472 9.3823 3.91383 9.4143 4.00061 9.53861L4.02261 8.71891C4.03239 8.47399 3.69505 8.48138 3.48117 8.55399C3.56183 8.27092 3.72805 8.1183 4.11183 8.15645C4.05277 8.13336 4.00238 8.09221 3.96774 8.03878C3.9331 7.98536 3.91596 7.92235 3.91872 7.85861C3.91872 7.62845 4.10328 7.37245 4.2255 7.29738L4.28539 9.69738ZM4.28539 20.4592C4.28539 21.0734 3.73783 21.3885 3.30761 21.3885C2.72828 21.3885 2.41905 21.0401 2.41905 20.5835C2.41609 20.3496 2.47336 20.119 2.58528 19.914L3.91383 17.1349C3.96202 17.0186 3.98294 16.8927 3.97494 16.7669C3.97494 16.5171 3.73417 16.314 3.48361 16.3078C3.25383 16.3017 3.0045 16.5232 3.0045 16.7743C3.0045 17.0795 3.16094 17.2161 3.3235 17.2161C3.52272 17.2161 3.60217 17.1337 3.60217 16.9921C3.60217 16.8949 3.5545 16.8531 3.48728 16.8531C3.31617 16.8531 3.36383 17.0845 3.36383 17.0845C3.34121 17.0796 3.31991 17.0699 3.30141 17.056C3.28291 17.042 3.26766 17.0241 3.25672 17.0036C3.24578 16.9831 3.23942 16.9605 3.23808 16.9372C3.23673 16.914 3.24044 16.8907 3.24894 16.8691C3.18447 16.856 3.12631 16.8213 3.08394 16.7706C3.12826 16.7238 3.18591 16.692 3.24894 16.6795C3.20983 16.5454 3.26239 16.4814 3.37728 16.4531C3.3574 16.4978 3.35184 16.5477 3.36139 16.5958C3.5435 16.5441 3.82217 16.6266 3.82217 16.9429C3.82217 17.2568 3.60583 17.5201 3.20005 17.4561C3.29661 17.5041 3.3455 17.5977 3.35405 17.7048C3.28072 17.6765 3.20005 17.6715 3.20005 17.6715C3.2465 17.7552 3.3125 17.8291 3.31005 17.994C3.23428 17.9595 3.16583 17.8955 3.06805 17.9361C3.21961 18.2352 3.03383 18.65 2.55961 18.746C2.7204 18.5696 2.81205 18.3404 2.8175 18.1011C2.8175 17.3909 2.62072 17.2691 2.62072 16.7743C2.62072 16.5663 2.72705 16.3423 2.93605 16.1909V16.1983C2.80039 16.1626 2.71117 16.0949 2.66105 16.0001C2.97761 15.9103 3.43717 15.9115 3.68405 16.01C3.79533 16.0265 3.9016 16.0676 3.99522 16.1304C4.08884 16.1932 4.16748 16.276 4.2255 16.3731C4.28525 16.5113 4.31609 16.6605 4.31609 16.8112C4.31609 16.962 4.28525 17.1111 4.2255 17.2494C4.03728 17.6457 3.14994 19.5398 2.87372 20.1368C2.81261 20.2629 2.78045 20.4013 2.77961 20.5417C2.77961 20.906 3.11083 21.0328 3.29905 21.0328C3.52517 21.0328 3.75494 20.8592 3.75494 20.6438C3.75494 20.5097 3.68039 20.426 3.57528 20.426C3.31983 20.426 3.33572 20.6438 3.38583 20.7805C3.22817 20.7091 3.13528 20.5798 3.16094 20.4457C3.06121 20.4316 2.97042 20.3802 2.90672 20.3017C2.9357 20.2603 2.97363 20.226 3.01767 20.2015C3.0617 20.177 3.11069 20.1628 3.16094 20.1601C3.10961 19.9509 3.24894 19.8635 3.38583 19.8143C3.34305 19.9681 3.31494 20.1454 3.57528 20.1454C3.76472 20.1454 3.91383 20.1774 4.00061 20.3029L4.02261 19.4832C4.03239 19.2395 3.69505 19.2457 3.48117 19.3183C3.56183 19.0365 3.72805 18.8838 4.11183 18.922C4.05277 18.8989 4.00238 18.8577 3.96774 18.8043C3.9331 18.7509 3.91596 18.6879 3.91872 18.6241C3.91872 18.394 4.10328 18.1392 4.2255 18.0629L4.28539 20.4592Z" fill="#FFCC4D"/>
<path d="M4.16394 20.4592C4.16394 21.0734 4.7115 21.3884 5.14172 21.3884C5.72106 21.3884 6.03028 21.0401 6.03028 20.5835C6.03324 20.3496 5.97597 20.1189 5.86406 19.914L4.5355 17.1349C4.48681 17.0187 4.46547 16.8928 4.47317 16.7669C4.47317 16.517 4.71394 16.314 4.96572 16.3078C5.19428 16.3017 5.44483 16.5232 5.44483 16.7743C5.44483 17.0795 5.28839 17.2161 5.12583 17.2161C4.92661 17.2161 4.84717 17.1337 4.84717 16.9921C4.84717 16.8949 4.89483 16.853 4.96206 16.853C5.13317 16.853 5.0855 17.0844 5.0855 17.0844C5.10812 17.0796 5.12942 17.0699 5.14792 17.0559C5.16642 17.042 5.18167 17.0241 5.19261 17.0036C5.20355 16.9831 5.20991 16.9604 5.21126 16.9372C5.2126 16.9139 5.20889 16.8907 5.20039 16.869C5.26486 16.856 5.32302 16.8212 5.36539 16.7706C5.32107 16.7238 5.26342 16.6919 5.20039 16.6795C5.24072 16.5454 5.18694 16.4814 5.07206 16.453C5.09528 16.5047 5.09528 16.5515 5.08794 16.5958C4.90583 16.5441 4.62717 16.6266 4.62717 16.9429C4.62717 17.2567 4.8435 17.5201 5.2505 17.4561C5.15272 17.5041 5.10506 17.5977 5.09528 17.7047C5.16861 17.6764 5.2505 17.6715 5.2505 17.6715C5.20283 17.7552 5.13683 17.829 5.13928 17.994C5.21506 17.9595 5.28472 17.8955 5.38128 17.9361C5.22972 18.2352 5.4155 18.65 5.88972 18.746C5.72893 18.5696 5.63728 18.3404 5.63183 18.101C5.63183 17.3909 5.82983 17.269 5.82983 16.7743C5.82675 16.6589 5.79657 16.5458 5.74176 16.4444C5.68695 16.343 5.60907 16.2562 5.5145 16.1909V16.1983C5.57209 16.1866 5.62657 16.1628 5.67439 16.1285C5.7222 16.0941 5.76226 16.0499 5.79194 15.9989C5.47539 15.909 5.01461 15.9103 4.76894 16.0087C4.65767 16.0252 4.5514 16.0663 4.45778 16.1291C4.36416 16.1919 4.28552 16.2748 4.2275 16.3718C4.16775 16.5101 4.13691 16.6592 4.13691 16.81C4.13691 16.9607 4.16775 17.1099 4.2275 17.2481C4.41572 17.6444 5.30306 19.5386 5.57928 20.1355C5.63794 20.261 5.67339 20.394 5.67339 20.5404C5.67339 20.9047 5.34217 21.0315 5.15394 21.0315C4.92783 21.0315 4.69806 20.858 4.69806 20.6426C4.69806 20.5084 4.77261 20.4247 4.87772 20.4247C5.13317 20.4247 5.11728 20.6426 5.06594 20.7792C5.22361 20.7078 5.3165 20.5786 5.29083 20.4444C5.39072 20.4309 5.48168 20.3794 5.54506 20.3004C5.51608 20.259 5.47815 20.2247 5.43411 20.2002C5.39007 20.1757 5.34108 20.1616 5.29083 20.1589C5.34217 19.9497 5.20283 19.8623 5.06594 19.813C5.10872 19.9669 5.13683 20.1441 4.87772 20.1441C4.68828 20.1441 4.53917 20.1761 4.45239 20.3017C4.44628 20.1367 4.43039 19.482 4.43039 19.482C4.42061 19.2383 4.75672 19.2444 4.97061 19.317C4.88872 19.0352 4.72372 18.8826 4.33872 18.9207C4.39779 18.8976 4.44818 18.8565 4.48282 18.8031C4.51745 18.7496 4.5346 18.6866 4.53183 18.6229C4.53183 18.3927 4.34606 18.138 4.22506 18.0617L4.16394 20.4592ZM4.22506 3.0512C4.22506 3.0512 4.51472 2.80628 4.6125 2.92813C4.77017 3.12628 4.12728 4.10966 4.12728 4.45674C4.12728 5.02536 4.50494 5.1792 4.96939 5.26043C5.28228 5.31582 5.79072 5.23828 5.79072 5.23828C5.69294 5.10905 5.63183 5.07089 5.4705 5.06105C5.58165 5.0028 5.67442 4.91444 5.73835 4.80592C5.80227 4.6974 5.83481 4.57304 5.83228 4.44689C5.83228 3.95705 5.63183 3.7552 5.63183 3.20382C5.63183 2.89736 5.88117 2.5072 5.88117 2.5072C5.44117 2.55274 5.22117 2.96259 5.34583 3.2912C5.31234 3.29744 5.27785 3.29544 5.24529 3.28537C5.21273 3.27529 5.18307 3.25745 5.15883 3.23336C5.12706 3.32443 5.17839 3.43028 5.24561 3.52136C5.19061 3.55089 5.15028 3.53243 5.0635 3.51397C5.07206 3.60874 5.12706 3.7072 5.26394 3.80074C4.86672 3.69736 4.6235 3.97551 4.6235 4.2672C4.6235 4.48751 4.77628 4.64382 4.92661 4.64382C4.9755 4.64382 5.04639 4.62413 5.08672 4.59336C5.11483 4.65366 5.10017 4.73489 5.07083 4.7952C5.18083 4.76689 5.24928 4.70043 5.20039 4.56382C5.27533 4.56074 5.34604 4.52801 5.39717 4.47274C5.37352 4.44312 5.34327 4.41954 5.30886 4.40393C5.27445 4.38831 5.23687 4.38111 5.19917 4.38289C5.26028 4.25489 5.19183 4.18351 5.09283 4.12689C5.09283 4.12689 5.15639 4.38289 4.99383 4.38289C4.9205 4.38289 4.8545 4.35828 4.8545 4.2512C4.8545 4.15766 4.93639 4.0272 5.12461 4.03582C5.31283 4.0432 5.46561 4.16628 5.46561 4.47028C5.46561 4.74966 5.24194 4.88751 4.94739 4.89736C4.68217 4.90474 4.48172 4.75951 4.48172 4.48382C4.48172 4.11582 5.00972 3.27889 5.00972 2.95028C5.00972 2.70412 4.79094 2.56628 4.57583 2.56628C4.29717 2.56628 4.0625 2.84443 4.0625 2.84443L4.22506 3.0512Z" fill="#FFCC4D"/>
<path d="M4.22569 3.0512C4.22569 3.0512 3.93603 2.80628 3.83825 2.92813C3.67936 3.12751 4.32347 4.11089 4.32347 4.45797C4.32347 5.02659 3.9458 5.18043 3.48136 5.26166C3.16847 5.31582 2.66125 5.23828 2.66125 5.23828C2.75658 5.10905 2.81891 5.07089 2.98025 5.06105C2.86878 5.00309 2.77568 4.91482 2.71151 4.80626C2.64735 4.6977 2.61469 4.5732 2.61725 4.44689C2.61725 3.95705 2.81769 3.7552 2.81769 3.20382C2.81769 2.89736 2.56836 2.5072 2.56836 2.5072C3.00836 2.55274 3.22836 2.96259 3.10369 3.2912C3.13737 3.29723 3.17199 3.29513 3.20471 3.28508C3.23743 3.27502 3.26732 3.2573 3.29191 3.23336C3.32369 3.32443 3.27358 3.43028 3.20514 3.52136C3.25891 3.55089 3.29925 3.53243 3.38725 3.51397C3.37869 3.60874 3.32247 3.7072 3.1868 3.80074C3.5828 3.69736 3.82603 3.97551 3.82603 4.2672C3.82603 4.48751 3.67325 4.64382 3.52291 4.64382C3.46588 4.64257 3.41037 4.62507 3.3628 4.59336C3.33591 4.65489 3.35058 4.73489 3.37869 4.7952C3.26991 4.76689 3.20147 4.70043 3.25036 4.56505C3.21321 4.56372 3.17669 4.55499 3.14291 4.53936C3.10913 4.52372 3.07877 4.5015 3.05358 4.47397C3.07684 4.44414 3.10682 4.42033 3.14104 4.40449C3.17526 4.38865 3.21273 4.38125 3.25036 4.38289C3.18925 4.25489 3.25769 4.18351 3.35669 4.12689C3.35669 4.12689 3.29314 4.38289 3.45569 4.38289C3.52903 4.38289 3.59503 4.35828 3.59503 4.2512C3.59503 4.15766 3.51314 4.0272 3.32491 4.03582C3.13547 4.0432 2.98269 4.16628 2.98269 4.46905C2.98269 4.74843 3.20636 4.88628 3.50091 4.89612C3.76736 4.90351 3.9678 4.75951 3.9678 4.48259C3.9678 4.11459 3.4398 3.27766 3.4398 2.94905C3.4398 2.70289 3.65858 2.56505 3.87369 2.56505C4.15236 2.56505 4.38703 2.8432 4.38703 2.8432L4.22569 3.0512ZM4.16458 9.69735C4.16458 10.3115 4.71214 10.6278 5.14236 10.6278C5.72169 10.6278 6.03091 10.2783 6.03091 9.82043C6.03091 9.56197 5.98325 9.39951 5.86469 9.15089L4.53614 6.37182C4.4883 6.25584 4.4674 6.13039 4.47503 6.00505C4.47503 5.75643 4.7158 5.55212 4.96758 5.54597C5.19614 5.54105 5.44669 5.76136 5.44669 6.01366C5.44669 6.32012 5.29025 6.45551 5.12769 6.45551C4.92847 6.45551 4.84903 6.37305 4.84903 6.23151C4.84903 6.13305 4.89669 6.0912 4.96391 6.0912C5.13503 6.0912 5.08736 6.32259 5.08736 6.32259C5.10998 6.31777 5.13128 6.30804 5.14978 6.29408C5.16828 6.28012 5.18353 6.26227 5.19447 6.24176C5.20541 6.22125 5.21177 6.19859 5.21312 6.17534C5.21446 6.1521 5.21075 6.12885 5.20225 6.1072C5.26614 6.09349 5.32373 6.05887 5.36603 6.00874C5.32109 5.96209 5.26311 5.93032 5.1998 5.91766C5.24014 5.78474 5.18636 5.72074 5.07147 5.69243C5.09469 5.74412 5.09469 5.79089 5.08736 5.8352C4.90525 5.78351 4.62658 5.86597 4.62658 6.18228C4.62658 6.49612 4.84291 6.76074 5.24991 6.69551C5.15214 6.74228 5.10447 6.83705 5.09469 6.94289C5.14469 6.92497 5.19694 6.91419 5.24991 6.91089C5.20225 6.99459 5.13625 7.0672 5.13869 7.23336C5.21447 7.19889 5.28414 7.13489 5.38069 7.17551C5.22914 7.47582 5.41491 7.88812 5.88914 7.98659C5.72855 7.8096 5.63695 7.5801 5.63125 7.34043C5.63125 6.62905 5.82925 6.50843 5.82925 6.01366C5.82587 5.89832 5.79556 5.7854 5.74078 5.68404C5.686 5.58269 5.60828 5.49575 5.51392 5.43028V5.43889C5.57139 5.42651 5.6257 5.40229 5.67345 5.36777C5.72119 5.33325 5.76134 5.28916 5.79136 5.23828C5.47358 5.14966 5.0128 5.15089 4.76591 5.24936C4.65464 5.26535 4.54834 5.30627 4.45485 5.36911C4.36136 5.43194 4.28305 5.51509 4.22569 5.61243C4.16587 5.75065 4.13499 5.89981 4.13499 6.05059C4.13499 6.20136 4.16587 6.35052 4.22569 6.48874C4.41391 6.88505 5.30125 8.7792 5.57747 9.37489C5.63758 9.50141 5.66969 9.63957 5.67158 9.77982C5.67158 10.1454 5.34036 10.2721 5.15214 10.2721C4.92603 10.2721 4.69625 10.0986 4.69625 9.8832C4.69625 9.74659 4.7708 9.66289 4.87591 9.66289C5.13136 9.66289 5.11547 9.88074 5.06414 10.0186C5.2218 9.9472 5.31469 9.8192 5.28903 9.68382C5.38886 9.66923 5.4796 9.61739 5.54325 9.53859C5.48091 9.45982 5.40514 9.39951 5.28903 9.39828C5.34036 9.18905 5.20103 9.0992 5.06414 9.04997C5.10691 9.20382 5.13503 9.38228 4.87591 9.38228C4.68647 9.38228 4.53736 9.41428 4.45058 9.53859C4.44447 9.37366 4.42858 8.71889 4.42858 8.71889C4.4188 8.47397 4.75491 8.48136 4.9688 8.55397C4.88936 8.27336 4.72436 8.12074 4.33936 8.15889C4.39842 8.1358 4.44882 8.09465 4.48345 8.04122C4.51809 7.9878 4.53523 7.92479 4.53247 7.86105C4.53247 7.63089 4.34669 7.37489 4.22569 7.29982L4.16458 9.69735Z" fill="#FFCC4D"/>
</svg>
