<svg width="44" height="32" viewBox="0 0 44 32" fill="none" xmlns="http://www.w3.org/2000/svg">
<path d="M21.5 16L2.82568 30.7245C3.88306 31.5288 5.23124 32 6.87505 32H37.125C41.681 32 44 28.4185 44 24.0007V16.0015H22.286L21.5 16Z" fill="#FAFF00"/>
<path d="M21.6879 16.0204L41.1743 30.7245C40.1169 31.5288 38.7688 32 37.1249 32H6.875C2.31895 32 1.52588e-05 28.4185 1.52588e-05 24.0007V16.0015H21.714L21.6879 16.0218" fill="#FAFF00"/>
<path d="M37.1248 0H6.87485C5.36167 0 4.09736 0.401418 3.08398 1.09081L21.7188 15.9986H43.9998V7.99928C43.9998 3.58149 41.6809 0 37.1248 0Z" fill="#575EFF"/>
<path d="M6.87519 0H37.1251C38.6383 0 39.9026 0.401418 40.916 1.09081L21.7142 15.9986H0.000198364V7.99928C0.000198364 3.58149 2.31913 0 6.87519 0Z" fill="#575EFF"/>
<path d="M0 23.9333C0 28.3883 2.31894 32 6.875 32H37.125C41.6811 32 44 28.3883 44 23.9333V21H0V23.9333Z" fill="#FAFF00"/>
</svg>
