<svg width="40" height="40" viewBox="0 0 40 40" fill="none" xmlns="http://www.w3.org/2000/svg">
<g clip-path="url(#clip0_2_3216)">
<g clip-path="url(#clip1_2_3216)">
<path d="M20.0003 0.399902C30.8252 0.399902 39.6001 9.17546 39.6001 19.999C39.6001 30.8258 30.8252 39.6006 20.0003 39.6006C9.17518 39.6006 0.40033 30.8258 0.40033 19.999C0.400471 9.17546 9.17518 0.399902 20.0003 0.399902Z" fill="#D6D4D1"/>
<mask id="mask0_2_3216" style="mask-type:luminance" maskUnits="userSpaceOnUse" x="0" y="0" width="40" height="40">
<path d="M20.002 0.87915C30.5619 0.87915 39.1225 9.4398 39.1225 19.999C39.1225 30.559 30.5619 39.1197 20.002 39.1197C9.44201 39.1197 0.880524 30.5591 0.880524 19.999C0.880524 9.43994 9.44201 0.87915 20.002 0.87915Z" fill="white"/>
</mask>
<g mask="url(#mask0_2_3216)">
<path d="M-8.67822 0.87915H48.6845V39.1197H-8.67822V0.87915Z" fill="#03B0CA"/>
<path d="M15.5462 25.0059C16.3796 25.4999 16.6085 25.9413 16.6085 25.9413C16.6085 25.9413 17.8848 26.1915 18.4958 26.2378C18.7569 26.2543 19.0369 26.3136 19.307 26.4058C19.4684 26.2164 19.6099 26.0534 19.7419 25.9265C19.6298 25.8426 19.5179 25.7915 19.4026 25.7818C19.0437 25.7472 12.6626 25.253 11.1276 18.5534C11.1276 18.5534 10.3422 17.8938 10.8526 20.2826C10.8526 20.2826 10.3775 19.5546 10.0818 18.0963C10.0818 18.0963 9.62476 17.2416 9.57946 18.214C9.53585 19.1872 10.4934 20.9578 10.4934 20.9578C10.4934 20.9578 9.84461 20.5429 9.26901 19.436C9.26901 19.436 8.98904 19.0244 8.69425 19.2022C8.39693 19.38 8.75183 19.851 8.75183 19.851C8.75183 19.851 10.006 21.7977 10.36 21.9905C10.36 21.9905 9.51836 21.5606 8.86952 20.7669C8.86952 20.7669 8.63315 20.398 8.35318 20.6482C8.35318 20.6482 8.1456 20.7669 8.88264 21.5194C9.61968 22.2721 10.4465 22.9639 10.4465 22.9639C10.4465 22.9639 10.4357 23.2241 9.4938 22.6393C8.54933 22.0562 9.48802 23.1795 9.48802 23.1795C9.48802 23.1795 10.3354 23.9042 11.0724 24.2813C11.0724 24.2813 10.9876 24.385 10.4664 24.3308C9.94508 24.2748 10.9539 24.7491 10.9539 24.7491C10.9539 24.7491 11.7519 25.0226 11.8424 25.0226C11.8424 25.0226 11.5377 25.1675 11.0181 25.1314C11.0181 25.1314 11.0971 25.4081 12.4098 25.5826C12.4098 25.5826 11.9471 25.6945 11.7362 25.7111C11.5239 25.7242 11.6671 25.8527 11.8631 25.8725C12.0607 25.8922 12.861 25.9483 13.1163 26.1523C13.1163 26.1523 12.6354 26.4587 12.4872 26.4389C12.4872 26.4389 13.85 27.539 15.5999 27.3348C15.5999 27.3348 14.298 27.1669 13.4351 26.3401L13.5158 25.958C13.5158 25.958 13.1469 26.0372 12.9411 25.7802L13.1115 25.5793C13.1115 25.5793 12.499 25.3882 12.4685 25.2038C12.4685 25.2038 12.713 25.095 12.3811 24.9337C12.0485 24.769 11.8038 24.6438 11.8038 24.6438L12.0773 24.5548L10.9491 23.7973L11.3839 23.7002C11.3839 23.7002 10.7062 23.244 10.8091 22.8438C10.8091 22.8438 11.0537 22.8092 11.3839 22.9921C11.3839 22.9921 10.9557 22.4979 10.9343 21.994C10.9343 21.994 11.6638 21.7453 12.6372 22.7533C13.6122 23.7662 13.4787 23.9572 13.4787 23.9572C13.4787 23.9572 14.7129 24.5117 15.5462 25.0059Z" fill="#FCC517"/>
<path d="M23.2463 28.0294C23.2463 28.0294 23.3122 28.3521 22.8478 28.4047C22.8478 28.4047 23.2365 28.7802 22.3307 28.9944C22.3307 28.9944 21.8069 29.1262 20.4137 29.1262C19.0204 29.1262 18.4366 29.4885 18.3403 30.0123C18.3403 30.0123 18.4877 30.2791 19.4091 29.584C19.4091 29.584 19.3301 30.1012 19.498 30.1143C19.6693 30.1308 20.1632 29.5331 20.1632 29.5331C20.1632 29.5331 20.1237 30.093 20.3674 30.1078C20.6113 30.1242 21.046 29.5412 21.046 29.5412C21.046 29.5412 21.0098 30.0699 21.2008 30.0699C21.3953 30.0699 21.764 29.5445 21.764 29.5445C21.764 29.5445 21.8728 30.0089 22.1033 29.966C22.3306 29.9199 22.5513 29.5213 22.5513 29.5213C22.5513 29.5213 22.7589 29.854 22.9861 29.8113C23.2166 29.7652 23.4736 29.2875 23.4736 29.2875C23.4736 29.2875 23.6054 29.64 23.7831 29.5971C23.961 29.551 24.1751 29.0207 24.1751 29.0207C24.1751 29.0207 24.5933 29.3829 24.8733 29.2412C25.1533 29.1031 25.0973 28.5266 25.0973 28.5266C25.0973 28.5266 25.5024 28.9318 25.9899 28.7703C26.4741 28.6089 26.3357 28.1644 26.3357 28.1644C26.3357 28.1644 24.4484 27.7691 23.2463 28.0294Z" fill="#FCC517"/>
<path d="M20.4202 10.8563C20.4202 11.0885 20.2291 11.2762 19.9987 11.2762C19.7649 11.2762 19.5771 11.0884 19.5771 10.8563C19.5771 10.6233 19.9856 9.11548 19.9987 9.11548C20.0086 9.11548 20.4202 10.6231 20.4202 10.8563Z" fill="#FCC517"/>
<path d="M20.4202 23.069C20.4202 22.8384 20.2291 22.6475 19.9987 22.6475C19.7649 22.6475 19.5771 22.8385 19.5771 23.069C19.5771 23.3028 19.9856 24.8114 19.9987 24.8114C20.0086 24.8114 20.4202 23.3028 20.4202 23.069Z" fill="#FCC517"/>
<path d="M19.2179 10.8916C19.2641 11.1205 19.1142 11.342 18.8886 11.3873C18.6629 11.4311 18.4398 11.2828 18.3962 11.0571C18.3509 10.8291 18.4555 9.2695 18.4686 9.26612C18.4752 9.26358 19.1752 10.6634 19.2179 10.8916Z" fill="#FCC517"/>
<path d="M21.6026 22.8714C21.5566 22.6408 21.3357 22.4959 21.1086 22.5388C20.8814 22.5849 20.7314 22.8056 20.7759 23.0328C20.822 23.2651 21.5171 24.6649 21.5302 24.6617C21.5368 24.6566 21.6489 23.0987 21.6026 22.8714Z" fill="#FCC517"/>
<path d="M18.0487 11.1591C18.1384 11.3758 18.0356 11.6203 17.8215 11.7092C17.6073 11.799 17.3612 11.6959 17.2714 11.4819C17.1817 11.2678 16.9833 9.71725 16.9948 9.71217C17.0029 9.70737 17.9615 10.9451 18.0487 11.1591Z" fill="#FCC517"/>
<path d="M22.7226 22.443C22.6337 22.2288 22.39 22.1268 22.1758 22.2158C21.9585 22.3047 21.8597 22.5518 21.9486 22.7657C22.0341 22.9799 22.9895 24.2183 23.0027 24.2117C23.0091 24.2085 22.8115 22.6572 22.7226 22.443Z" fill="#FCC517"/>
<path d="M16.956 11.6516C17.0846 11.8443 17.0318 12.107 16.8399 12.2354C16.6473 12.3638 16.3845 12.3129 16.2561 12.121C16.1277 11.9267 15.6286 10.4461 15.6393 10.4395C15.6475 10.433 16.8259 11.4597 16.956 11.6516Z" fill="#FCC517"/>
<path d="M23.7405 21.8074C23.6119 21.6131 23.3517 21.5603 23.1574 21.6889C22.9631 21.8207 22.9136 22.0808 23.0421 22.2768C23.1707 22.4661 24.3466 23.4971 24.3597 23.4889C24.3662 23.4839 23.8689 21.9984 23.7405 21.8074Z" fill="#FCC517"/>
<path d="M15.9778 12.3467C16.1433 12.5122 16.1433 12.7782 15.9778 12.9436C15.8123 13.1075 15.548 13.1075 15.3825 12.9436C15.2178 12.7781 14.438 11.4243 14.4487 11.4161C14.4568 11.4079 15.8123 12.1836 15.9778 12.3467Z" fill="#FCC517"/>
<path d="M24.6133 20.9839C24.4484 20.8175 24.185 20.8175 24.0203 20.9839C23.8556 21.1487 23.8556 21.4122 24.0203 21.5769C24.185 21.7415 25.5388 22.5222 25.5487 22.5123C25.5553 22.5057 24.7779 21.1487 24.6133 20.9839Z" fill="#FCC517"/>
<path d="M15.1551 13.2206C15.3469 13.349 15.4014 13.6083 15.2696 13.8043C15.1412 13.9963 14.8816 14.0489 14.6856 13.9189C14.4939 13.7905 13.4653 12.6138 13.4719 12.6039C13.4786 12.5946 14.9608 13.0903 15.1551 13.2206Z" fill="#FCC517"/>
<path d="M25.3116 20.0059C25.1173 19.8774 24.8569 19.9302 24.7253 20.1212C24.5969 20.3139 24.6495 20.5759 24.844 20.7043C25.035 20.8327 26.5139 21.3334 26.5238 21.3235C26.527 21.3136 25.5025 20.1344 25.3116 20.0059Z" fill="#FCC517"/>
<path d="M14.5177 14.2374C14.7318 14.3272 14.8348 14.5717 14.7449 14.7858C14.6576 15 14.4115 15.1029 14.1965 15.013C13.9823 14.9241 12.7448 13.9706 12.7497 13.959C12.7514 13.9508 14.3037 14.1485 14.5177 14.2374Z" fill="#FCC517"/>
<path d="M25.8023 18.9122C25.5881 18.8233 25.3428 18.9255 25.2523 19.1396C25.1633 19.3536 25.267 19.6007 25.4812 19.6864C25.6953 19.7753 27.2433 19.9762 27.2499 19.9663C27.2516 19.9563 26.0165 19.0011 25.8023 18.9122Z" fill="#FCC517"/>
<path d="M14.0904 15.359C14.3185 15.4027 14.4668 15.6258 14.4215 15.853C14.3762 16.0803 14.1546 16.2293 13.9275 16.1832C13.6977 16.1379 12.2979 15.4446 12.3011 15.4314C12.3034 15.4215 13.8631 15.3137 14.0904 15.359Z" fill="#FCC517"/>
<path d="M26.0691 17.742C25.8419 17.6959 25.6212 17.8449 25.5751 18.0705C25.529 18.297 25.6773 18.521 25.9045 18.5646C26.135 18.6099 27.6897 18.506 27.6931 18.4921C27.6963 18.4856 26.2965 17.7856 26.0691 17.742Z" fill="#FCC517"/>
<path d="M13.8919 16.5415C14.1241 16.5415 14.3135 16.73 14.3135 16.963C14.3135 17.1953 14.1241 17.3831 13.8919 17.3831C13.6589 17.3831 12.1511 16.9746 12.1511 16.963C12.1495 16.9523 13.6589 16.5415 13.8919 16.5415Z" fill="#FCC517"/>
<path d="M26.1054 16.5415C25.8715 16.5415 25.6839 16.73 25.6839 16.9615C25.6839 17.1953 25.8715 17.3831 26.1054 17.3831C26.336 17.3831 27.8445 16.9746 27.8445 16.963C27.8445 16.9523 26.3358 16.5415 26.1054 16.5415Z" fill="#FCC517"/>
<path d="M13.9273 17.742C14.1545 17.6959 14.376 17.8449 14.4213 18.0705C14.4651 18.2987 14.3185 18.521 14.0903 18.5663C13.8631 18.6099 12.3034 18.5062 12.301 18.4922C12.2994 18.4856 13.6976 17.7856 13.9273 17.742Z" fill="#FCC517"/>
<path d="M25.9077 15.359C25.6771 15.4027 25.5288 15.6258 25.5751 15.853C25.6229 16.0803 25.8419 16.2293 26.0691 16.1832C26.2964 16.1379 27.6963 15.4446 27.693 15.4314C27.693 15.4215 26.135 15.3137 25.9077 15.359Z" fill="#FCC517"/>
<path d="M14.195 18.9122C14.4099 18.8233 14.6545 18.9255 14.7434 19.1396C14.8331 19.3536 14.7302 19.5975 14.5162 19.6896C14.3012 19.7753 12.7515 19.9761 12.7465 19.9663C12.7448 19.9563 13.9808 19.0011 14.195 18.9122Z" fill="#FCC517"/>
<path d="M25.4795 14.2374C25.2653 14.3272 25.1633 14.5717 25.2524 14.7858C25.3413 15.0015 25.5882 15.1029 25.8023 15.013C26.0165 14.9241 27.25 13.9706 27.2466 13.959C27.245 13.9508 25.6936 14.1485 25.4795 14.2374Z" fill="#FCC517"/>
<path d="M14.6856 20.0057C14.88 19.8772 15.1412 19.9299 15.2696 20.121C15.3997 20.3136 15.3469 20.5757 15.1551 20.7041C14.9624 20.8325 13.4818 21.3332 13.4736 21.3233C13.4687 21.3134 14.4939 20.1341 14.6856 20.0057Z" fill="#FCC517"/>
<path d="M24.8438 13.2188C24.6494 13.3489 24.5968 13.6098 24.7252 13.8041C24.8536 13.9977 25.1172 14.0486 25.3082 13.9187C25.5026 13.7903 26.5318 12.6135 26.5204 12.6036C26.5172 12.5945 25.0349 13.0902 24.8438 13.2188Z" fill="#FCC517"/>
<path d="M15.3823 20.9839C15.5462 20.8175 15.8122 20.8175 15.9777 20.9839C16.1432 21.1487 16.1432 21.4122 15.9777 21.5769C15.8122 21.7415 14.4583 22.5222 14.4501 22.5123C14.4428 22.5057 15.2193 21.1487 15.3823 20.9839Z" fill="#FCC517"/>
<path d="M24.0203 12.3466C23.8556 12.5121 23.8556 12.7781 24.0203 12.9419C24.1817 13.1075 24.4484 13.1075 24.6133 12.9436C24.7796 12.7781 25.557 11.4243 25.5504 11.4161C25.5421 11.4078 24.1817 12.1835 24.0203 12.3466Z" fill="#FCC517"/>
<path d="M16.2561 21.8074C16.3846 21.613 16.6456 21.5603 16.8399 21.6921C17.0318 21.8206 17.0861 22.0808 16.956 22.2768C16.8259 22.4662 15.6492 23.4972 15.6393 23.489C15.6303 23.4838 16.1277 21.9983 16.2561 21.8074Z" fill="#FCC517"/>
<path d="M23.0421 11.6516C22.9137 11.8443 22.9631 12.107 23.1574 12.2354C23.3517 12.3638 23.6119 12.3129 23.7404 12.121C23.8689 11.9267 24.3695 10.4461 24.3597 10.4395C24.3498 10.433 23.1706 11.4597 23.0421 11.6516Z" fill="#FCC517"/>
<path d="M17.273 22.443C17.3627 22.2288 17.609 22.1268 17.823 22.2158C18.0371 22.3047 18.1401 22.5518 18.0502 22.7657C17.9613 22.9799 17.0077 24.2183 16.9962 24.2117C16.9882 24.2085 17.1834 22.6572 17.273 22.443Z" fill="#FCC517"/>
<path d="M21.9452 11.1591C21.8597 11.3758 21.9617 11.6203 22.1758 11.7092C22.39 11.799 22.6337 11.6959 22.7226 11.4819C22.8115 11.2678 23.0125 9.71725 23.0026 9.71217C22.9927 9.70737 22.0341 10.9451 21.9452 11.1591Z" fill="#FCC517"/>
<path d="M18.3962 22.8714C18.4398 22.6408 18.6614 22.4959 18.8886 22.5388C19.1159 22.5849 19.2641 22.8056 19.2179 23.0328C19.1752 23.2651 18.4785 24.6649 18.4669 24.6617C18.4589 24.6566 18.3492 23.0987 18.3962 22.8714Z" fill="#FCC517"/>
<path d="M20.7759 10.8916C20.733 11.1205 20.8814 11.342 21.1085 11.3873C21.3357 11.4311 21.5566 11.2828 21.6026 11.0571C21.6487 10.8308 21.5433 9.2695 21.53 9.26612C21.5203 9.26358 20.8219 10.6634 20.7759 10.8916Z" fill="#FCC517"/>
<path d="M19.9987 11.9456C22.7686 11.9456 25.0151 14.1919 25.0151 16.9628C25.0151 19.7337 22.7686 21.9786 19.9987 21.9786C17.2278 21.9786 14.9814 19.7337 14.9814 16.9628C14.9814 14.1919 17.2277 11.9456 19.9987 11.9456Z" fill="#FCC517"/>
<path d="M31.6521 20.648C31.3722 20.3978 31.135 20.7667 31.135 20.7667C30.4846 21.5604 29.6445 21.9886 29.6445 21.9886C29.9969 21.7975 31.2519 19.8508 31.2519 19.8508C31.2519 19.8508 31.6043 19.3798 31.3112 19.2003C31.0132 19.0241 30.7331 19.4358 30.7331 19.4358C30.1566 20.5427 29.5078 20.9559 29.5078 20.9559C29.5078 20.9559 30.4662 19.1838 30.4233 18.2121C30.3806 17.2395 29.9228 18.0944 29.9228 18.0944C29.6262 19.5544 29.1486 20.2824 29.1486 20.2824C29.6626 17.8919 28.8753 18.5515 28.8753 18.5515C27.3403 25.248 20.9601 25.7436 20.6011 25.7799C20.2421 25.8127 19.9243 26.2376 19.3857 26.857C18.8522 27.4762 18.158 27.5949 17.5766 27.8549C16.9961 28.1151 17.1599 28.3556 17.1599 28.3556C16.5292 28.6257 16.8009 29.1034 16.8009 29.1034C16.8595 28.8728 17.1798 28.853 17.1798 28.853C17.1008 28.9535 17.1214 29.031 17.1214 29.031C17.2878 28.8827 18.718 28.7379 19.8799 28.8234C21.0393 28.9057 20.9504 28.8135 20.9504 28.8135C20.8482 28.7214 20.0808 28.7476 20.0808 28.7476C19.5209 28.7345 19.2936 28.6028 19.2936 28.6028C18.9082 28.7839 18.6372 28.6028 18.6372 28.6028L18.9247 28.2733L18.6924 28.2273L19.0926 27.921L17.995 28.1712C17.995 28.1712 18.0485 28.3327 17.8813 28.4446C17.7149 28.5567 17.5594 28.4216 17.5594 28.4216C17.4259 28.476 17.3774 28.4068 17.3774 28.4068C17.4046 28.3625 17.5124 28.2966 17.6384 28.2307C17.6352 28.2421 17.6318 28.252 17.6318 28.262C17.6318 28.3246 17.6812 28.3723 17.7413 28.3723C17.8023 28.3723 17.8534 28.3246 17.8534 28.262C17.8534 28.2208 17.8246 28.1796 17.7875 28.1616C17.9579 28.0858 18.1143 28.0265 18.1143 28.0265C18.1143 28.0265 19.3462 27.4155 19.7612 26.9724C20.1728 26.5278 20.8975 26.2791 21.5069 26.2345C22.1179 26.1884 23.396 25.938 23.396 25.938C23.396 25.938 23.6249 25.4966 24.4582 25.0026C25.29 24.5086 26.5235 23.9551 26.5235 23.9551C26.5235 23.9551 26.3917 23.7641 27.3634 22.7528C28.3351 21.7416 29.0662 21.9918 29.0662 21.9918C29.0432 22.4957 28.6149 22.9899 28.6149 22.9899C28.946 22.8053 29.1914 22.8416 29.1914 22.8416C29.2936 23.2401 28.6149 23.698 28.6149 23.698L29.053 23.7935L27.9232 24.551L28.1967 24.6401C28.1967 24.6401 27.9513 24.7653 27.6202 24.9299C27.2876 25.0929 27.5296 25.2 27.5296 25.2C27.4983 25.3845 26.8873 25.5772 26.8873 25.5772L27.0603 25.7765C26.8527 26.0333 26.4822 25.9543 26.4822 25.9543L26.5661 26.3364C25.7015 27.1631 24.4021 27.3328 24.4021 27.3328C26.1512 27.537 27.5114 26.4369 27.5114 26.4369C27.3667 26.4582 26.8824 26.1504 26.8824 26.1504C27.1392 25.9462 27.9396 25.8918 28.1374 25.8705C28.335 25.8507 28.4765 25.7221 28.2658 25.7075C28.0516 25.691 27.5906 25.5807 27.5906 25.5807C28.9048 25.4045 28.9838 25.1278 28.9838 25.1278C28.4585 25.164 28.1572 25.0207 28.1572 25.0207C28.2493 25.0207 29.0466 24.7472 29.0466 24.7472C29.0466 24.7472 30.0546 24.2745 29.534 24.3289C29.012 24.3816 28.9279 24.2811 28.9279 24.2811C29.6658 23.9008 30.5124 23.1777 30.5124 23.1777C30.5124 23.1777 31.451 22.0546 30.5057 22.6375C29.562 23.2239 29.5538 22.9638 29.5538 22.9638C29.5538 22.9638 30.3806 22.2687 31.1151 21.5177C31.8563 20.7667 31.6521 20.648 31.6521 20.648Z" fill="#FCC517"/>
</g>
</g>
</g>
<defs>
<clipPath id="clip0_2_3216">
<rect width="40" height="40" rx="20" fill="white"/>
</clipPath>
<clipPath id="clip1_2_3216">
<rect width="40" height="40" fill="white"/>
</clipPath>
</defs>
</svg>
