<svg width="44" height="32" viewBox="0 0 44 32" fill="none" xmlns="http://www.w3.org/2000/svg">
<g clip-path="url(#clip0_5_7041)">
<path d="M0 10.9091H44V21.0909H0V10.9091Z" fill="#E30000"/>
<path d="M0 8.72729H44V10.9091H0V8.72729ZM0 21.0909H44V23.2728H0V21.0909Z" fill="white"/>
<path d="M37.125 0H6.875C2.31894 0 0 3.58182 0 8V8.72728H44V8C44 3.58182 41.6811 0 37.125 0Z" fill="#25333A"/>
<path d="M0 24C0 28.4182 2.31894 32 6.875 32H37.125C41.6811 32 44 28.4182 44 24V23.2728H0V24Z" fill="#006A4D"/>
<path d="M15.6997 27.4815L26.5003 8.312C26.5777 7.43084 26.8574 6.583 27.315 5.84218C27.8788 4.928 28.677 4.24727 29.6106 3.81018C29.6051 4.89164 29.3321 5.93527 28.7663 6.85018C28.3461 7.52756 27.7877 8.09666 27.1321 8.51564L16.2518 27.8284L15.6997 27.4815Z" fill="#F9F9FA"/>
<path d="M29.6106 27.4814L18.8106 8.312C18.7332 7.43083 18.4536 6.583 17.996 5.84218C17.4308 4.928 16.634 4.24727 15.6997 3.81018C15.7059 4.89163 15.9747 5.93527 16.5433 6.85018C16.9643 7.5271 17.5228 8.09608 18.1781 8.51563L29.0565 27.8291L29.6106 27.4814Z" fill="#F9F9FA"/>
<path d="M22.6555 5.80579C19.878 7.50179 17.9434 11.3454 17.9434 15.8182C17.9434 20.2909 19.8814 24.1323 22.6555 25.8334C25.4261 24.1316 27.3676 20.2909 27.3676 15.8182C27.3676 11.3462 25.4295 7.50179 22.6555 5.80579Z" fill="#E30000"/>
<path d="M18.8121 20.8109C19.3703 19.3142 19.6831 17.616 19.6831 15.8182C19.6831 14.0189 19.3703 12.3229 18.8121 10.8269C18.2586 12.3236 17.9424 14.0196 17.9424 15.8182C17.9431 17.6167 18.2593 19.3149 18.8121 20.8109ZM26.4983 20.8109C27.0518 19.3142 27.3673 17.616 27.3673 15.8182C27.3673 14.0189 27.0518 12.3229 26.4983 10.8269C25.9401 12.3236 25.6273 14.0196 25.6273 15.8182C25.6273 17.6167 25.9401 19.3149 26.4983 20.8109Z" fill="#0B1F35"/>
<path d="M22.6554 17.4749C23.3851 17.4749 23.9767 16.7331 23.9767 15.8182C23.9767 14.9032 23.3851 14.1614 22.6554 14.1614C21.9256 14.1614 21.334 14.9032 21.334 15.8182C21.334 16.7331 21.9256 17.4749 22.6554 17.4749Z" fill="#F9F9FA"/>
<path d="M22.336 18.0662C21.742 18.9905 21.3652 20.3033 21.3652 21.7629C21.3652 23.2247 21.742 24.5353 22.336 25.4589V18.0662ZM22.9279 25.4618C23.5219 24.5374 23.8966 23.2247 23.8966 21.7658C23.8966 20.304 23.5219 18.9927 22.9279 18.0691V25.4618ZM22.3587 6.22906C21.7619 7.1527 21.39 8.46616 21.39 9.92143C21.39 11.3833 21.7619 12.6974 22.3587 13.6218V6.22906ZM22.9513 13.6218C23.548 12.6953 23.92 11.3811 23.92 9.92143C23.92 8.46688 23.548 7.15197 22.9513 6.22906V13.6218Z" fill="#F9F9FA"/>
</g>
<defs>
<clipPath id="clip0_5_7041">
<rect width="44" height="32" rx="7" fill="white"/>
</clipPath>
</defs>
</svg>
