<svg width="40" height="40" viewBox="0 0 40 40" fill="none" xmlns="http://www.w3.org/2000/svg">
<g clip-path="url(#clip0_2_3318)">
<path d="M20 40C31.0457 40 40 31.0457 40 20C40 8.9543 31.0457 0 20 0C8.9543 0 0 8.9543 0 20C0 31.0457 8.9543 40 20 40Z" fill="#F0F0F0"/>
<path d="M20 0C12.0708 0 5.21953 4.61445 1.98453 11.3044H38.0154C34.7805 4.61445 27.9291 0 20 0Z" fill="black"/>
<path d="M20 39.9999C12.0708 39.9999 5.21953 35.3855 1.98453 28.6956H38.0154C34.7805 35.3855 27.9291 39.9999 20 39.9999Z" fill="#496E2D"/>
<path d="M39.0555 13.9131H0.944453C0.331797 15.8325 0 17.8775 0 20C0 22.1226 0.331797 24.1675 0.944453 26.087H39.0555C39.6682 24.1675 40 22.1226 40 20C40 17.8775 39.6682 15.8325 39.0555 13.9131Z" fill="#A2001D"/>
<path d="M26.2277 9.24237L23.8592 8.14917L20 16.8875L16.1408 8.14917L13.7723 9.24237L18.5635 20.0001L13.7723 30.7578L16.1408 31.851L20 23.1127L23.8592 31.851L26.2277 30.7578L21.4365 20.0001L26.2277 9.24237Z" fill="#F0F0F0"/>
<path d="M21.6087 10.2728C20.6918 9.27143 20 8.6958 20 8.6958C20 8.6958 19.3082 9.27135 18.3913 10.2728V29.7274C19.3082 30.7289 20 31.3046 20 31.3046C20 31.3046 20.6918 30.729 21.6087 29.7275V10.2728Z" fill="#F0F0F0"/>
<path d="M15.6522 14.0034V25.9965C16.6211 27.7133 17.807 29.1205 18.6957 30.0535V9.94653C17.807 10.8794 16.621 12.2867 15.6522 14.0034Z" fill="#A2001D"/>
<path d="M24.3478 14.0034C23.3788 12.2866 22.193 10.8794 21.3043 9.94653V30.0535C22.193 29.1205 23.3788 27.7133 24.3478 25.9965V14.0034Z" fill="#A2001D"/>
<path d="M24.3478 14.0034V25.9965C25.3287 24.2583 26.0869 22.2029 26.0869 20.0001C26.0869 17.7972 25.3287 15.7417 24.3478 14.0034Z" fill="black"/>
<path d="M15.6522 14.0034V25.9965C14.6713 24.2583 13.9131 22.2029 13.9131 20.0001C13.9131 17.7972 14.6713 15.7417 15.6522 14.0034Z" fill="black"/>
</g>
<defs>
<clipPath id="clip0_2_3318">
<rect width="40" height="40" fill="white"/>
</clipPath>
</defs>
</svg>
