<svg width="20" height="24" viewBox="0 0 20 24" fill="none" xmlns="http://www.w3.org/2000/svg">
<path fill-rule="evenodd" clip-rule="evenodd" d="M0.192322 10.4435C0.192322 5.13599 4.62756 0.84613 9.99242 0.84613C15.3724 0.84613 19.8077 5.13599 19.8077 10.4435C19.8077 13.118 18.835 15.601 17.234 17.7056C15.4678 20.0271 13.2909 22.0497 10.8406 23.6373C10.2798 24.0042 9.77369 24.0319 9.1582 23.6373C6.69392 22.0497 4.51703 20.0271 2.76597 17.7056C1.16384 15.601 0.192322 13.118 0.192322 10.4435ZM6.76256 10.7424C6.76256 12.5204 8.21344 13.9188 9.99242 13.9188C11.7726 13.9188 13.2374 12.5204 13.2374 10.7424C13.2374 8.97819 11.7726 7.5117 9.99242 7.5117C8.21344 7.5117 6.76256 8.97819 6.76256 10.7424Z" fill="#265078"/>
</svg>
