<svg width="34" height="34" viewBox="0 0 34 34" fill="none" xmlns="http://www.w3.org/2000/svg">
<path fill-rule="evenodd" clip-rule="evenodd" d="M4.95837 14.6168C4.95837 8.10036 10.4039 2.83334 16.9908 2.83334C23.5962 2.83334 29.0417 8.10036 29.0417 14.6168C29.0417 17.9006 27.8475 20.9492 25.8818 23.5331C23.7133 26.3833 21.0406 28.8667 18.0321 30.8159C17.3436 31.2664 16.7222 31.3004 15.9665 30.8159C12.9409 28.8667 10.2682 26.3833 8.11825 23.5331C6.15118 20.9492 4.95837 17.9006 4.95837 14.6168ZM13.0252 14.9837C13.0252 17.1668 14.8066 18.8837 16.9908 18.8837C19.1764 18.8837 20.9749 17.1668 20.9749 14.9837C20.9749 12.8177 19.1764 11.0172 16.9908 11.0172C14.8066 11.0172 13.0252 12.8177 13.0252 14.9837Z" fill="white"/>
</svg>
