<svg width="33" height="33" viewBox="0 0 33 33" fill="none" xmlns="http://www.w3.org/2000/svg">
<path d="M16.1037 6.49838C10.804 6.49838 6.49829 10.8112 6.49829 16.1038C6.49829 21.396 10.8111 25.7088 16.1037 25.7088C21.3959 25.7088 25.7087 21.396 25.7087 16.1038C25.7087 10.8112 21.4033 6.49838 16.1037 6.49838ZM20.9208 13.8011L15.124 19.2687C15.0169 19.3738 14.8721 19.4318 14.7219 19.4298C14.5649 19.4312 14.4141 19.3678 14.3053 19.2541L11.2717 16.1403C11.0496 15.9096 11.0544 15.5427 11.2831 15.3182C11.5116 15.0938 11.8782 15.0952 12.1052 15.3214L14.7368 18.026L20.1167 12.9531C20.3508 12.7309 20.7206 12.7409 20.9428 12.9751C21.1649 13.2092 21.1549 13.579 20.9208 13.8011Z" fill="white"/>
<path d="M29.8975 19.6051L32.2075 16.1037L29.8975 12.6021C29.8298 12.4982 29.7964 12.3754 29.8024 12.2512L30.0362 8.05544L26.301 6.1623C26.1905 6.10662 26.1009 6.01695 26.0452 5.90645L24.1592 2.17098L19.9634 2.40484C19.8392 2.41084 19.7164 2.37771 19.6125 2.30975L16.1037 0L12.6021 2.30975C12.4982 2.37771 12.3754 2.41084 12.2515 2.40484L8.05544 2.17098L6.16229 5.90645C6.10661 6.01695 6.01695 6.10662 5.90645 6.1623L2.17098 8.04802L2.40484 12.2441C2.41084 12.368 2.37771 12.4908 2.31004 12.595L0 16.1037L2.31004 19.6051C2.37771 19.7093 2.41084 19.8318 2.40484 19.956L2.17098 24.1518L5.90645 26.0378C6.01695 26.0935 6.10661 26.1831 6.16229 26.2936L8.0483 30.0291L12.2441 29.7949H12.2732C12.3871 29.7964 12.4988 29.8292 12.595 29.89L16.0963 32.2001L19.5979 29.89C19.7019 29.8224 19.8247 29.7892 19.9486 29.7949L24.1446 30.0291L26.0306 26.2936C26.0863 26.1831 26.176 26.0935 26.2865 26.0378L30.0217 24.1518L29.7878 19.956C29.7941 19.8315 29.8318 19.7107 29.8975 19.6051ZM16.1037 26.8784C10.1607 26.8784 5.3288 22.0465 5.3288 16.1037C5.3288 10.1608 10.1607 5.3288 16.1037 5.3288C22.0467 5.3288 26.8784 10.1608 26.8784 16.1037C26.8784 22.0465 22.0467 26.8784 16.1037 26.8784Z" fill="white"/>
</svg>
