<svg width="37" height="34" viewBox="0 0 37 34" fill="none" xmlns="http://www.w3.org/2000/svg">
<g filter="url(#filter0_d_2_3036)">
<path d="M28.3984 8.95264C29.2572 8.95264 30.0724 9.14246 30.8047 9.48185V7.25732H25.0625C24.6095 7.25732 24.2422 6.89004 24.2422 6.43701V0.694824H5.32031C4.86728 0.694824 4.5 1.06211 4.5 1.51514V21.2573C4.5 21.7104 4.86728 22.0776 5.32031 22.0776H23.4766V17.6495C22.956 16.7857 22.6562 15.7747 22.6562 14.6948C22.6562 11.5286 25.2322 8.95264 28.3984 8.95264ZM9.47656 5.6167H10.2969V4.85107C10.2969 4.39804 10.6642 4.03076 11.1172 4.03076C11.5702 4.03076 11.9375 4.39804 11.9375 4.85107V5.6167H12.7578C13.2108 5.6167 13.5781 5.98398 13.5781 6.43701C13.5781 6.89004 13.2108 7.25732 12.7578 7.25732H11.9375V8.13232C11.9375 8.58536 11.5702 8.95264 11.1172 8.95264C10.6642 8.95264 10.2969 8.58536 10.2969 8.13232V7.25732H9.47656C9.02353 7.25732 8.65625 6.89004 8.65625 6.43701C8.65625 5.98398 9.02353 5.6167 9.47656 5.6167ZM20.1406 18.7964H9.47656C9.02353 18.7964 8.65625 18.4291 8.65625 17.9761C8.65625 17.523 9.02353 17.1558 9.47656 17.1558H20.1406C20.5937 17.1558 20.9609 17.523 20.9609 17.9761C20.9609 18.4291 20.5937 18.7964 20.1406 18.7964ZM20.1406 15.5151H9.47656C9.02353 15.5151 8.65625 15.1479 8.65625 14.6948C8.65625 14.2418 9.02353 13.8745 9.47656 13.8745H20.1406C20.5937 13.8745 20.9609 14.2418 20.9609 14.6948C20.9609 15.1479 20.5937 15.5151 20.1406 15.5151ZM20.1406 12.2339H9.47656C9.02353 12.2339 8.65625 11.8666 8.65625 11.4136C8.65625 10.9605 9.02353 10.5933 9.47656 10.5933H20.1406C20.5937 10.5933 20.9609 10.9605 20.9609 11.4136C20.9609 11.8666 20.5937 12.2339 20.1406 12.2339Z" fill="#022140"/>
<path d="M25.8828 1.17535V5.61669H30.3241L25.8828 1.17535Z" fill="#022140"/>
<path d="M25.1172 19.4044V24.4839C25.1172 25.1437 25.8596 25.5337 26.4029 25.1595L28.3984 23.7847L30.394 25.1595C30.9348 25.5319 31.6797 25.1458 31.6797 24.4839V19.4044C29.7089 20.7817 27.0888 20.7822 25.1172 19.4044Z" fill="#022140"/>
<path d="M28.3984 18.7964C30.66 18.7964 32.5 16.9564 32.5 14.6948C32.5 12.4332 30.66 10.5933 28.3984 10.5933C26.1368 10.5933 24.2969 12.4332 24.2969 14.6948C24.2969 16.9564 26.1368 18.7964 28.3984 18.7964ZM28.3984 12.2339C29.7554 12.2339 30.8594 13.3379 30.8594 14.6948C30.8594 16.0518 29.7554 17.1558 28.3984 17.1558C27.0415 17.1558 25.9375 16.0518 25.9375 14.6948C25.9375 13.3379 27.0415 12.2339 28.3984 12.2339Z" fill="#022140"/>
</g>
<defs>
<filter id="filter0_d_2_3036" x="0.5" y="0.694824" width="36" height="32.6104" filterUnits="userSpaceOnUse" color-interpolation-filters="sRGB">
<feFlood flood-opacity="0" result="BackgroundImageFix"/>
<feColorMatrix in="SourceAlpha" type="matrix" values="0 0 0 0 0 0 0 0 0 0 0 0 0 0 0 0 0 0 127 0" result="hardAlpha"/>
<feOffset dy="4"/>
<feGaussianBlur stdDeviation="2"/>
<feComposite in2="hardAlpha" operator="out"/>
<feColorMatrix type="matrix" values="0 0 0 0 0 0 0 0 0 0 0 0 0 0 0 0 0 0 0.25 0"/>
<feBlend mode="normal" in2="BackgroundImageFix" result="effect1_dropShadow_2_3036"/>
<feBlend mode="normal" in="SourceGraphic" in2="effect1_dropShadow_2_3036" result="shape"/>
</filter>
</defs>
</svg>
