<svg width="22" height="19" viewBox="0 0 22 19" fill="none" xmlns="http://www.w3.org/2000/svg">
<path fill-rule="evenodd" clip-rule="evenodd" d="M15.9374 0.15387C17.3128 0.15387 18.6359 0.697459 19.6092 1.67284C20.5836 2.64618 21.1282 3.959 21.1282 5.33336V13.4359C21.1282 16.2975 18.8 18.6154 15.9374 18.6154H5.8051C2.94254 18.6154 0.615356 16.2975 0.615356 13.4359V5.33336C0.615356 2.47182 2.93228 0.15387 5.8051 0.15387H15.9374ZM17.5692 6.86162L17.6513 6.77957C17.8964 6.48214 17.8964 6.05137 17.64 5.75393C17.4974 5.60111 17.3015 5.50778 17.0974 5.48727C16.882 5.47598 16.6769 5.5488 16.522 5.69239L11.8974 9.3847C11.3025 9.87804 10.4502 9.87804 9.84612 9.3847L5.23074 5.69239C4.91176 5.4565 4.47074 5.48727 4.2051 5.76419C3.92817 6.04111 3.8974 6.48214 4.13228 6.78983L4.26663 6.92316L8.9333 10.5642C9.50766 11.0155 10.2041 11.2616 10.9333 11.2616C11.6605 11.2616 12.3692 11.0155 12.9425 10.5642L17.5692 6.86162Z" fill="#265078"/>
</svg>
