<svg width="38" height="26" viewBox="0 0 38 26" fill="none" xmlns="http://www.w3.org/2000/svg">
<path d="M36.0495 1.30348C33.7983 0.359241 31.5453 6.98029e-08 29.2935 6.98029e-08C22.1453 -0.000580287 14.9976 3.61795 7.84933 3.61795C6.05661 3.61795 4.26504 3.39045 2.47232 2.8217C2.27094 2.75786 2.06897 2.72768 1.87165 2.72768C0.872857 2.72768 0 3.50071 0 4.57379V22.9862C0 23.7192 0.419598 24.4139 1.09339 24.6959C3.3446 25.6408 5.59754 26 7.84933 26C14.9976 26 22.1458 22.3815 29.2941 22.3815C31.0868 22.3815 32.8784 22.609 34.6711 23.1777C34.8725 23.2416 35.0745 23.2717 35.2718 23.2717C36.2706 23.2717 37.1434 22.4987 37.1434 21.4256V3.01379C37.1429 2.28022 36.7233 1.58612 36.0495 1.30348ZM2.78571 5.81634C3.95339 6.10884 5.17214 6.25567 6.42571 6.3346C6.08446 8.04027 4.58482 9.32576 2.78571 9.32576V5.81634ZM2.78571 22.3565V19.5836C4.7804 19.5836 6.39437 21.1662 6.48317 23.147C5.17562 23.0419 3.95339 22.7808 2.78571 22.3565ZM18.5714 18.5714C16.0068 18.5714 13.9286 16.0765 13.9286 13C13.9286 9.92295 16.0074 7.42857 18.5714 7.42857C21.1354 7.42857 23.2143 9.92295 23.2143 13C23.2143 16.0776 21.1349 18.5714 18.5714 18.5714ZM34.3571 20.1837C33.3404 19.9289 32.2847 19.7861 31.2046 19.6938C31.5453 18.1803 32.8006 17.0312 34.3571 16.8338V20.1837ZM34.3571 6.48085C32.5644 6.25393 31.1733 4.75719 31.1182 2.90875C32.2522 3.03469 33.3288 3.27031 34.3571 3.64348V6.48085Z" fill="#022140"/>
</svg>
