<svg width="44" height="32" viewBox="0 0 44 32" fill="none" xmlns="http://www.w3.org/2000/svg">
<g clip-path="url(#clip0_5_7026)">
<path d="M44 24C44 28.4182 41.6811 32 37.125 32H6.875C2.31894 32 0 28.4182 0 24V8C0 3.58182 2.31894 0 6.875 0H37.125C41.6811 0 44 3.58182 44 8V24Z" fill="#E30000"/>
<path fill-rule="evenodd" clip-rule="evenodd" d="M29.8099 13.2727C28.032 13.2727 26.2528 13.2778 24.4735 13.2778C24.4302 13.2778 24.3841 13.2727 24.3408 13.2778C24.27 13.2814 24.2336 13.2516 24.2233 13.1774C24.215 13.1425 24.2026 13.1098 24.1903 13.0742C23.6286 11.0625 23.0648 9.04725 22.5004 7.03198C22.4866 6.97816 22.4756 6.92507 22.4406 6.86761C22.3931 6.93089 22.3863 7.00289 22.3684 7.0618C21.8122 9.06034 21.2574 11.056 20.6985 13.0545C20.6297 13.304 20.6696 13.272 20.4283 13.272C18.638 13.2771 16.8505 13.2771 15.0589 13.2793C14.9991 13.2793 14.9365 13.2669 14.8691 13.2953C14.9125 13.3636 14.9661 13.3971 15.0142 13.4363C16.4724 14.672 17.932 15.9062 19.3915 17.1447C19.5235 17.2553 19.5235 17.2553 19.4775 17.4262C19.1963 18.4393 18.9144 19.4465 18.6366 20.4567C18.3445 21.5033 18.0578 22.5483 17.7663 23.5934C17.7525 23.6203 17.7498 23.6451 17.7731 23.6698C17.8199 23.6327 17.8749 23.5942 17.9223 23.5563C19.3675 22.3294 20.8126 21.1069 22.2577 19.8836C22.2976 19.8465 22.3381 19.8182 22.378 19.7811C22.4158 19.7447 22.4543 19.7396 22.4976 19.776C22.5272 19.8058 22.5595 19.8305 22.5884 19.856L26.9561 23.5469C27.0083 23.592 27.0592 23.6327 27.1231 23.6843C27.1314 23.5971 27.1087 23.5454 27.0922 23.4865C26.7574 22.2807 26.4198 21.0749 26.0823 19.8705C25.854 19.0502 25.6271 18.2283 25.3948 17.4087C25.3631 17.3018 25.3721 17.2247 25.467 17.1658C25.4903 17.1534 25.5103 17.1302 25.5343 17.112C26.9822 15.8829 28.4315 14.6531 29.8786 13.4225C29.9226 13.3854 29.9825 13.3578 30.0093 13.2713C29.933 13.2734 29.8731 13.2734 29.8106 13.2734M22.4303 11.576C22.4928 11.704 22.5114 11.8022 22.5368 11.8967C22.6551 12.3098 22.7733 12.7222 22.8854 13.1338C22.9239 13.2698 22.9184 13.2727 22.7871 13.2778C22.5238 13.28 22.257 13.2778 21.9635 13.2778C22.1071 12.7062 22.2715 12.1585 22.4303 11.576ZM18.7136 14.7694C18.7508 14.7273 18.7735 14.7309 18.7941 14.7309C19.2299 14.7269 19.6658 14.7247 20.1017 14.7243C20.2303 14.7243 20.2316 14.7309 20.2 14.8538C20.1148 15.1629 20.0281 15.4698 19.9367 15.8058C19.5166 15.4516 19.1151 15.1142 18.7136 14.7694ZM20.2303 19.7949C20.1588 19.7963 20.165 19.7491 20.1787 19.7033C20.2997 19.2029 20.442 18.7149 20.5843 18.224C20.5871 18.2145 20.5974 18.2051 20.6146 18.1811C20.8648 18.3905 21.1165 18.6051 21.3846 18.8291C20.99 19.1614 20.6098 19.4763 20.2303 19.7949ZM22.5327 17.856C22.4715 17.9076 22.4275 17.9214 22.356 17.8618C21.938 17.4996 21.5118 17.1411 21.0862 16.7825C21.0243 16.7309 21.0058 16.6858 21.0271 16.6029C21.1955 16.016 21.3564 15.4313 21.518 14.8443C21.5427 14.7563 21.5826 14.7207 21.6747 14.7207C22.1883 14.7251 22.7046 14.7236 23.2202 14.7236C23.2883 14.7236 23.335 14.7345 23.3563 14.816C23.5234 15.4225 23.6905 16.0247 23.8589 16.6262C23.8644 16.6451 23.8658 16.6625 23.8706 16.68C23.8706 16.7382 23.8252 16.7578 23.7915 16.7862C23.5261 17.0109 23.2615 17.2371 22.9947 17.4603C22.84 17.5934 22.684 17.7207 22.5327 17.856ZM24.6619 19.7934C24.2817 19.4763 23.8995 19.1614 23.5014 18.8327C23.7681 18.6065 24.0163 18.3963 24.2604 18.1876C24.2817 18.2029 24.2934 18.2058 24.2996 18.2145C24.4426 18.7098 24.5863 19.2029 24.71 19.7083C24.7286 19.7578 24.7313 19.7963 24.6619 19.7934ZM26.1579 14.7658C25.8114 15.0887 25.4408 15.3811 25.0854 15.6902C25.0462 15.7258 25.0118 15.768 24.952 15.7789C24.8826 15.6036 24.8461 15.4153 24.7911 15.2349C24.7522 15.1042 24.7155 14.9728 24.6811 14.8407C24.6564 14.7382 24.6646 14.7243 24.7664 14.7243C25.0613 14.72 25.3535 14.7229 25.6471 14.7229H26.1558C26.1448 14.752 26.1545 14.7229 26.1627 14.7469C26.1627 14.752 26.1627 14.76 26.1579 14.7658Z" fill="#0B1F35"/>
<path fill-rule="evenodd" clip-rule="evenodd" d="M17.7692 23.5927C17.774 23.6194 17.774 23.6438 17.7761 23.6683C17.7328 23.6633 17.7328 23.6503 17.7692 23.5927Z" fill="#570007"/>
<path fill-rule="evenodd" clip-rule="evenodd" d="M29.6791 13.4051C29.6523 13.4844 29.5993 13.512 29.5567 13.5491C28.1961 14.7018 26.8383 15.8567 25.4764 17.0131C25.4668 17.0189 25.4578 17.0262 25.4489 17.0335C25.3375 17.1237 25.3265 17.1186 25.2853 16.9717C25.2007 16.68 25.1271 16.3847 25.0378 16.096C24.9965 15.9651 25.0261 15.8858 25.1244 15.8029C25.5431 15.4553 25.9528 15.0989 26.3681 14.7455C26.4038 14.7164 26.4458 14.6931 26.4684 14.6386C26.4341 14.5847 26.3798 14.6073 26.3337 14.6073C25.3382 14.6037 24.3413 14.6037 23.3458 14.6037H21.7818C21.7474 14.6073 21.7123 14.6037 21.68 14.6015C21.6312 14.6015 21.6085 14.5724 21.6181 14.52C21.6243 14.485 21.6328 14.4505 21.6436 14.4167C21.7199 14.1346 21.7996 13.8517 21.878 13.5731C21.933 13.3884 21.933 13.3884 22.1111 13.3884C22.9917 13.3869 23.869 13.3869 24.7463 13.3869H29.4522C29.5216 13.3862 29.5959 13.3746 29.6791 13.4051ZM15.1797 13.4204C15.2546 13.3746 15.3103 13.3877 15.366 13.3877C17.0373 13.3862 18.7073 13.3862 20.3772 13.3862C20.602 13.3833 20.602 13.3862 20.5408 13.6073C20.4645 13.88 20.3882 14.1491 20.3146 14.4189C20.2617 14.6029 20.2617 14.6029 20.0823 14.6066C19.5907 14.6066 19.095 14.6066 18.6041 14.6087C18.5464 14.6087 18.4824 14.5971 18.4199 14.6269C18.4309 14.7047 18.4893 14.728 18.5292 14.7629C19.7282 15.7775 20.9258 16.7913 22.1207 17.8073C22.1612 17.8393 22.2025 17.8727 22.241 17.9084C22.3379 17.9957 22.3379 18.008 22.2328 18.0938C22.0155 18.2866 21.7934 18.4727 21.5734 18.6575C21.4662 18.7433 21.4641 18.7469 21.3548 18.6553C21.0221 18.3724 20.6859 18.0858 20.3497 17.8022L15.3241 13.5491C15.2794 13.512 15.2381 13.4713 15.1797 13.4204Z" fill="#006838"/>
<path fill-rule="evenodd" clip-rule="evenodd" d="M17.9504 23.3454L19.61 17.3745C19.6891 17.3702 19.7193 17.4167 19.7599 17.4502C19.9682 17.6247 20.1731 17.8051 20.3841 17.9738C20.4749 18.048 20.4948 18.1185 20.4646 18.2349C20.301 18.808 20.1421 19.3825 19.9854 19.9585C19.9682 20.0204 19.9386 20.0785 19.9572 20.1585C20.0218 20.1323 20.0686 20.0858 20.1146 20.0465C21.3212 19.0254 22.5285 18.0036 23.7336 16.9782C23.9186 16.8211 23.9186 16.8211 23.986 17.0523C24.0595 17.3171 24.131 17.5825 24.2046 17.8487C24.2541 18.0356 24.2541 18.0356 24.1097 18.1607C22.721 19.3324 21.346 20.5062 19.9572 21.6756C19.3474 22.1949 18.7396 22.7098 18.1291 23.2276C18.0838 23.264 18.0411 23.3163 17.9497 23.3454" fill="#006838"/>
<path fill-rule="evenodd" clip-rule="evenodd" d="M26.922 23.3382C26.8547 23.3222 26.8189 23.2742 26.7749 23.2385C25.4171 22.0938 24.06 20.9455 22.7008 19.7985C22.5165 19.6436 22.5165 19.664 22.6987 19.512C22.8947 19.3484 23.0858 19.1804 23.2845 19.0167C23.4199 18.9025 23.422 18.9025 23.5547 19.0145C23.9575 19.3549 24.3618 19.6953 24.7654 20.0342C24.8183 20.0785 24.8705 20.1171 24.9269 20.1629C24.9606 20.0865 24.9255 20.032 24.9097 19.9782C24.4498 18.3236 23.9899 16.6691 23.5279 15.0167C23.4385 14.6902 23.4247 14.7185 23.7403 14.7185H24.3508C24.5337 14.7185 24.535 14.72 24.5832 14.9011C24.7942 15.6473 25.0019 16.3971 25.2109 17.1418C25.7698 19.1469 26.3294 21.1491 26.887 23.1556C26.9056 23.2109 26.9255 23.2647 26.922 23.3382ZM22.4395 7.30182C22.4918 7.35127 22.4932 7.40655 22.509 7.45891C23.0294 9.32582 23.5533 11.1913 24.073 13.0582C24.1329 13.2684 24.1301 13.2684 23.9273 13.2698C23.6832 13.2698 23.4392 13.2698 23.1972 13.2684C23.0439 13.2684 23.0425 13.2662 22.995 13.1098C22.8335 12.528 22.6678 11.9491 22.5083 11.3687C22.4918 11.3149 22.4829 11.2553 22.4416 11.2C22.3873 11.2618 22.3818 11.3367 22.3653 11.4065C21.8999 13.0647 21.4372 14.7265 20.9765 16.3869C20.9078 16.6255 20.9078 16.6255 20.7311 16.4756C20.5475 16.3222 20.3667 16.1687 20.1894 16.0145C20.0326 15.8836 20.0305 15.8807 20.0869 15.6844C20.3619 14.6967 20.6349 13.7062 20.9112 12.7185L22.3584 7.512C22.3811 7.44436 22.3873 7.37091 22.4409 7.30182" fill="#006838"/>
<path fill-rule="evenodd" clip-rule="evenodd" d="M20.1793 19.7018C20.1978 19.7331 20.2143 19.7629 20.2308 19.7934C20.2157 19.8269 20.1903 19.8465 20.1442 19.8567C20.1386 19.8297 20.1388 19.8018 20.1449 19.775C20.1509 19.7481 20.1627 19.7231 20.1793 19.7018Z" fill="#CC0000"/>
<path fill-rule="evenodd" clip-rule="evenodd" d="M24.6626 19.7891C24.677 19.76 24.6956 19.7323 24.71 19.704C24.719 19.7236 24.7327 19.7425 24.7403 19.76C24.7478 19.7891 24.7616 19.8254 24.7348 19.84C24.7004 19.8538 24.6798 19.8167 24.6626 19.7891Z" fill="#CC0000"/>
</g>
<defs>
<clipPath id="clip0_5_7026">
<rect width="44" height="32" rx="7" fill="white"/>
</clipPath>
</defs>
</svg>
