<svg width="40" height="40" viewBox="0 0 40 40" fill="none" xmlns="http://www.w3.org/2000/svg">
<g clip-path="url(#clip0_2_3510)">
<g clip-path="url(#clip1_2_3510)">
<path d="M20 40C31.0457 40 40 31.0457 40 20C40 8.9543 31.0457 0 20 0C8.9543 0 0 8.9543 0 20C0 31.0457 8.9543 40 20 40Z" fill="#F0F0F0"/>
<path d="M39.8826 22.174L39.8821 22.1733L39.882 22.174H39.8826Z" fill="#0052B4"/>
<path d="M39.882 22.1739C39.882 22.1738 39.8821 22.1736 39.8821 22.1733L17.9489 0.104004C16.9595 0.204863 15.9912 0.377832 15.0498 0.617598C6.39828 2.82033 0 20 0 20C0 20 27.9998 38.7371 31.1941 36.5753C31.8333 36.1428 32.4461 35.6743 33.0295 35.1728L20.0309 22.1739H39.882Z" fill="#0052B4"/>
<path d="M34.7826 19.9999L15.3316 0.549072C6.53812 2.65196 0 10.5618 0 19.9999C0 31.0456 8.95437 39.9999 20 39.9999C24.1898 39.9999 28.0779 38.7107 31.2913 36.5086L14.7826 19.9999H34.7826Z" fill="#D80027"/>
<path d="M19.0213 29.5308L16.5787 28.3819L17.8794 26.0163L15.227 26.5238L14.8909 23.8442L13.0435 25.8149L11.1961 23.8442L10.8599 26.5238L8.20766 26.0163L9.50836 28.3819L7.0657 29.5308L9.50836 30.6796L8.20766 33.0453L10.8601 32.5379L11.196 35.2173L13.0435 33.2466L14.8909 35.2173L15.227 32.5379L17.8793 33.0453L16.5786 30.6798L19.0213 29.5308Z" fill="#F0F0F0"/>
<path d="M17.3913 11.0925L15.6148 10.2569L16.5608 8.53639L14.6316 8.90545L14.3872 6.95654L13.0435 8.3899L11.6998 6.95654L11.4553 8.90545L9.52616 8.53639L10.4723 10.2569L8.69562 11.0925L13.0435 11.9622L17.3913 11.0925Z" fill="#F0F0F0"/>
<path d="M18.2609 11.0925C18.2609 13.974 15.9249 16.31 13.0434 16.31C10.162 16.31 7.82602 13.974 7.82602 11.0925" fill="#F0F0F0"/>
</g>
</g>
<defs>
<clipPath id="clip0_2_3510">
<rect width="40" height="40" fill="white"/>
</clipPath>
<clipPath id="clip1_2_3510">
<rect width="40" height="40" fill="white"/>
</clipPath>
</defs>
</svg>
