<svg width="44" height="32" viewBox="0 0 44 32" fill="none" xmlns="http://www.w3.org/2000/svg">
<g clip-path="url(#clip0_5_7017)">
<path d="M37.1255 0H6.87545C5.48051 0 4.29801 0.338886 3.3252 0.930845C8.99364 4.67313 22.5663 13.6296 25.2957 15.4389C25.4011 15.5134 25.482 15.6208 25.527 15.7463C25.5719 15.8717 25.5788 16.0088 25.5466 16.1385C25.5452 16.1458 25.5438 16.2076 25.5438 16.2076C25.4765 16.4549 25.2585 16.7261 25.0145 16.7261H10.9977C11.2122 16.7261 24.1908 30.5797 24.4961 30.9593C24.6577 31.1593 24.7161 31.3775 24.5813 31.6167C24.4851 31.7927 24.3022 31.9978 24.109 31.9978H37.1255C41.6815 31.9978 44.0005 28.4162 44.0005 23.9983V7.99945C44.0005 3.58157 41.6815 0 37.1255 0Z" fill="#E6E7E8"/>
<path d="M24.5809 31.6197C24.7157 31.3804 24.6572 31.1623 24.4957 30.9623C24.1877 30.5812 11.2118 16.7283 10.9973 16.7283H25.014C25.2581 16.7283 25.476 16.4571 25.5441 16.2098C25.5441 16.2098 25.5455 16.148 25.5469 16.1407C25.5789 16.011 25.5719 15.8739 25.5269 15.7486C25.482 15.6232 25.4012 15.5158 25.2959 15.4411C22.5665 13.6318 8.99389 4.67461 3.32544 0.933044C1.11856 2.27623 0 4.93568 0 8.00165V24.0006C0 28.4184 2.31894 32 6.87501 32H24.1107C24.3038 32 24.4867 31.7949 24.583 31.6197" fill="#003892"/>
<path d="M1.375 24.7256C1.375 26.2484 2.53688 30.5434 6.31675 30.5434H21.9725C21.9794 30.5434 21.9821 30.5187 21.9897 30.5092C17.1916 25.4346 12.3956 20.3623 7.58519 15.2717H21.9533C21.9546 15.2717 21.9546 15.1364 21.9594 15.1299C15.7169 10.9935 9.36238 6.80538 3.10475 2.65076C2.53138 3.27326 1.375 4.79315 1.375 7.36098V24.7234" fill="#DB143C"/>
<path fill-rule="evenodd" clip-rule="evenodd" d="M8.35342 18.6336L8.27023 19.3812C8.22898 19.7267 8.19117 20.0699 8.14442 20.4124C8.13136 20.5026 8.17673 20.4815 8.22486 20.475C8.75423 20.403 9.28292 20.3339 9.8123 20.2655C9.82605 20.2619 9.84324 20.2655 9.85974 20.2655C9.87555 20.3048 9.84186 20.3244 9.82399 20.3484C9.51461 20.7855 9.20317 21.2247 8.8883 21.6603C8.83536 21.7316 8.84086 21.7585 8.92198 21.7912C9.3888 21.9985 9.85424 22.2072 10.3197 22.4159C10.3554 22.4334 10.4001 22.4421 10.4365 22.485C10.101 22.637 9.76624 22.7846 9.43417 22.9337C9.26642 23.0093 9.09867 23.0901 8.92817 23.1584C8.84223 23.1926 8.8333 23.2202 8.89105 23.3002C9.20317 23.7264 9.50705 24.1605 9.81505 24.5918C9.8343 24.6194 9.86592 24.6412 9.86798 24.6936C9.5813 24.655 9.30011 24.6194 9.01892 24.5845C8.7508 24.5489 8.48611 24.5125 8.21936 24.4754C8.14511 24.4645 8.13823 24.4878 8.14923 24.5583C8.2173 25.1074 8.27917 25.6557 8.34242 26.2019C8.34655 26.2317 8.34655 26.2593 8.34861 26.2906C8.30323 26.2993 8.2833 26.2644 8.25511 26.2448C7.85155 25.9226 7.44455 25.6019 7.04579 25.2732C6.94886 25.1968 6.93029 25.2274 6.89248 25.3248C6.70342 25.8106 6.50679 26.2957 6.31086 26.7785C6.29711 26.8171 6.27992 26.8527 6.25792 26.9073C6.23454 26.8542 6.21529 26.8185 6.20154 26.7778C6.00354 26.2877 5.80348 25.7961 5.61304 25.3023C5.57523 25.2041 5.54704 25.2099 5.47623 25.2666C5.07679 25.5917 4.67048 25.9124 4.26554 26.2346C4.23529 26.2586 4.2126 26.2949 4.16104 26.2949L4.28823 25.2179C4.3116 25.0048 4.3336 24.7918 4.36592 24.5801C4.38035 24.4776 4.35079 24.4674 4.26279 24.4798C3.72792 24.5532 3.19029 24.6223 2.6506 24.6936C2.64029 24.6463 2.67466 24.6238 2.69529 24.5969C3.0026 24.162 3.30992 23.7264 3.62479 23.2951C3.67704 23.2195 3.66948 23.1933 3.59042 23.1606C3.12223 22.9563 2.65885 22.7446 2.19204 22.5359C2.15491 22.5206 2.11641 22.4996 2.06348 22.4763C2.51929 22.2727 2.96067 22.0734 3.39998 21.8778C3.43504 21.8596 3.47148 21.8429 3.50654 21.8269C3.68529 21.7454 3.68529 21.7454 3.56429 21.5774C3.27405 21.1739 2.98507 20.7693 2.69735 20.3637C2.67879 20.3375 2.64785 20.3135 2.64441 20.2612C2.86992 20.2888 3.09335 20.3157 3.31542 20.3455C3.6406 20.3862 3.96373 20.4292 4.28754 20.4786C4.3831 20.4924 4.37142 20.4459 4.36523 20.3841C4.2951 19.8241 4.23117 19.2649 4.16448 18.7042V18.6525C4.22704 18.6715 4.26485 18.7151 4.30679 18.7507C4.69454 19.0598 5.08573 19.3681 5.47142 19.6838C5.55461 19.747 5.57592 19.7383 5.61786 19.6379C5.80623 19.15 6.00354 18.6664 6.19811 18.1835L6.25792 18.0431C6.49098 18.6249 6.71442 19.1863 6.94542 19.7565L8.35273 18.6351M6.95229 9.68444C7.18811 9.53681 7.41017 9.40009 7.65767 9.24301C7.62123 9.49827 7.59442 9.72298 7.56211 9.95205C7.54011 10.0997 7.53736 10.1026 7.67486 10.0822L8.35411 9.98114C8.22967 10.2051 8.11761 10.4138 7.99523 10.6182C7.93886 10.7084 7.94848 10.7375 8.05436 10.7607C8.2723 10.8102 8.48955 10.8771 8.73086 10.9418C8.53011 11.1018 8.34792 11.2501 8.16298 11.3905C8.09423 11.4436 8.07292 11.4698 8.16023 11.5338C8.41736 11.733 8.41461 11.7381 8.67448 11.5454C9.33223 11.0561 9.84336 10.3774 10.1471 9.5899C10.1856 11.4858 8.73705 13.5373 6.46761 13.6653C4.09504 13.7991 2.34948 11.7614 2.35773 9.6059C2.39554 9.62408 2.39416 9.66698 2.40723 9.69607C2.74484 10.5102 3.30453 11.1992 4.0146 11.6748C4.07373 11.7156 4.12117 11.7287 4.17823 11.6705C4.2511 11.5949 4.39823 11.5519 4.40098 11.4589C4.40235 11.3949 4.25798 11.3258 4.17823 11.2596C4.05792 11.1607 3.93692 11.0669 3.81454 10.9694C3.81042 10.9658 3.81042 10.9556 3.80423 10.9382C4.02698 10.8756 4.24698 10.8087 4.47042 10.7578C4.57492 10.7345 4.56254 10.7025 4.51854 10.624C4.39685 10.4182 4.28342 10.2059 4.15692 9.98114C4.40923 10.0204 4.64985 10.0502 4.88498 10.0931C4.9606 10.107 4.96885 10.0859 4.95717 10.0153C4.92073 9.76661 4.89117 9.5179 4.85404 9.24301C5.10017 9.39791 5.32498 9.53681 5.55873 9.68444C5.62748 9.40882 5.69211 9.14193 5.76429 8.84595C5.93273 9.08375 6.08879 9.30555 6.25792 9.53972C6.41604 9.31282 6.57486 9.09248 6.74811 8.84958L6.95229 9.68444Z" fill="#FEFEFE"/>
</g>
<defs>
<clipPath id="clip0_5_7017">
<rect width="44" height="32" rx="7" fill="white"/>
</clipPath>
</defs>
</svg>
