<svg width="44" height="32" viewBox="0 0 44 32" fill="none" xmlns="http://www.w3.org/2000/svg">
<g clip-path="url(#clip0_5_6959)">
<path d="M6.875 0C2.31894 0 0 3.58182 0 8V24C0 28.4182 2.31894 32 6.875 32H13.75V0H6.875Z" fill="white"/>
<path d="M37.125 0H13.75V32H37.125C41.6811 32 44 28.4182 44 24V8C44 3.58182 41.6811 0 37.125 0Z" fill="#006838"/>
<path d="M30.5999 8.38397L32.1564 9.91197L34.2258 9.42397L33.3334 11.4647L34.4128 13.3992L32.3001 13.1272L30.8949 14.8138L30.4872 12.6102L28.5347 11.7149L30.3909 10.6196L30.5999 8.38397Z" fill="white"/>
<path d="M36.0045 18.4218C33.0476 21.5505 28.255 21.5505 25.2974 18.4218C22.3398 15.2938 22.3398 10.2233 25.2974 7.09525C25.5016 6.87998 25.7147 6.68289 25.9347 6.49744C24.4183 6.90406 23.0338 7.73625 21.9273 8.90616C18.5132 12.5185 18.5132 18.3752 21.9273 21.9876C25.3435 25.5992 30.8785 25.5992 34.2934 21.9876C35.3993 20.8171 36.186 19.3525 36.5704 17.7483C36.3934 17.9834 36.2045 18.2082 36.0045 18.4218Z" fill="white"/>
</g>
<defs>
<clipPath id="clip0_5_6959">
<rect width="44" height="32" rx="7" fill="white"/>
</clipPath>
</defs>
</svg>
