<svg width="23" height="26" viewBox="0 0 23 26" fill="none" xmlns="http://www.w3.org/2000/svg">
<path d="M11.0741 13C14.5693 13 17.4021 10.0902 17.4021 6.5C17.4021 2.90977 14.5693 0 11.0741 0C7.57882 0 4.74603 2.90977 4.74603 6.5C4.74603 10.0902 7.57882 13 11.0741 13ZM15.5037 14.625H14.6781C13.5806 15.143 12.3595 15.4375 11.0741 15.4375C9.78869 15.4375 8.57252 15.143 7.47006 14.625H6.64444C2.97616 14.625 0 17.682 0 21.45V23.5625C0 24.9082 1.06291 26 2.37302 26H19.7751C21.0852 26 22.1481 24.9082 22.1481 23.5625V21.45C22.1481 17.682 19.172 14.625 15.5037 14.625Z" fill="#022140"/>
</svg>
