<svg width="44" height="32" viewBox="0 0 44 32" fill="none" xmlns="http://www.w3.org/2000/svg">
<g clip-path="url(#clip0_5_6930)">
<path d="M22.3121 16.0204L2.82568 30.7245C3.88306 31.5288 5.23124 32 6.87505 32H37.125C41.681 32 44 28.4185 44 24.0007V16.0015H22.286L22.3121 16.0218" fill="#E30000"/>
<path d="M37.1248 0H6.87485C5.36167 0 4.09736 0.401418 3.08398 1.09081L22.2858 15.9986H43.9998V7.99928C43.9998 3.58149 41.6809 0 37.1248 0Z" fill="#1B75BB"/>
<path d="M22.286 15.9985L3.08412 1.09082C1.04019 2.4776 0 5.04828 0 7.99928V23.9978C0 26.8216 0.952187 29.2984 2.82562 30.7216L22.3121 16.0189L22.286 15.9985Z" fill="white"/>
<path fill-rule="evenodd" clip-rule="evenodd" d="M13.9747 15.9854C13.9452 15.8851 13.6846 15.6975 13.5801 15.704C12.9125 15.7476 12.2477 15.7949 11.5808 15.8378L11.5657 15.84C11.5637 15.7826 11.5568 15.7258 11.5506 15.6691L11.5643 15.6684C11.9583 15.6138 12.3522 15.5615 12.7455 15.5069C12.9792 15.4735 13.2143 15.4379 13.4605 15.4015C13.345 15.1906 13.2143 15.1332 13.0033 15.1862C12.5241 15.307 12.0373 15.3942 11.5554 15.5011L11.5265 15.5069C11.4648 15.1714 11.3404 14.8523 11.1608 14.5681C11.178 14.5543 11.1979 14.5398 11.2199 14.5245C11.6324 14.2409 12.0408 13.9471 12.4512 13.6569C12.6465 13.5195 12.6657 13.4584 12.5867 13.2002C12.0834 13.6089 11.5822 14.0162 11.0803 14.4198C11.0753 14.4227 11.071 14.427 11.068 14.4321L10.9676 14.3034C10.9731 14.2991 10.9772 14.294 10.9834 14.2896C11.4736 13.83 11.9679 13.3733 12.4595 12.9145C12.5619 12.8199 12.6252 12.5341 12.5708 12.4112C12.561 12.3898 12.5445 12.3726 12.5241 12.3625C12.4052 12.3051 12.1398 12.372 12.0483 12.481C11.6145 13.0024 11.1848 13.526 10.749 14.0445C10.7442 14.0496 10.7407 14.0554 10.7373 14.0605C10.6967 14.0242 10.6582 13.9893 10.6149 13.9551C10.6197 13.9515 10.6232 13.9456 10.6273 13.9413C10.9813 13.4497 11.3347 12.961 11.6908 12.4701C11.7218 12.428 11.7706 12.393 11.7658 12.3261C11.4743 12.2869 11.4743 12.2869 11.3258 12.5232C11.0453 12.9683 10.7641 13.4111 10.4857 13.8569C10.2175 13.6673 9.91658 13.5355 9.60016 13.4693L9.60153 13.4613C9.70191 12.945 9.78509 12.4236 9.90197 11.9109C9.95216 11.6862 9.90334 11.5473 9.69641 11.4215C9.61184 12.1 9.53072 12.7617 9.44547 13.422L9.44478 13.4424C9.39253 13.4359 9.34097 13.4293 9.28734 13.4257C9.28872 13.422 9.28872 13.417 9.28872 13.4126C9.33066 12.7072 9.37397 12.0033 9.41453 11.2979C9.42209 11.1822 9.25022 10.9139 9.15053 10.879C9.13438 10.8739 9.11718 10.8739 9.10103 10.879C8.99378 10.9183 8.82741 11.1873 8.83566 11.3168C8.87759 12.0091 8.92297 12.7014 8.96491 13.393C8.96491 13.4031 8.96697 13.414 8.96972 13.425C8.91459 13.429 8.85957 13.4346 8.80472 13.4417L8.80334 13.4213C8.72634 12.8097 8.65278 12.1967 8.57784 11.5851C8.57097 11.5342 8.58334 11.4717 8.52628 11.4368C8.30422 11.6302 8.30491 11.6302 8.35647 11.8956C8.45272 12.4076 8.54484 12.9188 8.64453 13.4293C8.64797 13.4424 8.64934 13.4555 8.65209 13.4686C8.32966 13.534 8.02991 13.6693 7.76659 13.8562C7.75348 13.8366 7.74042 13.817 7.72741 13.7973C7.46272 13.3646 7.18909 12.9385 6.91822 12.5101C6.76697 12.2701 6.75459 12.2658 6.47409 12.3407C6.51053 12.3945 6.54491 12.4461 6.57997 12.4956C6.93059 12.9821 7.28534 13.4679 7.63597 13.9573C7.59541 13.9922 7.55416 14.0271 7.51359 14.0649C7.49017 14.0359 7.46634 14.0073 7.44209 13.9791L6.19428 12.4716C6.11247 12.372 5.83678 12.3087 5.73022 12.364C5.70987 12.3751 5.69383 12.3933 5.68485 12.4156C5.62847 12.5494 5.69791 12.8308 5.80791 12.9334C6.29603 13.3864 6.78622 13.8395 7.27228 14.2947C7.27778 14.2983 7.28122 14.302 7.28672 14.3049C7.25166 14.3463 7.21797 14.39 7.18703 14.4336L7.17122 14.4198C6.70716 14.0474 6.24378 13.67 5.78247 13.2962C5.74328 13.2635 5.71028 13.2075 5.64772 13.2184C5.59341 13.4286 5.64978 13.5682 5.83334 13.6882C6.26234 13.9696 6.67484 14.278 7.09491 14.5703C6.91891 14.8488 6.79241 15.1666 6.73053 15.5084C6.72572 15.5069 6.72159 15.5069 6.71816 15.5048C6.22453 15.3979 5.72885 15.2931 5.23522 15.1862C4.99116 15.1346 4.93822 15.1593 4.80691 15.4C4.85091 15.411 4.8901 15.4233 4.93066 15.4291C5.50953 15.5084 6.08978 15.5869 6.66591 15.6691L6.70509 15.6698C6.69738 15.7258 6.6921 15.7821 6.68928 15.8386C6.67897 15.8364 6.67003 15.8342 6.65834 15.8342C5.99903 15.7927 5.33697 15.7462 4.67766 15.7047C4.5656 15.6975 4.31191 15.8815 4.28028 15.984C4.2766 16.0013 4.27707 16.0193 4.28166 16.0363C4.31878 16.1483 4.5766 16.3243 4.69691 16.3156C5.35003 16.2705 6.00385 16.2225 6.65972 16.1789C6.66934 16.1789 6.67828 16.1767 6.68859 16.1745C6.69203 16.2327 6.69753 16.2901 6.70441 16.3483L6.68653 16.3498C6.27334 16.4087 5.86222 16.4574 5.44972 16.5192C5.23453 16.5512 5.01522 16.5592 4.79866 16.6298C4.98703 16.8792 4.98703 16.8785 5.25241 16.8217C5.73022 16.7207 6.20803 16.6218 6.68378 16.5185C6.69903 16.515 6.7144 16.5121 6.72984 16.5098C6.79154 16.8457 6.91664 17.165 7.09766 17.4486C7.09147 17.4537 7.08528 17.4566 7.07909 17.4609C6.65972 17.7475 6.2541 18.0558 5.82785 18.3329C5.64153 18.4536 5.59616 18.5947 5.64841 18.8019C5.72197 18.7968 5.75772 18.7423 5.8031 18.7037C6.26234 18.3343 6.72159 17.9613 7.17809 17.5933L7.18703 17.5831C7.22003 17.6282 7.25166 17.6704 7.28672 17.7118L7.27916 17.7184C6.78209 18.1831 6.28434 18.6427 5.7866 19.1044C5.69447 19.1895 5.63122 19.5102 5.68897 19.6128C5.70142 19.6332 5.72048 19.6482 5.7426 19.6549C5.88216 19.7095 6.11041 19.6455 6.21284 19.5233C6.64597 19.0004 7.07703 18.479 7.51291 17.9598C7.51291 17.9576 7.51497 17.9554 7.51703 17.954C7.55484 17.9896 7.59609 18.026 7.63666 18.0602L7.62841 18.0682C7.28122 18.5568 6.92647 19.0397 6.57722 19.5226C6.54078 19.5735 6.47616 19.6149 6.48853 19.6891C6.70784 19.7647 6.83297 19.6622 6.94434 19.4702C7.20766 19.0295 7.49159 18.6027 7.76109 18.1649L7.76659 18.1562C8.02991 18.3423 8.32966 18.4769 8.65209 18.5438C8.64934 18.5568 8.64797 18.5721 8.64453 18.5881C8.54416 19.0979 8.45134 19.6106 8.35509 20.1203C8.30284 20.4003 8.31178 20.4258 8.55584 20.5821L8.68922 19.5197C8.72841 19.2026 8.76553 18.887 8.80609 18.5707C8.86041 18.5779 8.91403 18.5838 8.96697 18.5867C8.96628 18.6245 8.96147 18.6623 8.95803 18.7008C8.91678 19.367 8.87553 20.0345 8.83566 20.7007C8.82672 20.8235 9.00478 21.1043 9.10584 21.1355C9.12218 21.1389 9.13909 21.1374 9.15466 21.1312C9.27153 21.0846 9.42209 20.8286 9.41384 20.6897C9.37191 19.9909 9.32859 19.2921 9.28734 18.5947V18.5859C9.33959 18.583 9.39253 18.5772 9.44478 18.5707L9.44547 18.5823C9.48397 18.8921 9.51972 19.2004 9.55959 19.5095L9.69778 20.5887C9.95009 20.3996 9.95147 20.3923 9.89853 20.1167C9.79884 19.5989 9.70603 19.0819 9.60222 18.5648C9.60157 18.5577 9.60019 18.5506 9.59809 18.5438C9.91523 18.4782 10.2169 18.3467 10.4857 18.1569C10.4911 18.1634 10.4959 18.1705 10.5001 18.178C10.7696 18.623 11.0618 19.0521 11.3251 19.5008C11.4385 19.6964 11.5712 19.7458 11.7651 19.6884C11.761 19.612 11.7087 19.572 11.6737 19.5226C11.3272 19.0419 10.9779 18.5634 10.6342 18.082C10.6273 18.0733 10.6204 18.0667 10.6128 18.0594C10.6562 18.0245 10.6947 17.9889 10.7359 17.9525C10.74 17.9598 10.7448 17.9664 10.749 17.9707C11.1848 18.4899 11.6166 19.0128 12.049 19.5335C12.1398 19.6411 12.4086 19.708 12.5268 19.6498C12.5466 19.6389 12.5624 19.6212 12.5715 19.5997C12.6245 19.4739 12.5612 19.1924 12.4581 19.0972L10.9648 17.7118C10.9999 17.6689 11.0322 17.6282 11.0638 17.5838C11.0659 17.5838 11.0673 17.5838 11.0673 17.5853C11.4262 17.8733 11.7823 18.1678 12.1418 18.4536C12.2938 18.5743 12.432 18.7154 12.6059 18.8092C12.6637 18.5779 12.5928 18.4369 12.4065 18.3161C11.9872 18.0434 11.5829 17.7387 11.1711 17.4537C11.167 17.4508 11.1635 17.4464 11.1587 17.4442C11.3347 17.165 11.4633 16.8486 11.5258 16.5069C11.5334 16.5069 11.5375 16.509 11.5437 16.5098C12.0367 16.6174 12.5372 16.7054 13.0267 16.8319C13.2446 16.8894 13.3477 16.7941 13.4557 16.6232C13.4048 16.6094 13.3649 16.5941 13.3237 16.5883C12.7517 16.5083 12.1797 16.4305 11.6083 16.3476C11.5912 16.3454 11.5698 16.3461 11.5506 16.3461C11.5575 16.2872 11.5643 16.2283 11.5678 16.1694C11.5821 16.1736 11.5965 16.177 11.6111 16.1796C12.2608 16.2203 12.9084 16.2676 13.5567 16.312C13.6798 16.3207 13.9348 16.1469 13.974 16.0342C13.9783 16.018 13.978 16.0008 13.9733 15.9847" fill="#E6E600"/>
<path d="M3.40501 5.10498L3.83745 6.03071L4.80201 6.17979L4.1042 6.89973L4.26851 7.91709L3.40501 7.43713L2.54082 7.91709L2.70651 6.89973L2.00732 6.17979L2.97257 6.03071L3.40501 5.10498ZM3.40501 23.5397L3.83745 24.461L4.80201 24.6101L4.1042 25.33L4.26851 26.3467L3.40501 25.8667L2.54082 26.3467L2.70651 25.33L2.00732 24.6101L2.97257 24.461L3.40501 23.5397ZM17.7139 14.2321L18.1464 15.1572L19.1116 15.3077L18.4124 16.0276L18.5761 17.0435L17.7139 16.5636L16.8498 17.0435L17.0148 16.0276L16.3156 15.3077L17.2836 15.1572L17.7139 14.2321Z" fill="#E6E600"/>
</g>
<defs>
<clipPath id="clip0_5_6930">
<rect width="44" height="32" rx="7" fill="white"/>
</clipPath>
</defs>
</svg>
