<svg width="30" height="39" viewBox="0 0 30 39" fill="none" xmlns="http://www.w3.org/2000/svg">
<g filter="url(#filter0_d_2_3057)">
<path d="M17.871 25.6235C20.8255 21.404 25 14.7 25 10.5C25 7.84785 23.9464 5.30431 22.0711 3.42895C20.1957 1.55358 17.6522 0.500015 15 0.500015C12.3478 0.500015 9.8043 1.55358 7.92893 3.42895C6.05357 5.30431 5 7.84785 5 10.5C5 14.7 9.1745 21.404 12.129 25.6235C12.4518 26.0855 12.8814 26.4628 13.3812 26.7233C13.8811 26.9838 14.4364 27.1198 15 27.1198C15.5636 27.1198 16.1189 26.9838 16.6188 26.7233C17.1186 26.4628 17.5482 26.0855 17.871 25.6235ZM10 14.5V9.50002C10 9.2348 10.1054 8.98044 10.2929 8.79291C10.4804 8.60537 10.7348 8.50002 11 8.50002H12.5V8.00002C12.5 7.60219 12.658 7.22066 12.9393 6.93935C13.2206 6.65805 13.6022 6.50002 14 6.50002H16C16.3978 6.50002 16.7794 6.65805 17.0607 6.93935C17.342 7.22066 17.5 7.60219 17.5 8.00002V8.50002H19C19.2652 8.50002 19.5196 8.60537 19.7071 8.79291C19.8946 8.98044 20 9.2348 20 9.50002V14.5C20 14.7652 19.8946 15.0196 19.7071 15.2071C19.5196 15.3947 19.2652 15.5 19 15.5H11C10.7348 15.5 10.4804 15.3947 10.2929 15.2071C10.1054 15.0196 10 14.7652 10 14.5ZM16.5 8.00002V8.50002H13.5V8.00002C13.5 7.86741 13.5527 7.74023 13.6464 7.64646C13.7402 7.55269 13.8674 7.50002 14 7.50002H16C16.1326 7.50002 16.2598 7.55269 16.3536 7.64646C16.4473 7.74023 16.5 7.86741 16.5 8.00002ZM25.5 27C25.5 30.2475 17.4635 30.5 15 30.5C12.5365 30.5 4.5 30.25 4.5 27C4.5 25.6655 5.85 24.6875 8.5125 24.094C8.77142 24.0363 9.04265 24.0839 9.26652 24.2262C9.49039 24.3685 9.64857 24.5938 9.70625 24.8528C9.76393 25.1117 9.7164 25.3829 9.57411 25.6068C9.43182 25.8307 9.20642 25.9888 8.9475 26.0465C7.2735 26.4195 6.711 26.8405 6.5475 27.005C6.995 27.476 9.4615 28.5 15 28.5C20.5385 28.5 23.005 27.476 23.4535 27.005C23.289 26.8405 22.726 26.4195 21.0535 26.0465C20.9204 26.0231 20.7934 25.973 20.6802 25.8991C20.567 25.8253 20.47 25.7293 20.3949 25.6169C20.3199 25.5045 20.2684 25.378 20.2436 25.2452C20.2188 25.1123 20.2212 24.9758 20.2506 24.8439C20.28 24.712 20.3359 24.5874 20.4148 24.4777C20.4937 24.368 20.5941 24.2754 20.7098 24.2055C20.8255 24.1357 20.9541 24.09 21.088 24.0713C21.2218 24.0525 21.3581 24.0611 21.4885 24.0965C24.15 24.6875 25.5 25.6655 25.5 27Z" fill="#022140"/>
</g>
<defs>
<filter id="filter0_d_2_3057" x="0.5" y="0.500015" width="29" height="38" filterUnits="userSpaceOnUse" color-interpolation-filters="sRGB">
<feFlood flood-opacity="0" result="BackgroundImageFix"/>
<feColorMatrix in="SourceAlpha" type="matrix" values="0 0 0 0 0 0 0 0 0 0 0 0 0 0 0 0 0 0 127 0" result="hardAlpha"/>
<feOffset dy="4"/>
<feGaussianBlur stdDeviation="2"/>
<feComposite in2="hardAlpha" operator="out"/>
<feColorMatrix type="matrix" values="0 0 0 0 0 0 0 0 0 0 0 0 0 0 0 0 0 0 0.25 0"/>
<feBlend mode="normal" in2="BackgroundImageFix" result="effect1_dropShadow_2_3057"/>
<feBlend mode="normal" in="SourceGraphic" in2="effect1_dropShadow_2_3057" result="shape"/>
</filter>
</defs>
</svg>
