<svg width="26" height="26" viewBox="0 0 26 26" fill="none" xmlns="http://www.w3.org/2000/svg">
<path d="M17.6391 7.96774C16.879 3.28669 15.0863 0 13 0C10.9137 0 9.12097 3.28669 8.36089 7.96774H17.6391ZM7.96774 13C7.96774 14.1637 8.03065 15.2802 8.14073 16.3548H17.854C17.9641 15.2802 18.027 14.1637 18.027 13C18.027 11.8363 17.9641 10.7198 17.854 9.64516H8.14073C8.03065 10.7198 7.96774 11.8363 7.96774 13ZM24.9883 7.96774C23.4891 4.40847 20.454 1.65645 16.706 0.545161C17.9851 2.31694 18.8657 4.98508 19.327 7.96774H24.9883ZM9.28871 0.545161C5.54597 1.65645 2.50565 4.40847 1.01169 7.96774H6.67298C7.12903 4.98508 8.00968 2.31694 9.28871 0.545161ZM25.5492 9.64516H19.5367C19.6468 10.746 19.7097 11.873 19.7097 13C19.7097 14.127 19.6468 15.254 19.5367 16.3548H25.544C25.8323 15.2802 25.9948 14.1637 25.9948 13C25.9948 11.8363 25.8323 10.7198 25.5492 9.64516ZM6.29032 13C6.29032 11.873 6.35323 10.746 6.46331 9.64516H0.450806C0.167742 10.7198 0 11.8363 0 13C0 14.1637 0.167742 15.2802 0.450806 16.3548H6.45806C6.35323 15.254 6.29032 14.127 6.29032 13ZM8.36089 18.0323C9.12097 22.7133 10.9137 26 13 26C15.0863 26 16.879 22.7133 17.6391 18.0323H8.36089ZM16.7113 25.4548C20.454 24.3435 23.4944 21.5915 24.9935 18.0323H19.3323C18.871 21.0149 17.9903 23.6831 16.7113 25.4548ZM1.01169 18.0323C2.51089 21.5915 5.54597 24.3435 9.29395 25.4548C8.01492 23.6831 7.13427 21.0149 6.67298 18.0323H1.01169Z" fill="#022140"/>
</svg>
