<svg width="37" height="37" viewBox="0 0 37 37" fill="none" xmlns="http://www.w3.org/2000/svg">
<g clip-path="url(#clip0_2_649)">
<path fill-rule="evenodd" clip-rule="evenodd" d="M26.2938 17.3811L22.8125 20.8624C21.9374 21.7375 20.751 22.2289 19.5135 22.2289C18.276 22.2289 17.0896 21.7375 16.2145 20.8624C16.1887 20.8366 16.1634 20.8113 16.1377 20.7855C15.2625 19.9104 14.7711 18.724 14.7711 17.4865C14.7711 16.249 15.2625 15.0626 16.1377 14.1875L19.6189 10.7063L14.4473 5.5343C13.976 5.06335 13.2122 5.06335 12.7409 5.5343C11.2492 7.02637 7.96026 10.3153 4.15287 14.1223C1.64009 16.6351 0.150439 19.9647 0.0108847 23.3784C-0.12867 26.7924 1.09354 30.011 3.40885 32.3263L4.47582 33.3933L8.08774 31.5726C11.5115 29.8473 15.5505 29.8473 18.9738 31.5726C19.3253 31.75 19.6687 31.9422 20.0025 32.1445L21.1367 31.5726C22.4832 30.8942 23.9245 30.4824 25.3869 30.3376L31.4657 24.2591C31.9367 23.7878 31.9367 23.024 31.4657 22.5527L26.2938 17.3811Z" fill="white"/>
<path fill-rule="evenodd" clip-rule="evenodd" d="M23.5183 8.51282L16.9906 15.0409C16.3419 15.6892 15.9775 16.5692 15.9775 17.4865C15.9775 18.4039 16.3419 19.2834 16.9906 19.9321L17.0678 20.0094C17.7165 20.6581 18.5961 21.0224 19.5135 21.0224C20.4308 21.0224 21.3108 20.6581 21.9591 20.0094L28.4872 13.4817L23.5183 8.51282Z" fill="white"/>
<path fill-rule="evenodd" clip-rule="evenodd" d="M24.3717 7.6598L29.3402 12.6283L37 4.96886V0H32.0311L24.3717 7.6598Z" fill="white"/>
<path fill-rule="evenodd" clip-rule="evenodd" d="M21.1624 32.9111C23.3429 34.4695 24.8607 36.2069 24.8607 36.2069C25.0558 36.4309 25.1575 36.7141 25.158 37H37C37 37 34.5616 34.2037 31.4797 32.6501C28.3975 31.0969 24.7614 31.0969 21.6795 32.6501L21.1624 32.9111Z" fill="white"/>
<path fill-rule="evenodd" clip-rule="evenodd" d="M23.9515 37C23.9515 37 21.5131 34.2037 18.4308 32.6501C15.349 31.0969 11.7129 31.0969 8.63065 32.6501C4.75772 34.6022 0 37 0 37H23.9515Z" fill="white"/>
</g>
<defs>
<clipPath id="clip0_2_649">
<rect width="37" height="37" fill="white"/>
</clipPath>
</defs>
</svg>
