<svg width="38" height="37" viewBox="0 0 38 37" fill="none" xmlns="http://www.w3.org/2000/svg">
<g filter="url(#filter0_d_2_3075)">
<path d="M32.1153 22.6834C31.4563 22.6834 30.923 23.2167 30.923 23.8757V24.7339L27.8078 21.6186C29.4018 19.6367 30.285 17.1691 30.285 14.5597C30.285 11.861 29.3305 9.38241 27.7446 7.43828L30.9207 4.26241V5.12193C30.9207 5.78038 31.454 6.31424 32.113 6.31424C32.772 6.31424 33.3053 5.78038 33.3053 5.12193V1.38432C33.3053 0.732486 32.7704 0.192017 32.113 0.192017H28.3754C27.7164 0.192017 27.1831 0.725877 27.1831 1.38432C27.1831 2.04277 27.7164 2.57663 28.3754 2.57663H29.2344L26.0496 5.76117C24.1156 4.20805 21.6652 3.27292 18.9976 3.27292C16.3295 3.27292 13.8788 4.20841 11.9448 5.76204L8.76258 2.57954H9.62217C10.2812 2.57954 10.8145 2.04568 10.8145 1.38724C10.8145 0.728788 10.2812 0.194927 9.62217 0.194927H5.88457C5.23268 0.194927 4.69226 0.73004 4.69226 1.38724V5.12426C4.69226 5.78271 5.22554 6.31657 5.88457 6.31657C6.5436 6.31657 7.07688 5.78271 7.07688 5.12426V4.26576L10.2503 7.43959C8.66536 9.3835 7.71145 11.8616 7.71145 14.5597C7.71145 17.1715 8.59579 19.6415 10.1921 21.6244L7.07921 24.7374V23.8781C7.07921 23.219 6.54593 22.6858 5.8869 22.6858C5.22787 22.6858 4.69459 23.219 4.69459 23.8781V27.6157C4.69459 28.2654 5.22691 28.808 5.8869 28.808H9.6245C10.2835 28.808 10.8168 28.2747 10.8168 27.6157C10.8168 26.9566 10.2835 26.4234 9.6245 26.4234H8.7652L11.8805 23.3081C11.9372 23.3544 11.987 23.407 12.0446 23.4524C12.0481 23.4552 12.0502 23.459 12.0537 23.4617C14.0208 24.9998 16.489 25.8464 18.9927 25.8464C21.5086 25.8464 23.9767 24.9998 25.9439 23.4617C25.9518 23.4556 25.9564 23.4467 25.9643 23.4403C26.019 23.3971 26.0665 23.3473 26.1203 23.3033L29.237 26.4199H28.3777C27.7187 26.4199 27.1854 26.9532 27.1854 27.6122C27.1854 28.2712 27.7187 28.8045 28.3777 28.8045H32.1153C32.7622 28.8045 33.3076 28.2746 33.3076 27.6122V23.8757C33.3076 23.2167 32.7744 22.6834 32.1153 22.6834ZM25.6199 20.4916C24.8518 19.1556 23.7049 18.0822 22.3312 17.4167C22.9274 16.6894 23.2732 15.7594 23.2732 14.746C23.2732 12.3852 21.3534 10.4656 19.0046 10.4656C16.6439 10.4656 14.7244 12.3852 14.7244 14.746C14.7244 15.7475 15.0699 16.6775 15.6542 17.4048C14.2828 18.0777 13.1374 19.1513 12.3695 20.485C10.9169 18.8649 10.0961 16.7811 10.0961 14.5597C10.0961 9.6513 14.0898 5.65754 18.9976 5.65754C23.9066 5.65754 27.9003 9.6513 27.9003 14.5597C27.9003 16.7841 27.0763 18.8705 25.6199 20.4916Z" fill="#022140"/>
</g>
<defs>
<filter id="filter0_d_2_3075" x="0.692261" y="0.192017" width="36.6154" height="36.616" filterUnits="userSpaceOnUse" color-interpolation-filters="sRGB">
<feFlood flood-opacity="0" result="BackgroundImageFix"/>
<feColorMatrix in="SourceAlpha" type="matrix" values="0 0 0 0 0 0 0 0 0 0 0 0 0 0 0 0 0 0 127 0" result="hardAlpha"/>
<feOffset dy="4"/>
<feGaussianBlur stdDeviation="2"/>
<feComposite in2="hardAlpha" operator="out"/>
<feColorMatrix type="matrix" values="0 0 0 0 0 0 0 0 0 0 0 0 0 0 0 0 0 0 0.25 0"/>
<feBlend mode="normal" in2="BackgroundImageFix" result="effect1_dropShadow_2_3075"/>
<feBlend mode="normal" in="SourceGraphic" in2="effect1_dropShadow_2_3075" result="shape"/>
</filter>
</defs>
</svg>
