<svg width="38" height="34" viewBox="0 0 38 34" fill="none" xmlns="http://www.w3.org/2000/svg">
<g filter="url(#filter0_d_2_2988)">
<path d="M27 16.1H31V17.1C31 18.75 29.65 20.1 28 20.1H21.78C21.92 19.46 21.99 18.79 22 18.1V18C22 12.49 17.51 8.00001 12 8.00001C11.31 8.00001 10.64 8.07001 10 8.20001C9.3 8.34001 8.63 8.56001 8 8.84001V3.10001C8 1.44001 9.35 0.100006 11 0.100006H28C29.65 0.100006 31 1.44001 31 3.10001V4.10001H27C24.24 4.10001 22 6.34001 22 9.10001V11.1C22 13.86 24.24 16.1 27 16.1ZM34 9.10001V11.1C34 12.75 32.65 14.1 31 14.1H27C25.35 14.1 24 12.75 24 11.1V9.10001C24 7.44001 25.35 6.10001 27 6.10001H31C32.65 6.10001 34 7.44001 34 9.10001ZM29 10.1C29 9.55001 28.55 9.10001 28 9.10001C27.45 9.10001 27 9.55001 27 10.1C27 10.65 27.45 11.1 28 11.1C28.55 11.1 29 10.65 29 10.1ZM20 18V18.1C19.99 18.79 19.89 19.46 19.72 20.1C18.79 23.5 15.68 26 12 26C7.59 26 4 22.41 4 18C4 15.05 5.61 12.46 8 11.08C8.62 10.72 9.29 10.44 10 10.25C10.64 10.09 11.31 10 12 10C16.41 10 20 13.59 20 18ZM16 19C16 18.6 15.77 18.26 15.43 18.1C15.3 18.04 15.15 18 15 18H13V16C13 15.45 12.55 15 12 15C11.45 15 11 15.45 11 16V19C11 19.55 11.45 20 12 20H15C15.55 20 16 19.55 16 19Z" fill="#022140"/>
</g>
<defs>
<filter id="filter0_d_2_2988" x="0" y="0.100006" width="38" height="33.9" filterUnits="userSpaceOnUse" color-interpolation-filters="sRGB">
<feFlood flood-opacity="0" result="BackgroundImageFix"/>
<feColorMatrix in="SourceAlpha" type="matrix" values="0 0 0 0 0 0 0 0 0 0 0 0 0 0 0 0 0 0 127 0" result="hardAlpha"/>
<feOffset dy="4"/>
<feGaussianBlur stdDeviation="2"/>
<feComposite in2="hardAlpha" operator="out"/>
<feColorMatrix type="matrix" values="0 0 0 0 0 0 0 0 0 0 0 0 0 0 0 0 0 0 0.25 0"/>
<feBlend mode="normal" in2="BackgroundImageFix" result="effect1_dropShadow_2_2988"/>
<feBlend mode="normal" in="SourceGraphic" in2="effect1_dropShadow_2_2988" result="shape"/>
</filter>
</defs>
</svg>
