<svg width="37" height="37" viewBox="0 0 37 37" fill="none" xmlns="http://www.w3.org/2000/svg">
<path fill-rule="evenodd" clip-rule="evenodd" d="M26.4855 6.79876C26.4855 4.74834 28.1505 3.08334 30.201 3.08334C32.2514 3.08334 33.9164 4.74834 33.9164 6.79876C33.9164 8.84918 32.2514 10.5142 30.201 10.5142C28.1505 10.5142 26.4855 8.84918 26.4855 6.79876ZM20.55 22.7539L25.0054 17.0051L24.9437 17.0359C25.1904 16.6967 25.2366 16.2651 25.0671 15.8796C24.899 15.4942 24.5275 15.2321 24.1282 15.2013C23.7104 15.1551 23.2957 15.3401 23.0475 15.6792L19.3182 20.5046L15.0462 17.1438C14.7841 16.9434 14.4758 16.8648 14.1675 16.8971C13.8607 16.9434 13.5832 17.1114 13.3966 17.3581L8.83484 23.2951L8.7408 23.4338C8.47872 23.9256 8.60205 24.5577 9.06455 24.8984C9.28039 25.0371 9.51164 25.1296 9.77372 25.1296C10.1298 25.1451 10.4675 24.9585 10.6833 24.6671L14.5529 19.686L18.9466 22.9867L19.0854 23.0777C19.5787 23.3398 20.1954 23.218 20.55 22.7539ZM23.8183 5.82797C23.7566 6.21339 23.7258 6.59881 23.7258 6.98422C23.7258 10.453 26.5316 13.2573 29.985 13.2573C30.3704 13.2573 30.7404 13.2126 31.1258 13.1509V25.5906C31.1258 30.8184 28.0425 33.9171 22.8008 33.9171H11.4094C6.16622 33.9171 3.08289 30.8184 3.08289 25.5906V14.1838C3.08289 8.94214 6.16622 5.82797 11.4094 5.82797H23.8183Z" fill="white"/>
</svg>
