<svg width="32" height="34" viewBox="0 0 32 34" fill="none" xmlns="http://www.w3.org/2000/svg">
<g filter="url(#filter0_d_2_3047)">
<path fill-rule="evenodd" clip-rule="evenodd" d="M12.9143 14.04V20.2C12.9143 22.6533 14.3269 24.8667 16.5897 25.9733L16.6446 26H7.77143C5.68686 26 4 24.36 4 22.3333V3.66667C4 1.64 5.68686 0 7.77143 0H21.4857C23.5703 0 25.2571 1.64 25.2571 3.66667V9.49333L22.8983 8.92C22.4457 8.8 21.9657 8.74667 21.4857 8.74667C21.0057 8.74667 20.5257 8.8 20.0731 8.92L16.288 9.84C14.2994 10.32 12.9143 12.0533 12.9143 14.04ZM20.1143 4H9.14286C8.58057 4 8.11429 4.45333 8.11429 5C8.11429 5.54667 8.58057 6 9.14286 6H20.1143C20.6766 6 21.1429 5.54667 21.1429 5C21.1429 4.45333 20.6766 4 20.1143 4ZM14.6286 8H9.14286C8.58057 8 8.11429 8.45333 8.11429 9C8.11429 9.54667 8.58057 10 9.14286 10H14.6286C15.1909 10 15.6571 9.54667 15.6571 9C15.6571 8.45333 15.1909 8 14.6286 8ZM9.14286 14H11.8857C12.448 14 12.9143 13.5467 12.9143 13C12.9143 12.4533 12.448 12 11.8857 12H9.14286C8.58057 12 8.11429 12.4533 8.11429 13C8.11429 13.5467 8.58057 14 9.14286 14ZM28 20.1933V14.0413C28 12.9693 27.2526 12.0373 26.1829 11.7773L22.4005 10.8587C21.8011 10.7133 21.1703 10.7133 20.571 10.8587L16.7886 11.7773C15.7189 12.0387 14.9714 12.9693 14.9714 14.0413V20.1933C14.9714 21.8947 15.9438 23.424 17.5086 24.1853L19.7989 25.2987C20.3269 25.5547 20.907 25.684 21.4857 25.684C22.0645 25.684 22.6446 25.5547 23.1726 25.2987L25.4629 24.1853C27.0277 23.424 28 21.8947 28 20.1933ZM23.2591 18.615L25.0479 20.4509C25.0729 20.4761 25.0927 20.5062 25.1062 20.5393C25.1197 20.5724 25.1267 20.6079 25.1267 20.6438C25.1267 20.6797 25.1197 20.7152 25.1062 20.7483C25.0927 20.7814 25.0729 20.8114 25.0479 20.8366L24.2975 21.6045C24.2473 21.6551 24.1796 21.6835 24.1091 21.6835C24.0385 21.6835 23.9708 21.6551 23.9206 21.6045L22.1282 19.7832C22.1033 19.7579 22.0835 19.7279 22.0699 19.6948C22.0564 19.6617 22.0495 19.6262 22.0495 19.5903C22.0495 19.5544 22.0564 19.5189 22.0699 19.4858C22.0835 19.4527 22.1033 19.4226 22.1282 19.3974L22.3167 19.2027L21.4276 18.293L20.6808 19.0572C20.7131 19.0807 20.7403 19.1109 20.7605 19.1458C20.7807 19.1808 20.7934 19.2197 20.798 19.26C20.8025 19.3003 20.7987 19.3412 20.7868 19.3799C20.7748 19.4186 20.7551 19.4544 20.7288 19.4848L20.1438 20.0816C20.0938 20.1327 20.026 20.1614 19.9553 20.1614C19.8846 20.1614 19.8168 20.1327 19.7668 20.0816L17.5388 17.8054C17.4893 17.754 17.4615 17.6847 17.4615 17.6125C17.4615 17.5403 17.4893 17.471 17.5388 17.4196L18.1238 16.8247C18.1539 16.7971 18.1893 16.7763 18.2278 16.7637C18.2663 16.7511 18.307 16.747 18.3471 16.7517C18.3872 16.7563 18.426 16.7696 18.4607 16.7906C18.4955 16.8117 18.5255 16.84 18.5488 16.8738L20.4247 14.9542C20.3906 14.9314 20.3618 14.9013 20.3402 14.8659C20.3186 14.8305 20.3048 14.7908 20.2997 14.7494C20.2947 14.7081 20.2985 14.666 20.3108 14.6263C20.3232 14.5866 20.3439 14.5501 20.3714 14.5194L20.9564 13.9207C21.0067 13.8701 21.0744 13.8417 21.1449 13.8417C21.2154 13.8417 21.2831 13.8701 21.3334 13.9207L23.5578 16.1988C23.5828 16.224 23.6026 16.254 23.6161 16.2871C23.6296 16.3202 23.6366 16.3557 23.6366 16.3916C23.6366 16.4275 23.6296 16.463 23.6161 16.4961C23.6026 16.5292 23.5828 16.5593 23.5578 16.5845L22.9746 17.1831C22.9448 17.2113 22.9094 17.2325 22.8708 17.2454C22.8323 17.2583 22.7915 17.2626 22.7511 17.258C22.7108 17.2533 22.672 17.2398 22.6372 17.2184C22.6024 17.197 22.5726 17.1682 22.5496 17.134L21.8028 17.8982L22.6919 18.8079L22.8821 18.615C22.9328 18.5652 23.0004 18.5374 23.0706 18.5374C23.1409 18.5374 23.2084 18.5652 23.2591 18.615Z" fill="#022140"/>
</g>
<defs>
<filter id="filter0_d_2_3047" x="0" y="0" width="32" height="34" filterUnits="userSpaceOnUse" color-interpolation-filters="sRGB">
<feFlood flood-opacity="0" result="BackgroundImageFix"/>
<feColorMatrix in="SourceAlpha" type="matrix" values="0 0 0 0 0 0 0 0 0 0 0 0 0 0 0 0 0 0 127 0" result="hardAlpha"/>
<feOffset dy="4"/>
<feGaussianBlur stdDeviation="2"/>
<feComposite in2="hardAlpha" operator="out"/>
<feColorMatrix type="matrix" values="0 0 0 0 0 0 0 0 0 0 0 0 0 0 0 0 0 0 0.25 0"/>
<feBlend mode="normal" in2="BackgroundImageFix" result="effect1_dropShadow_2_3047"/>
<feBlend mode="normal" in="SourceGraphic" in2="effect1_dropShadow_2_3047" result="shape"/>
</filter>
</defs>
</svg>
