<svg width="31" height="31" viewBox="0 0 31 31" fill="none" xmlns="http://www.w3.org/2000/svg">
<path d="M30.0461 0.980536C29.275 0.189068 28.1337 -0.105792 27.0695 0.204587L2.25391 7.42091C1.13112 7.73284 0.335295 8.62829 0.120915 9.76583C-0.0980912 10.9235 0.666889 12.3932 1.6663 13.0077L9.4256 17.7767C10.2214 18.2656 11.2486 18.143 11.9072 17.4788L20.7923 8.53828C21.2396 8.07271 21.9799 8.07271 22.4272 8.53828C22.8744 8.98833 22.8744 9.71772 22.4272 10.1833L13.5266 19.1253C12.8665 19.788 12.7431 20.82 13.2289 21.6208L17.9699 29.4579C18.5252 30.389 19.4814 30.9166 20.5301 30.9166C20.6535 30.9166 20.7923 30.9166 20.9157 30.9011C22.1187 30.7459 23.0749 29.9234 23.4297 28.7595L30.7864 3.9757C31.1103 2.92041 30.8173 1.772 30.0461 0.980536Z" fill="white"/>
</svg>
