<svg width="24" height="28" viewBox="0 0 24 28" fill="none" xmlns="http://www.w3.org/2000/svg">
<path fill-rule="evenodd" clip-rule="evenodd" d="M11.6375 27.2182C11.7852 27.2954 11.9503 27.3346 12.1154 27.3333C12.2805 27.332 12.4443 27.2914 12.5933 27.213L17.3504 24.6699C18.6995 23.9508 19.7559 23.1467 20.5801 22.2106C22.3721 20.1709 23.3506 17.5678 23.3332 14.8835L23.2768 6.02931C23.2714 5.00948 22.6016 4.09948 21.611 3.76869L12.7611 0.799416C12.2282 0.618985 11.6443 0.622908 11.1207 0.808569L2.30441 3.88374C1.31915 4.22761 0.661411 5.14415 0.666781 6.16528L0.723158 15.013C0.740608 17.7011 1.75272 20.2925 3.57424 22.3113C4.40648 23.2343 5.47228 24.0267 6.83607 24.734L11.6375 27.2182ZM10.3782 16.8119C10.5769 17.0028 10.8346 17.0969 11.0923 17.0943C11.35 17.093 11.6064 16.9963 11.8024 16.8028L17.0012 11.6775C17.3918 11.2918 17.3878 10.672 16.9931 10.2915C16.5971 9.91106 15.9595 9.91368 15.5689 10.2994L11.0775 14.7265L9.23856 12.9588C8.84258 12.5783 8.20632 12.5822 7.81436 12.9679C7.42375 13.3536 7.42777 13.9734 7.82376 14.3539L10.3782 16.8119Z" fill="white"/>
</svg>
