<svg width="40" height="40" viewBox="0 0 40 40" fill="none" xmlns="http://www.w3.org/2000/svg">
<g clip-path="url(#clip0_2_3286)">
<g clip-path="url(#clip1_2_3286)">
<path d="M48 30C48 35.5227 45.1013 40 39.4062 40H1.59375C-4.10133 40 -7 35.5227 -7 30V10C-7 4.47727 -4.10133 0 1.59375 0H39.4062C45.1013 0 48 4.47727 48 10V30Z" fill="#E30000"/>
<path fill-rule="evenodd" clip-rule="evenodd" d="M27.1843 25.7455C25.206 29.01 21.087 31.0691 16.7772 29.7373C12.7098 28.4773 9.91597 24.3082 10.1471 19.8118C10.3723 15.2955 13.5795 11.4545 17.7475 10.6755C22.1638 9.84546 25.7113 12.35 27.2264 14.9718C25.4311 13.1045 23.3437 12.2636 20.8996 12.5591C18.985 12.7918 17.3848 13.7073 16.1318 15.2527C13.6792 18.2727 13.7694 22.8018 16.3303 25.6518C17.799 27.2864 19.6054 28.1418 21.7375 28.1627C23.8679 28.1791 25.6752 27.3264 27.1894 25.75" fill="#F5F5FB"/>
<path d="M31.0101 16.7236L32.7547 18.4364L35.0819 17.8909L34.079 20.1818L35.2898 22.3464L32.9265 22.0455L31.3461 23.9364L30.8898 21.4618L28.7001 20.4582L30.7815 19.2364L31.0101 16.7236Z" fill="#F5F5FB"/>
</g>
</g>
<defs>
<clipPath id="clip0_2_3286">
<rect width="40" height="40" rx="20" fill="white"/>
</clipPath>
<clipPath id="clip1_2_3286">
<rect x="-7" width="55" height="40" rx="7" fill="white"/>
</clipPath>
</defs>
</svg>
