<svg width="44" height="32" viewBox="0 0 44 32" fill="none" xmlns="http://www.w3.org/2000/svg">
<g clip-path="url(#clip0_5_7000)">
<path d="M44 24C44 28.4182 41.6811 32 37.125 32H6.875C2.31894 32 0 28.4182 0 24V8C0 3.58182 2.31894 0 6.875 0H37.125C41.6811 0 44 3.58182 44 8V24Z" fill="#E30000"/>
<path fill-rule="evenodd" clip-rule="evenodd" d="M27.3474 20.5964C25.7648 23.208 22.4696 24.8553 19.0218 23.7898C15.7678 22.7818 13.5328 19.4466 13.7177 15.8495C13.8978 12.2364 16.4636 9.16365 19.798 8.54038C23.331 7.87638 26.169 9.88001 27.3811 11.9775C25.9449 10.4837 24.275 9.81092 22.3197 10.0473C20.788 10.2335 19.5078 10.9658 18.5055 12.2022C16.5433 14.6182 16.6155 18.2415 18.6643 20.5215C19.8392 21.8291 21.2843 22.5135 22.99 22.5302C24.6943 22.5433 26.1402 21.8611 27.3515 20.6" fill="#F5F5FB"/>
<path d="M30.4081 13.3789L31.8037 14.7491L33.6654 14.3127L32.8631 16.1455L33.8318 17.8771L31.9412 17.6364L30.6769 19.1491L30.3118 17.1695L28.5601 16.3665L30.2252 15.3891L30.4081 13.3789Z" fill="#F5F5FB"/>
</g>
<defs>
<clipPath id="clip0_5_7000">
<rect width="44" height="32" rx="7" fill="white"/>
</clipPath>
</defs>
</svg>
