<svg width="44" height="32" viewBox="0 0 44 32" fill="none" xmlns="http://www.w3.org/2000/svg">
<g clip-path="url(#clip0_5_6924)">
<path d="M39.1111 0H4.88889C3.59227 0 2.34877 0.51868 1.43192 1.44194C0.515078 2.36519 0 3.6174 0 4.92308L0 27.0769C0 28.3826 0.515078 29.6348 1.43192 30.5581C2.34877 31.4813 3.59227 32 4.88889 32H39.1111C40.4077 32 41.6512 31.4813 42.5681 30.5581C43.4849 29.6348 44 28.3826 44 27.0769V4.92308C44 3.6174 43.4849 2.36519 42.5681 1.44194C41.6512 0.51868 40.4077 0 39.1111 0Z" fill="#E30000"/>
<path d="M24.1424 13.584L21.9998 6.94403L19.8573 13.584H12.9248L18.5336 17.6862L16.391 24.3262L21.9998 20.2228L27.6086 24.3262L25.466 17.6862L31.0748 13.584H24.1424Z" fill="#E6E600"/>
</g>
<defs>
<clipPath id="clip0_5_6924">
<rect width="44" height="32" rx="7" fill="white"/>
</clipPath>
</defs>
</svg>
