<svg width="110" height="32" viewBox="0 0 110 32" fill="none" xmlns="http://www.w3.org/2000/svg">
<g filter="url(#filter0_d_2_728)">
<path d="M11.8653 23.6774L16.968 0.38063H20.0121L21.6661 2.36895L16.229 26H12.8682L11.8653 23.6774ZM10.5104 0.38063L14.8214 23.8533L13.7128 26H9.82418L4.38711 0.38063H10.5104ZM24.4638 23.7302L28.7396 0.38063H34.8453L29.4082 26H25.5372L24.4638 23.7302ZM22.2116 0.38063L27.4375 23.8181L26.3818 26H23.021L17.4607 2.33375L19.1851 0.38063H22.2116ZM47.3981 26H41.7147L41.7499 21.2492H47.3981C48.5711 21.2492 49.5624 20.9676 50.3718 20.4046C51.1929 19.8415 51.8146 19.0028 52.2369 17.8884C52.6709 16.7622 52.888 15.378 52.888 13.7358V12.6273C52.888 11.3956 52.7648 10.3163 52.5184 9.38964C52.2838 8.4512 51.9319 7.67112 51.4627 7.04941C50.9935 6.41596 50.407 5.94088 49.7031 5.62415C49.011 5.30743 48.2134 5.14907 47.3101 5.14907H41.6091V0.38063H47.3101C49.0462 0.38063 50.6357 0.679757 52.0786 1.27801C53.5331 1.86454 54.7883 2.70913 55.844 3.8118C56.9115 4.90273 57.7326 6.19895 58.3074 7.70045C58.894 9.19022 59.1872 10.8442 59.1872 12.6624V13.7358C59.1872 15.5423 58.894 17.1963 58.3074 18.6978C57.7326 20.1993 56.9174 21.4955 55.8616 22.5864C54.8059 23.6774 53.5566 24.522 52.1137 25.1202C50.6826 25.7067 49.1107 26 47.3981 26ZM45.2514 0.38063V26H39.0753V0.38063H45.2514ZM85.6054 0.38063V26H79.4469L70.3851 10.0583V26H64.209V0.38063H70.3851L79.4469 16.3224V0.38063H85.6054ZM108.241 21.2492V26H95.2901V21.2492H108.241ZM97.4896 0.38063V26H91.3135V0.38063H97.4896Z" fill="#CC0000"/>
</g>
<defs>
<filter id="filter0_d_2_728" x="0.0628824" y="0.380615" width="109.619" height="31.3852" filterUnits="userSpaceOnUse" color-interpolation-filters="sRGB">
<feFlood flood-opacity="0" result="BackgroundImageFix"/>
<feColorMatrix in="SourceAlpha" type="matrix" values="0 0 0 0 0 0 0 0 0 0 0 0 0 0 0 0 0 0 127 0" result="hardAlpha"/>
<feOffset dx="-1.44144" dy="2.88288"/>
<feGaussianBlur stdDeviation="1.44144"/>
<feComposite in2="hardAlpha" operator="out"/>
<feColorMatrix type="matrix" values="0 0 0 0 0 0 0 0 0 0 0 0 0 0 0 0 0 0 0.1 0"/>
<feBlend mode="normal" in2="BackgroundImageFix" result="effect1_dropShadow_2_728"/>
<feBlend mode="normal" in="SourceGraphic" in2="effect1_dropShadow_2_728" result="shape"/>
</filter>
</defs>
</svg>
