<svg width="40" height="40" viewBox="0 0 40 40" fill="none" xmlns="http://www.w3.org/2000/svg">
<g clip-path="url(#clip0_2_3348)">
<g clip-path="url(#clip1_2_3348)">
<path d="M20 40C31.0457 40 40 31.0457 40 20C40 8.9543 31.0457 0 20 0C8.9543 0 0 8.9543 0 20C0 31.0457 8.9543 40 20 40Z" fill="#F0F0F0"/>
<path d="M20 0V20L5.85782 34.1422C9.47712 37.7614 14.4771 40 20 40C31.0456 40 40 31.0456 40 20C40 8.95437 20 0 20 0Z" fill="#D80027"/>
<path d="M20 0C14.4771 0 9.47712 2.23859 5.85782 5.85781C10.7649 10.7648 12.5068 12.5069 20 20H40C40 8.95437 31.0456 0 20 0Z" fill="#0052B4"/>
<path d="M13.6946 20L11.2521 18.8511L12.5528 16.4855L9.90046 16.9929L9.56437 14.3135L7.71687 16.2841L5.86945 14.3135L5.53328 16.9929L2.88101 16.4854L4.18171 18.8511L1.73914 20L4.18171 21.1489L2.88101 23.5144L5.53351 23.0071L5.86937 25.6864L7.71687 23.7158L9.56437 25.6864L9.90046 23.0071L12.5527 23.5145L11.252 21.1489L13.6946 20Z" fill="#FFDA44"/>
<path d="M5.33383 7.82617L6.14664 8.96234L7.47828 8.54055L6.64875 9.66461L7.46156 10.8008L6.13609 10.3593L5.30664 11.4833L5.31703 10.0864L3.99164 9.64484L5.32351 9.22305L5.33383 7.82617Z" fill="#FFDA44"/>
<path d="M5.33383 28.5168L6.14664 29.653L7.47828 29.2311L6.64875 30.3553L7.46156 31.4915L6.13609 31.05L5.30664 32.174L5.31703 30.7771L3.99164 30.3355L5.32351 29.9137L5.33383 28.5168Z" fill="#FFDA44"/>
<path d="M16.927 18.1716L16.1143 19.3078L14.7826 18.8858L15.6121 20.01L14.7993 21.1462L16.1248 20.7047L16.9543 21.8287L16.9438 20.4319L18.2692 19.9903L16.9374 19.5685L16.927 18.1716Z" fill="#FFDA44"/>
</g>
</g>
<defs>
<clipPath id="clip0_2_3348">
<rect width="40" height="40" rx="20" fill="white"/>
</clipPath>
<clipPath id="clip1_2_3348">
<rect width="40" height="40" fill="white"/>
</clipPath>
</defs>
</svg>
