<svg width="40" height="40" viewBox="0 0 40 40" fill="none" xmlns="http://www.w3.org/2000/svg">
<g clip-path="url(#clip0_2_3361)">
<g clip-path="url(#clip1_2_3361)">
<path d="M41.8889 0H-0.888889C-2.50966 0 -4.06404 0.64835 -5.2101 1.80242C-6.35615 2.95649 -7 4.52174 -7 6.15385L-7 33.8462C-7 35.4783 -6.35615 37.0435 -5.2101 38.1976C-4.06404 39.3517 -2.50966 40 -0.888889 40H41.8889C43.5097 40 45.064 39.3517 46.2101 38.1976C47.3562 37.0435 48 35.4783 48 33.8462V6.15385C48 4.52174 47.3562 2.95649 46.2101 1.80242C45.064 0.64835 43.5097 0 41.8889 0Z" fill="#E30000"/>
<path d="M23.1783 16.9799L20.5001 8.67993L17.8219 16.9799H9.15631L16.1673 22.1076L13.4891 30.4076L20.5001 25.2784L27.5111 30.4076L24.8329 22.1076L31.8438 16.9799H23.1783Z" fill="#E6E600"/>
</g>
</g>
<defs>
<clipPath id="clip0_2_3361">
<rect width="40" height="40" rx="20" fill="white"/>
</clipPath>
<clipPath id="clip1_2_3361">
<rect x="-7" width="55" height="40" rx="7" fill="white"/>
</clipPath>
</defs>
</svg>
