<svg width="28" height="25" viewBox="0 0 28 25" fill="none" xmlns="http://www.w3.org/2000/svg">
<path fill-rule="evenodd" clip-rule="evenodd" d="M12.2726 2.2521C11.3788 2.2521 10.6184 2.81496 10.405 3.57361H17.5819C17.3684 2.81496 16.6081 2.2521 15.7143 2.2521H12.2726ZM19.6096 3.57361H22.2509C25.0523 3.57361 27.3334 5.66601 27.3334 8.23561C27.3334 8.23561 27.2534 9.32341 27.2267 10.8383C27.224 10.9582 27.16 11.0756 27.0546 11.1466C26.413 11.5761 25.826 11.931 25.7726 11.9554C23.5582 13.3014 20.9849 14.2485 18.2435 14.7196C18.0648 14.7514 17.8887 14.667 17.798 14.5226C17.0296 13.3161 15.5942 12.5305 13.9934 12.5305C12.4033 12.5305 10.9546 13.3075 10.1635 14.5152C10.0715 14.6572 9.89803 14.7392 9.72061 14.7086C7.00192 14.2363 4.42863 13.2904 2.22753 11.9677L0.946888 11.1601C0.840168 11.0989 0.773468 10.9888 0.773468 10.8664C0.733448 10.2424 0.666748 8.23561 0.666748 8.23561C0.666748 5.66601 2.94789 3.57361 5.74929 3.57361H8.37727C8.63073 1.79936 10.2716 0.416664 12.2726 0.416664H15.7143C17.7153 0.416664 19.3561 1.79936 19.6096 3.57361ZM26.8799 13.4851L26.8265 13.5095C24.1318 15.1492 20.8902 16.2382 17.4885 16.691C17.0083 16.7521 16.528 16.4707 16.3946 16.0302C16.1011 15.0268 15.154 14.3661 14.0201 14.3661H14.0068H13.9801C12.8462 14.3661 11.899 15.0268 11.6055 16.0302C11.4721 16.4707 10.9919 16.7521 10.5117 16.691C7.10997 16.2382 3.86835 15.1492 1.17367 13.5095C1.16033 13.4973 1.02693 13.4239 0.920208 13.4851C0.800148 13.5463 0.800148 13.6931 0.800148 13.6931L0.893528 19.9336C0.893528 22.5032 3.16133 24.5833 5.96273 24.5833H22.0241C24.8255 24.5833 27.0933 22.5032 27.0933 19.9336L27.2 13.6931C27.2 13.6931 27.2 13.5463 27.08 13.4851C27.0133 13.4484 26.9332 13.4606 26.8799 13.4851ZM14.9939 18.6121C14.9939 19.126 14.5537 19.5298 13.9934 19.5298C13.4465 19.5298 12.9929 19.126 12.9929 18.6121V17.0336C12.9929 16.5319 13.4465 16.1159 13.9934 16.1159C14.5537 16.1159 14.9939 16.5319 14.9939 17.0336V18.6121Z" fill="white"/>
</svg>
