<svg width="42" height="42" viewBox="0 0 42 42" fill="none" xmlns="http://www.w3.org/2000/svg">
<path fill-rule="evenodd" clip-rule="evenodd" d="M29.75 5.47494C29.75 4.34953 28.7031 3.51669 27.6064 3.76976L6.6065 8.61591C5.81247 8.79915 5.25 9.50619 5.25 10.3211V36.75H4.375C3.89175 36.75 3.5 37.1418 3.5 37.625C3.5 38.1082 3.89175 38.5 4.375 38.5H6.12155H6.125H6.12845H14V33.25C14 32.2835 14.7835 31.5 15.75 31.5H19.25C20.2165 31.5 21 32.2835 21 33.25V38.5H28.8715H28.875H28.8785H29.75V5.47494ZM11.375 14C10.8918 14 10.5 14.3918 10.5 14.875V16.625C10.5 17.1083 10.8918 17.5 11.375 17.5H13.125C13.6082 17.5 14 17.1083 14 16.625V14.875C14 14.3918 13.6082 14 13.125 14H11.375ZM10.5 20.125C10.5 19.6418 10.8918 19.25 11.375 19.25H13.125C13.6082 19.25 14 19.6418 14 20.125V21.875C14 22.3582 13.6082 22.75 13.125 22.75H11.375C10.8918 22.75 10.5 22.3582 10.5 21.875V20.125ZM11.375 24.5C10.8918 24.5 10.5 24.8918 10.5 25.375V27.125C10.5 27.6082 10.8918 28 11.375 28H13.125C13.6082 28 14 27.6082 14 27.125V25.375C14 24.8918 13.6082 24.5 13.125 24.5H11.375ZM15.75 14.875C15.75 14.3918 16.1418 14 16.625 14H18.375C18.8582 14 19.25 14.3918 19.25 14.875V16.625C19.25 17.1083 18.8582 17.5 18.375 17.5H16.625C16.1418 17.5 15.75 17.1083 15.75 16.625V14.875ZM16.625 19.25C16.1418 19.25 15.75 19.6418 15.75 20.125V21.875C15.75 22.3582 16.1418 22.75 16.625 22.75H18.375C18.8582 22.75 19.25 22.3582 19.25 21.875V20.125C19.25 19.6418 18.8582 19.25 18.375 19.25H16.625ZM15.75 25.375C15.75 24.8918 16.1418 24.5 16.625 24.5H18.375C18.8582 24.5 19.25 24.8918 19.25 25.375V27.125C19.25 27.6082 18.8582 28 18.375 28H16.625C16.1418 28 15.75 27.6082 15.75 27.125V25.375ZM21.875 14C21.3918 14 21 14.3918 21 14.875V16.625C21 17.1083 21.3918 17.5 21.875 17.5H23.625C24.1082 17.5 24.5 17.1083 24.5 16.625V14.875C24.5 14.3918 24.1082 14 23.625 14H21.875ZM21 20.125C21 19.6418 21.3918 19.25 21.875 19.25H23.625C24.1082 19.25 24.5 19.6418 24.5 20.125V21.875C24.5 22.3582 24.1082 22.75 23.625 22.75H21.875C21.3918 22.75 21 22.3582 21 21.875V20.125ZM21.875 24.5C21.3918 24.5 21 24.8918 21 25.375V27.125C21 27.6082 21.3918 28 21.875 28H23.625C24.1082 28 24.5 27.6082 24.5 27.125V25.375C24.5 24.8918 24.1082 24.5 23.625 24.5H21.875Z" fill="white"/>
<path d="M31.5 9.95926V38.5H35.8726H35.875H35.8774H37.625C38.1082 38.5 38.5 38.1082 38.5 37.625C38.5 37.1419 38.1082 36.75 37.625 36.75H36.75V13.6658C36.75 13.003 36.3755 12.397 35.7826 12.1006L31.5 9.95926Z" fill="white"/>
<path d="M19.25 38.5H15.75V33.25H19.25V38.5Z" fill="white"/>
</svg>
